G04 #@! TF.GenerationSoftware,KiCad,Pcbnew,(5.1.6)-1*
G04 #@! TF.CreationDate,2020-12-17T20:47:20-05:00*
G04 #@! TF.ProjectId,atx2,61747832-2e6b-4696-9361-645f70636258,rev?*
G04 #@! TF.SameCoordinates,Original*
G04 #@! TF.FileFunction,Paste,Top*
G04 #@! TF.FilePolarity,Positive*
%FSLAX46Y46*%
G04 Gerber Fmt 4.6, Leading zero omitted, Abs format (unit mm)*
G04 Created by KiCad (PCBNEW (5.1.6)-1) date 2020-12-17 20:47:20*
%MOMM*%
%LPD*%
G01*
G04 APERTURE LIST*
G04 APERTURE END LIST*
G36*
G01*
X70619000Y-108321000D02*
X70619000Y-107071000D01*
G75*
G02*
X70869000Y-106821000I250000J0D01*
G01*
X71619000Y-106821000D01*
G75*
G02*
X71869000Y-107071000I0J-250000D01*
G01*
X71869000Y-108321000D01*
G75*
G02*
X71619000Y-108571000I-250000J0D01*
G01*
X70869000Y-108571000D01*
G75*
G02*
X70619000Y-108321000I0J250000D01*
G01*
G37*
G36*
G01*
X73419000Y-108321000D02*
X73419000Y-107071000D01*
G75*
G02*
X73669000Y-106821000I250000J0D01*
G01*
X74419000Y-106821000D01*
G75*
G02*
X74669000Y-107071000I0J-250000D01*
G01*
X74669000Y-108321000D01*
G75*
G02*
X74419000Y-108571000I-250000J0D01*
G01*
X73669000Y-108571000D01*
G75*
G02*
X73419000Y-108321000I0J250000D01*
G01*
G37*
G36*
G01*
X70619000Y-98161000D02*
X70619000Y-96911000D01*
G75*
G02*
X70869000Y-96661000I250000J0D01*
G01*
X71619000Y-96661000D01*
G75*
G02*
X71869000Y-96911000I0J-250000D01*
G01*
X71869000Y-98161000D01*
G75*
G02*
X71619000Y-98411000I-250000J0D01*
G01*
X70869000Y-98411000D01*
G75*
G02*
X70619000Y-98161000I0J250000D01*
G01*
G37*
G36*
G01*
X73419000Y-98161000D02*
X73419000Y-96911000D01*
G75*
G02*
X73669000Y-96661000I250000J0D01*
G01*
X74419000Y-96661000D01*
G75*
G02*
X74669000Y-96911000I0J-250000D01*
G01*
X74669000Y-98161000D01*
G75*
G02*
X74419000Y-98411000I-250000J0D01*
G01*
X73669000Y-98411000D01*
G75*
G02*
X73419000Y-98161000I0J250000D01*
G01*
G37*
G36*
G01*
X70619000Y-103241000D02*
X70619000Y-101991000D01*
G75*
G02*
X70869000Y-101741000I250000J0D01*
G01*
X71619000Y-101741000D01*
G75*
G02*
X71869000Y-101991000I0J-250000D01*
G01*
X71869000Y-103241000D01*
G75*
G02*
X71619000Y-103491000I-250000J0D01*
G01*
X70869000Y-103491000D01*
G75*
G02*
X70619000Y-103241000I0J250000D01*
G01*
G37*
G36*
G01*
X73419000Y-103241000D02*
X73419000Y-101991000D01*
G75*
G02*
X73669000Y-101741000I250000J0D01*
G01*
X74419000Y-101741000D01*
G75*
G02*
X74669000Y-101991000I0J-250000D01*
G01*
X74669000Y-103241000D01*
G75*
G02*
X74419000Y-103491000I-250000J0D01*
G01*
X73669000Y-103491000D01*
G75*
G02*
X73419000Y-103241000I0J250000D01*
G01*
G37*
G36*
G01*
X73419000Y-88001000D02*
X73419000Y-86751000D01*
G75*
G02*
X73669000Y-86501000I250000J0D01*
G01*
X74419000Y-86501000D01*
G75*
G02*
X74669000Y-86751000I0J-250000D01*
G01*
X74669000Y-88001000D01*
G75*
G02*
X74419000Y-88251000I-250000J0D01*
G01*
X73669000Y-88251000D01*
G75*
G02*
X73419000Y-88001000I0J250000D01*
G01*
G37*
G36*
G01*
X70619000Y-88001000D02*
X70619000Y-86751000D01*
G75*
G02*
X70869000Y-86501000I250000J0D01*
G01*
X71619000Y-86501000D01*
G75*
G02*
X71869000Y-86751000I0J-250000D01*
G01*
X71869000Y-88001000D01*
G75*
G02*
X71619000Y-88251000I-250000J0D01*
G01*
X70869000Y-88251000D01*
G75*
G02*
X70619000Y-88001000I0J250000D01*
G01*
G37*
G36*
G01*
X73419000Y-93081000D02*
X73419000Y-91831000D01*
G75*
G02*
X73669000Y-91581000I250000J0D01*
G01*
X74419000Y-91581000D01*
G75*
G02*
X74669000Y-91831000I0J-250000D01*
G01*
X74669000Y-93081000D01*
G75*
G02*
X74419000Y-93331000I-250000J0D01*
G01*
X73669000Y-93331000D01*
G75*
G02*
X73419000Y-93081000I0J250000D01*
G01*
G37*
G36*
G01*
X70619000Y-93081000D02*
X70619000Y-91831000D01*
G75*
G02*
X70869000Y-91581000I250000J0D01*
G01*
X71619000Y-91581000D01*
G75*
G02*
X71869000Y-91831000I0J-250000D01*
G01*
X71869000Y-93081000D01*
G75*
G02*
X71619000Y-93331000I-250000J0D01*
G01*
X70869000Y-93331000D01*
G75*
G02*
X70619000Y-93081000I0J250000D01*
G01*
G37*
G36*
G01*
X73419000Y-82921000D02*
X73419000Y-81671000D01*
G75*
G02*
X73669000Y-81421000I250000J0D01*
G01*
X74419000Y-81421000D01*
G75*
G02*
X74669000Y-81671000I0J-250000D01*
G01*
X74669000Y-82921000D01*
G75*
G02*
X74419000Y-83171000I-250000J0D01*
G01*
X73669000Y-83171000D01*
G75*
G02*
X73419000Y-82921000I0J250000D01*
G01*
G37*
G36*
G01*
X70619000Y-82921000D02*
X70619000Y-81671000D01*
G75*
G02*
X70869000Y-81421000I250000J0D01*
G01*
X71619000Y-81421000D01*
G75*
G02*
X71869000Y-81671000I0J-250000D01*
G01*
X71869000Y-82921000D01*
G75*
G02*
X71619000Y-83171000I-250000J0D01*
G01*
X70869000Y-83171000D01*
G75*
G02*
X70619000Y-82921000I0J250000D01*
G01*
G37*
G36*
G01*
X79007000Y-108321000D02*
X79007000Y-107071000D01*
G75*
G02*
X79257000Y-106821000I250000J0D01*
G01*
X80007000Y-106821000D01*
G75*
G02*
X80257000Y-107071000I0J-250000D01*
G01*
X80257000Y-108321000D01*
G75*
G02*
X80007000Y-108571000I-250000J0D01*
G01*
X79257000Y-108571000D01*
G75*
G02*
X79007000Y-108321000I0J250000D01*
G01*
G37*
G36*
G01*
X76207000Y-108321000D02*
X76207000Y-107071000D01*
G75*
G02*
X76457000Y-106821000I250000J0D01*
G01*
X77207000Y-106821000D01*
G75*
G02*
X77457000Y-107071000I0J-250000D01*
G01*
X77457000Y-108321000D01*
G75*
G02*
X77207000Y-108571000I-250000J0D01*
G01*
X76457000Y-108571000D01*
G75*
G02*
X76207000Y-108321000I0J250000D01*
G01*
G37*
G36*
G01*
X76207000Y-98161000D02*
X76207000Y-96911000D01*
G75*
G02*
X76457000Y-96661000I250000J0D01*
G01*
X77207000Y-96661000D01*
G75*
G02*
X77457000Y-96911000I0J-250000D01*
G01*
X77457000Y-98161000D01*
G75*
G02*
X77207000Y-98411000I-250000J0D01*
G01*
X76457000Y-98411000D01*
G75*
G02*
X76207000Y-98161000I0J250000D01*
G01*
G37*
G36*
G01*
X79007000Y-98161000D02*
X79007000Y-96911000D01*
G75*
G02*
X79257000Y-96661000I250000J0D01*
G01*
X80007000Y-96661000D01*
G75*
G02*
X80257000Y-96911000I0J-250000D01*
G01*
X80257000Y-98161000D01*
G75*
G02*
X80007000Y-98411000I-250000J0D01*
G01*
X79257000Y-98411000D01*
G75*
G02*
X79007000Y-98161000I0J250000D01*
G01*
G37*
G36*
G01*
X76207000Y-103241000D02*
X76207000Y-101991000D01*
G75*
G02*
X76457000Y-101741000I250000J0D01*
G01*
X77207000Y-101741000D01*
G75*
G02*
X77457000Y-101991000I0J-250000D01*
G01*
X77457000Y-103241000D01*
G75*
G02*
X77207000Y-103491000I-250000J0D01*
G01*
X76457000Y-103491000D01*
G75*
G02*
X76207000Y-103241000I0J250000D01*
G01*
G37*
G36*
G01*
X79007000Y-103241000D02*
X79007000Y-101991000D01*
G75*
G02*
X79257000Y-101741000I250000J0D01*
G01*
X80007000Y-101741000D01*
G75*
G02*
X80257000Y-101991000I0J-250000D01*
G01*
X80257000Y-103241000D01*
G75*
G02*
X80007000Y-103491000I-250000J0D01*
G01*
X79257000Y-103491000D01*
G75*
G02*
X79007000Y-103241000I0J250000D01*
G01*
G37*
G36*
G01*
X79007000Y-88001000D02*
X79007000Y-86751000D01*
G75*
G02*
X79257000Y-86501000I250000J0D01*
G01*
X80007000Y-86501000D01*
G75*
G02*
X80257000Y-86751000I0J-250000D01*
G01*
X80257000Y-88001000D01*
G75*
G02*
X80007000Y-88251000I-250000J0D01*
G01*
X79257000Y-88251000D01*
G75*
G02*
X79007000Y-88001000I0J250000D01*
G01*
G37*
G36*
G01*
X76207000Y-88001000D02*
X76207000Y-86751000D01*
G75*
G02*
X76457000Y-86501000I250000J0D01*
G01*
X77207000Y-86501000D01*
G75*
G02*
X77457000Y-86751000I0J-250000D01*
G01*
X77457000Y-88001000D01*
G75*
G02*
X77207000Y-88251000I-250000J0D01*
G01*
X76457000Y-88251000D01*
G75*
G02*
X76207000Y-88001000I0J250000D01*
G01*
G37*
G36*
G01*
X76207000Y-93081000D02*
X76207000Y-91831000D01*
G75*
G02*
X76457000Y-91581000I250000J0D01*
G01*
X77207000Y-91581000D01*
G75*
G02*
X77457000Y-91831000I0J-250000D01*
G01*
X77457000Y-93081000D01*
G75*
G02*
X77207000Y-93331000I-250000J0D01*
G01*
X76457000Y-93331000D01*
G75*
G02*
X76207000Y-93081000I0J250000D01*
G01*
G37*
G36*
G01*
X79007000Y-93081000D02*
X79007000Y-91831000D01*
G75*
G02*
X79257000Y-91581000I250000J0D01*
G01*
X80007000Y-91581000D01*
G75*
G02*
X80257000Y-91831000I0J-250000D01*
G01*
X80257000Y-93081000D01*
G75*
G02*
X80007000Y-93331000I-250000J0D01*
G01*
X79257000Y-93331000D01*
G75*
G02*
X79007000Y-93081000I0J250000D01*
G01*
G37*
G36*
G01*
X79007000Y-82921000D02*
X79007000Y-81671000D01*
G75*
G02*
X79257000Y-81421000I250000J0D01*
G01*
X80007000Y-81421000D01*
G75*
G02*
X80257000Y-81671000I0J-250000D01*
G01*
X80257000Y-82921000D01*
G75*
G02*
X80007000Y-83171000I-250000J0D01*
G01*
X79257000Y-83171000D01*
G75*
G02*
X79007000Y-82921000I0J250000D01*
G01*
G37*
G36*
G01*
X76207000Y-82921000D02*
X76207000Y-81671000D01*
G75*
G02*
X76457000Y-81421000I250000J0D01*
G01*
X77207000Y-81421000D01*
G75*
G02*
X77457000Y-81671000I0J-250000D01*
G01*
X77457000Y-82921000D01*
G75*
G02*
X77207000Y-83171000I-250000J0D01*
G01*
X76457000Y-83171000D01*
G75*
G02*
X76207000Y-82921000I0J250000D01*
G01*
G37*
M02*
