M48
; DRILL file {KiCad (5.1.4)-1} date 6/7/2020 10:10:02 PM
; FORMAT={-:-/ absolute / inch / decimal}
; #@! TF.CreationDate,2020-06-07T22:10:02-04:00
; #@! TF.GenerationSoftware,Kicad,Pcbnew,(5.1.4)-1
; #@! TF.FileFunction,Plated,1,2,PTH
FMAT,2
INCH
T1C0.0551
T2C0.0630
%
G90
G05
T1
X2.737Y-5.795
X2.737Y-5.958
X2.9Y-5.795
X2.9Y-5.958
X2.6841Y-3.0531
X2.6841Y-3.2161
X2.6841Y-3.3791
X2.6841Y-3.542
X2.6841Y-3.705
X2.6841Y-3.868
X2.6841Y-4.031
X2.6841Y-4.194
X2.6841Y-4.357
X2.6841Y-4.52
X2.6841Y-4.683
X2.6841Y-4.846
X2.847Y-3.0531
X2.847Y-3.2161
X2.847Y-3.3791
X2.847Y-3.542
X2.847Y-3.705
X2.847Y-3.868
X2.847Y-4.031
X2.847Y-4.194
X2.847Y-4.357
X2.847Y-4.52
X2.847Y-4.683
X2.847Y-4.846
X2.737Y-5.285
X2.737Y-5.448
X2.9Y-5.285
X2.9Y-5.448
T2
X3.525Y-5.635
X3.525Y-5.935
X3.595Y-3.535
X3.595Y-3.835
X3.525Y-4.86
X3.525Y-5.16
T0
M30
