M48
; DRILL file {KiCad (5.1.6)-1} date 12/17/20 20:47:26
; FORMAT={-:-/ absolute / inch / decimal}
; #@! TF.CreationDate,2020-12-17T20:47:26-05:00
; #@! TF.GenerationSoftware,Kicad,Pcbnew,(5.1.6)-1
; #@! TF.FileFunction,Plated,1,2,PTH
FMAT,2
INCH
T1C0.0118
T2C0.0315
T3C0.0551
T4C0.0630
%
G90
G05
T1
X2.6389Y-4.8039
X2.74Y-3.44
X2.74Y-3.64
X2.74Y-3.84
X2.74Y-4.24
X2.8Y-3.16
X3.2Y-4.04
T2
X2.92Y-5.64
X2.92Y-5.766
X3.0184Y-5.64
X3.0184Y-5.766
X3.1169Y-5.64
X3.1169Y-5.766
T3
X2.31Y-2.0039
X2.31Y-2.1693
X2.31Y-2.3346
X2.31Y-2.5
X2.5265Y-2.0039
X2.5265Y-2.1693
X2.5265Y-2.3346
X2.5265Y-2.5
X2.2985Y-2.985
X2.2985Y-3.1504
X2.2985Y-3.3157
X2.2985Y-3.4811
X2.2985Y-3.6464
X2.2985Y-3.8118
X2.2985Y-3.9771
X2.2985Y-4.1425
X2.2985Y-4.3078
X2.2985Y-4.4732
X2.2985Y-4.6385
X2.2985Y-4.8039
X2.515Y-2.985
X2.515Y-3.1504
X2.515Y-3.3157
X2.515Y-3.4811
X2.515Y-3.6464
X2.515Y-3.8118
X2.515Y-3.9771
X2.515Y-4.1425
X2.515Y-4.3078
X2.515Y-4.4732
X2.515Y-4.6385
X2.515Y-4.8039
T4
X3.819Y-4.664
X3.819Y-4.964
X3.82Y-2.58
X3.82Y-2.88
X3.8191Y-4.021
X3.8191Y-4.321
X3.8189Y-5.3056
X3.8189Y-5.6056
X3.82Y-1.94
X3.82Y-2.24
X3.818Y-3.22
X3.818Y-3.52
T0
M30
