G04 #@! TF.GenerationSoftware,KiCad,Pcbnew,(5.1.6)-1*
G04 #@! TF.CreationDate,2020-12-17T20:47:20-05:00*
G04 #@! TF.ProjectId,atx2,61747832-2e6b-4696-9361-645f70636258,rev?*
G04 #@! TF.SameCoordinates,Original*
G04 #@! TF.FileFunction,Copper,L1,Top*
G04 #@! TF.FilePolarity,Positive*
%FSLAX46Y46*%
G04 Gerber Fmt 4.6, Leading zero omitted, Abs format (unit mm)*
G04 Created by KiCad (PCBNEW (5.1.6)-1) date 2020-12-17 20:47:20*
%MOMM*%
%LPD*%
G01*
G04 APERTURE LIST*
G04 #@! TA.AperFunction,ComponentPad*
%ADD10C,2.540000*%
G04 #@! TD*
G04 #@! TA.AperFunction,ComponentPad*
%ADD11R,2.540000X2.540000*%
G04 #@! TD*
G04 #@! TA.AperFunction,ComponentPad*
%ADD12R,1.600000X1.600000*%
G04 #@! TD*
G04 #@! TA.AperFunction,ComponentPad*
%ADD13C,1.600000*%
G04 #@! TD*
G04 #@! TA.AperFunction,ComponentPad*
%ADD14O,3.300000X2.700000*%
G04 #@! TD*
G04 #@! TA.AperFunction,ViaPad*
%ADD15C,0.600000*%
G04 #@! TD*
G04 #@! TA.AperFunction,Conductor*
%ADD16C,0.203200*%
G04 #@! TD*
G04 #@! TA.AperFunction,Conductor*
%ADD17C,2.000000*%
G04 #@! TD*
G04 APERTURE END LIST*
G04 #@! TA.AperFunction,SMDPad,CuDef*
G36*
G01*
X70619000Y-108321000D02*
X70619000Y-107071000D01*
G75*
G02*
X70869000Y-106821000I250000J0D01*
G01*
X71619000Y-106821000D01*
G75*
G02*
X71869000Y-107071000I0J-250000D01*
G01*
X71869000Y-108321000D01*
G75*
G02*
X71619000Y-108571000I-250000J0D01*
G01*
X70869000Y-108571000D01*
G75*
G02*
X70619000Y-108321000I0J250000D01*
G01*
G37*
G04 #@! TD.AperFunction*
G04 #@! TA.AperFunction,SMDPad,CuDef*
G36*
G01*
X73419000Y-108321000D02*
X73419000Y-107071000D01*
G75*
G02*
X73669000Y-106821000I250000J0D01*
G01*
X74419000Y-106821000D01*
G75*
G02*
X74669000Y-107071000I0J-250000D01*
G01*
X74669000Y-108321000D01*
G75*
G02*
X74419000Y-108571000I-250000J0D01*
G01*
X73669000Y-108571000D01*
G75*
G02*
X73419000Y-108321000I0J250000D01*
G01*
G37*
G04 #@! TD.AperFunction*
G04 #@! TA.AperFunction,SMDPad,CuDef*
G36*
G01*
X70619000Y-98161000D02*
X70619000Y-96911000D01*
G75*
G02*
X70869000Y-96661000I250000J0D01*
G01*
X71619000Y-96661000D01*
G75*
G02*
X71869000Y-96911000I0J-250000D01*
G01*
X71869000Y-98161000D01*
G75*
G02*
X71619000Y-98411000I-250000J0D01*
G01*
X70869000Y-98411000D01*
G75*
G02*
X70619000Y-98161000I0J250000D01*
G01*
G37*
G04 #@! TD.AperFunction*
G04 #@! TA.AperFunction,SMDPad,CuDef*
G36*
G01*
X73419000Y-98161000D02*
X73419000Y-96911000D01*
G75*
G02*
X73669000Y-96661000I250000J0D01*
G01*
X74419000Y-96661000D01*
G75*
G02*
X74669000Y-96911000I0J-250000D01*
G01*
X74669000Y-98161000D01*
G75*
G02*
X74419000Y-98411000I-250000J0D01*
G01*
X73669000Y-98411000D01*
G75*
G02*
X73419000Y-98161000I0J250000D01*
G01*
G37*
G04 #@! TD.AperFunction*
G04 #@! TA.AperFunction,SMDPad,CuDef*
G36*
G01*
X70619000Y-103241000D02*
X70619000Y-101991000D01*
G75*
G02*
X70869000Y-101741000I250000J0D01*
G01*
X71619000Y-101741000D01*
G75*
G02*
X71869000Y-101991000I0J-250000D01*
G01*
X71869000Y-103241000D01*
G75*
G02*
X71619000Y-103491000I-250000J0D01*
G01*
X70869000Y-103491000D01*
G75*
G02*
X70619000Y-103241000I0J250000D01*
G01*
G37*
G04 #@! TD.AperFunction*
G04 #@! TA.AperFunction,SMDPad,CuDef*
G36*
G01*
X73419000Y-103241000D02*
X73419000Y-101991000D01*
G75*
G02*
X73669000Y-101741000I250000J0D01*
G01*
X74419000Y-101741000D01*
G75*
G02*
X74669000Y-101991000I0J-250000D01*
G01*
X74669000Y-103241000D01*
G75*
G02*
X74419000Y-103491000I-250000J0D01*
G01*
X73669000Y-103491000D01*
G75*
G02*
X73419000Y-103241000I0J250000D01*
G01*
G37*
G04 #@! TD.AperFunction*
G04 #@! TA.AperFunction,SMDPad,CuDef*
G36*
G01*
X73419000Y-88001000D02*
X73419000Y-86751000D01*
G75*
G02*
X73669000Y-86501000I250000J0D01*
G01*
X74419000Y-86501000D01*
G75*
G02*
X74669000Y-86751000I0J-250000D01*
G01*
X74669000Y-88001000D01*
G75*
G02*
X74419000Y-88251000I-250000J0D01*
G01*
X73669000Y-88251000D01*
G75*
G02*
X73419000Y-88001000I0J250000D01*
G01*
G37*
G04 #@! TD.AperFunction*
G04 #@! TA.AperFunction,SMDPad,CuDef*
G36*
G01*
X70619000Y-88001000D02*
X70619000Y-86751000D01*
G75*
G02*
X70869000Y-86501000I250000J0D01*
G01*
X71619000Y-86501000D01*
G75*
G02*
X71869000Y-86751000I0J-250000D01*
G01*
X71869000Y-88001000D01*
G75*
G02*
X71619000Y-88251000I-250000J0D01*
G01*
X70869000Y-88251000D01*
G75*
G02*
X70619000Y-88001000I0J250000D01*
G01*
G37*
G04 #@! TD.AperFunction*
G04 #@! TA.AperFunction,SMDPad,CuDef*
G36*
G01*
X73419000Y-93081000D02*
X73419000Y-91831000D01*
G75*
G02*
X73669000Y-91581000I250000J0D01*
G01*
X74419000Y-91581000D01*
G75*
G02*
X74669000Y-91831000I0J-250000D01*
G01*
X74669000Y-93081000D01*
G75*
G02*
X74419000Y-93331000I-250000J0D01*
G01*
X73669000Y-93331000D01*
G75*
G02*
X73419000Y-93081000I0J250000D01*
G01*
G37*
G04 #@! TD.AperFunction*
G04 #@! TA.AperFunction,SMDPad,CuDef*
G36*
G01*
X70619000Y-93081000D02*
X70619000Y-91831000D01*
G75*
G02*
X70869000Y-91581000I250000J0D01*
G01*
X71619000Y-91581000D01*
G75*
G02*
X71869000Y-91831000I0J-250000D01*
G01*
X71869000Y-93081000D01*
G75*
G02*
X71619000Y-93331000I-250000J0D01*
G01*
X70869000Y-93331000D01*
G75*
G02*
X70619000Y-93081000I0J250000D01*
G01*
G37*
G04 #@! TD.AperFunction*
G04 #@! TA.AperFunction,SMDPad,CuDef*
G36*
G01*
X73419000Y-82921000D02*
X73419000Y-81671000D01*
G75*
G02*
X73669000Y-81421000I250000J0D01*
G01*
X74419000Y-81421000D01*
G75*
G02*
X74669000Y-81671000I0J-250000D01*
G01*
X74669000Y-82921000D01*
G75*
G02*
X74419000Y-83171000I-250000J0D01*
G01*
X73669000Y-83171000D01*
G75*
G02*
X73419000Y-82921000I0J250000D01*
G01*
G37*
G04 #@! TD.AperFunction*
G04 #@! TA.AperFunction,SMDPad,CuDef*
G36*
G01*
X70619000Y-82921000D02*
X70619000Y-81671000D01*
G75*
G02*
X70869000Y-81421000I250000J0D01*
G01*
X71619000Y-81421000D01*
G75*
G02*
X71869000Y-81671000I0J-250000D01*
G01*
X71869000Y-82921000D01*
G75*
G02*
X71619000Y-83171000I-250000J0D01*
G01*
X70869000Y-83171000D01*
G75*
G02*
X70619000Y-82921000I0J250000D01*
G01*
G37*
G04 #@! TD.AperFunction*
D10*
X96977200Y-81788000D03*
D11*
X96977200Y-89408000D03*
X97002600Y-126085600D03*
D10*
X97002600Y-118465600D03*
X97005001Y-102133001D03*
D11*
X97005001Y-109753001D03*
X97028000Y-56896000D03*
D10*
X97028000Y-49276000D03*
X97028000Y-65532000D03*
D11*
X97028000Y-73152000D03*
X97000060Y-142382240D03*
D10*
X97000060Y-134762240D03*
G04 #@! TA.AperFunction,SMDPad,CuDef*
G36*
G01*
X79007000Y-108321000D02*
X79007000Y-107071000D01*
G75*
G02*
X79257000Y-106821000I250000J0D01*
G01*
X80007000Y-106821000D01*
G75*
G02*
X80257000Y-107071000I0J-250000D01*
G01*
X80257000Y-108321000D01*
G75*
G02*
X80007000Y-108571000I-250000J0D01*
G01*
X79257000Y-108571000D01*
G75*
G02*
X79007000Y-108321000I0J250000D01*
G01*
G37*
G04 #@! TD.AperFunction*
G04 #@! TA.AperFunction,SMDPad,CuDef*
G36*
G01*
X76207000Y-108321000D02*
X76207000Y-107071000D01*
G75*
G02*
X76457000Y-106821000I250000J0D01*
G01*
X77207000Y-106821000D01*
G75*
G02*
X77457000Y-107071000I0J-250000D01*
G01*
X77457000Y-108321000D01*
G75*
G02*
X77207000Y-108571000I-250000J0D01*
G01*
X76457000Y-108571000D01*
G75*
G02*
X76207000Y-108321000I0J250000D01*
G01*
G37*
G04 #@! TD.AperFunction*
G04 #@! TA.AperFunction,SMDPad,CuDef*
G36*
G01*
X76207000Y-98161000D02*
X76207000Y-96911000D01*
G75*
G02*
X76457000Y-96661000I250000J0D01*
G01*
X77207000Y-96661000D01*
G75*
G02*
X77457000Y-96911000I0J-250000D01*
G01*
X77457000Y-98161000D01*
G75*
G02*
X77207000Y-98411000I-250000J0D01*
G01*
X76457000Y-98411000D01*
G75*
G02*
X76207000Y-98161000I0J250000D01*
G01*
G37*
G04 #@! TD.AperFunction*
G04 #@! TA.AperFunction,SMDPad,CuDef*
G36*
G01*
X79007000Y-98161000D02*
X79007000Y-96911000D01*
G75*
G02*
X79257000Y-96661000I250000J0D01*
G01*
X80007000Y-96661000D01*
G75*
G02*
X80257000Y-96911000I0J-250000D01*
G01*
X80257000Y-98161000D01*
G75*
G02*
X80007000Y-98411000I-250000J0D01*
G01*
X79257000Y-98411000D01*
G75*
G02*
X79007000Y-98161000I0J250000D01*
G01*
G37*
G04 #@! TD.AperFunction*
G04 #@! TA.AperFunction,SMDPad,CuDef*
G36*
G01*
X76207000Y-103241000D02*
X76207000Y-101991000D01*
G75*
G02*
X76457000Y-101741000I250000J0D01*
G01*
X77207000Y-101741000D01*
G75*
G02*
X77457000Y-101991000I0J-250000D01*
G01*
X77457000Y-103241000D01*
G75*
G02*
X77207000Y-103491000I-250000J0D01*
G01*
X76457000Y-103491000D01*
G75*
G02*
X76207000Y-103241000I0J250000D01*
G01*
G37*
G04 #@! TD.AperFunction*
G04 #@! TA.AperFunction,SMDPad,CuDef*
G36*
G01*
X79007000Y-103241000D02*
X79007000Y-101991000D01*
G75*
G02*
X79257000Y-101741000I250000J0D01*
G01*
X80007000Y-101741000D01*
G75*
G02*
X80257000Y-101991000I0J-250000D01*
G01*
X80257000Y-103241000D01*
G75*
G02*
X80007000Y-103491000I-250000J0D01*
G01*
X79257000Y-103491000D01*
G75*
G02*
X79007000Y-103241000I0J250000D01*
G01*
G37*
G04 #@! TD.AperFunction*
G04 #@! TA.AperFunction,SMDPad,CuDef*
G36*
G01*
X79007000Y-88001000D02*
X79007000Y-86751000D01*
G75*
G02*
X79257000Y-86501000I250000J0D01*
G01*
X80007000Y-86501000D01*
G75*
G02*
X80257000Y-86751000I0J-250000D01*
G01*
X80257000Y-88001000D01*
G75*
G02*
X80007000Y-88251000I-250000J0D01*
G01*
X79257000Y-88251000D01*
G75*
G02*
X79007000Y-88001000I0J250000D01*
G01*
G37*
G04 #@! TD.AperFunction*
G04 #@! TA.AperFunction,SMDPad,CuDef*
G36*
G01*
X76207000Y-88001000D02*
X76207000Y-86751000D01*
G75*
G02*
X76457000Y-86501000I250000J0D01*
G01*
X77207000Y-86501000D01*
G75*
G02*
X77457000Y-86751000I0J-250000D01*
G01*
X77457000Y-88001000D01*
G75*
G02*
X77207000Y-88251000I-250000J0D01*
G01*
X76457000Y-88251000D01*
G75*
G02*
X76207000Y-88001000I0J250000D01*
G01*
G37*
G04 #@! TD.AperFunction*
G04 #@! TA.AperFunction,SMDPad,CuDef*
G36*
G01*
X76207000Y-93081000D02*
X76207000Y-91831000D01*
G75*
G02*
X76457000Y-91581000I250000J0D01*
G01*
X77207000Y-91581000D01*
G75*
G02*
X77457000Y-91831000I0J-250000D01*
G01*
X77457000Y-93081000D01*
G75*
G02*
X77207000Y-93331000I-250000J0D01*
G01*
X76457000Y-93331000D01*
G75*
G02*
X76207000Y-93081000I0J250000D01*
G01*
G37*
G04 #@! TD.AperFunction*
G04 #@! TA.AperFunction,SMDPad,CuDef*
G36*
G01*
X79007000Y-93081000D02*
X79007000Y-91831000D01*
G75*
G02*
X79257000Y-91581000I250000J0D01*
G01*
X80007000Y-91581000D01*
G75*
G02*
X80257000Y-91831000I0J-250000D01*
G01*
X80257000Y-93081000D01*
G75*
G02*
X80007000Y-93331000I-250000J0D01*
G01*
X79257000Y-93331000D01*
G75*
G02*
X79007000Y-93081000I0J250000D01*
G01*
G37*
G04 #@! TD.AperFunction*
G04 #@! TA.AperFunction,SMDPad,CuDef*
G36*
G01*
X79007000Y-82921000D02*
X79007000Y-81671000D01*
G75*
G02*
X79257000Y-81421000I250000J0D01*
G01*
X80007000Y-81421000D01*
G75*
G02*
X80257000Y-81671000I0J-250000D01*
G01*
X80257000Y-82921000D01*
G75*
G02*
X80007000Y-83171000I-250000J0D01*
G01*
X79257000Y-83171000D01*
G75*
G02*
X79007000Y-82921000I0J250000D01*
G01*
G37*
G04 #@! TD.AperFunction*
G04 #@! TA.AperFunction,SMDPad,CuDef*
G36*
G01*
X76207000Y-82921000D02*
X76207000Y-81671000D01*
G75*
G02*
X76457000Y-81421000I250000J0D01*
G01*
X77207000Y-81421000D01*
G75*
G02*
X77457000Y-81671000I0J-250000D01*
G01*
X77457000Y-82921000D01*
G75*
G02*
X77207000Y-83171000I-250000J0D01*
G01*
X76457000Y-83171000D01*
G75*
G02*
X76207000Y-82921000I0J250000D01*
G01*
G37*
G04 #@! TD.AperFunction*
D12*
X74168000Y-143256000D03*
D13*
X76668000Y-143256000D03*
X79168000Y-143256000D03*
X74168000Y-146456000D03*
X76668000Y-146456000D03*
X79168000Y-146456000D03*
G04 #@! TA.AperFunction,ComponentPad*
G36*
G01*
X62481001Y-74469000D02*
X65280999Y-74469000D01*
G75*
G02*
X65531000Y-74719001I0J-250001D01*
G01*
X65531000Y-76918999D01*
G75*
G02*
X65280999Y-77169000I-250001J0D01*
G01*
X62481001Y-77169000D01*
G75*
G02*
X62231000Y-76918999I0J250001D01*
G01*
X62231000Y-74719001D01*
G75*
G02*
X62481001Y-74469000I250001J0D01*
G01*
G37*
G04 #@! TD.AperFunction*
D14*
X63881000Y-80019000D03*
X63881000Y-84219000D03*
X63881000Y-88419000D03*
X63881000Y-92619000D03*
X63881000Y-96819000D03*
X63881000Y-101019000D03*
X63881000Y-105219000D03*
X63881000Y-109419000D03*
X63881000Y-113619000D03*
X63881000Y-117819000D03*
X63881000Y-122019000D03*
X58381000Y-75819000D03*
X58381000Y-80019000D03*
X58381000Y-84219000D03*
X58381000Y-88419000D03*
X58381000Y-92619000D03*
X58381000Y-96819000D03*
X58381000Y-101019000D03*
X58381000Y-105219000D03*
X58381000Y-109419000D03*
X58381000Y-113619000D03*
X58381000Y-117819000D03*
X58381000Y-122019000D03*
G04 #@! TA.AperFunction,ComponentPad*
G36*
G01*
X60073999Y-64850000D02*
X57274001Y-64850000D01*
G75*
G02*
X57024000Y-64599999I0J250001D01*
G01*
X57024000Y-62400001D01*
G75*
G02*
X57274001Y-62150000I250001J0D01*
G01*
X60073999Y-62150000D01*
G75*
G02*
X60324000Y-62400001I0J-250001D01*
G01*
X60324000Y-64599999D01*
G75*
G02*
X60073999Y-64850000I-250001J0D01*
G01*
G37*
G04 #@! TD.AperFunction*
X58674000Y-59300000D03*
X58674000Y-55100000D03*
X58674000Y-50900000D03*
X64174000Y-63500000D03*
X64174000Y-59300000D03*
X64174000Y-55100000D03*
X64174000Y-50900000D03*
D15*
X71120000Y-80264000D03*
X69596000Y-97536000D03*
X69596000Y-92456000D03*
X69596000Y-87376000D03*
X81280000Y-102616000D03*
X69596000Y-107696000D03*
X67028000Y-122019000D03*
D16*
X71120000Y-82172000D02*
X71244000Y-82296000D01*
X71120000Y-80264000D02*
X71120000Y-82172000D01*
X69596000Y-87376000D02*
X71244000Y-87376000D01*
X69596000Y-92456000D02*
X71244000Y-92456000D01*
X69596000Y-97536000D02*
X71244000Y-97536000D01*
X81280000Y-102616000D02*
X79632000Y-102616000D01*
X69596000Y-107696000D02*
X71244000Y-107696000D01*
D17*
X58381000Y-109419000D02*
X58381000Y-113619000D01*
X58381000Y-113619000D02*
X58381000Y-117819000D01*
X66734210Y-93965790D02*
X63881000Y-96819000D01*
X66734210Y-91272210D02*
X66734210Y-93965790D01*
X63881000Y-88419000D02*
X66734210Y-91272210D01*
X55527790Y-120672210D02*
X58381000Y-117819000D01*
X55527790Y-127406528D02*
X55527790Y-120672210D01*
X57543463Y-129422201D02*
X55527790Y-127406528D01*
X64076760Y-129422201D02*
X57543463Y-129422201D01*
X96977200Y-96521761D02*
X64076760Y-129422201D01*
X96977200Y-89408000D02*
X96977200Y-96521761D01*
X99501201Y-86883999D02*
X96977200Y-89408000D01*
X99501201Y-70919439D02*
X99501201Y-86883999D01*
X99260561Y-70678799D02*
X99501201Y-70919439D01*
X81100028Y-84374210D02*
X94795439Y-70678799D01*
X94795439Y-70678799D02*
X99260561Y-70678799D01*
X67925790Y-84374210D02*
X81100028Y-84374210D01*
X63881000Y-88419000D02*
X67925790Y-84374210D01*
D16*
X69423810Y-91276190D02*
X63881000Y-96819000D01*
X78452190Y-91276190D02*
X69423810Y-91276190D01*
X79632000Y-92456000D02*
X78452190Y-91276190D01*
X77155000Y-105219000D02*
X63881000Y-105219000D01*
X79632000Y-107696000D02*
X77155000Y-105219000D01*
D17*
X64174000Y-50900000D02*
X64174000Y-63500000D01*
X63881000Y-117819000D02*
X63881000Y-113619000D01*
X99475801Y-112223801D02*
X99475801Y-123612399D01*
X99475801Y-123612399D02*
X97002600Y-126085600D01*
X97005001Y-109753001D02*
X99475801Y-112223801D01*
D16*
X64866444Y-103564190D02*
X62895556Y-103564190D01*
X61926190Y-104533556D02*
X61926190Y-111664190D01*
X71250622Y-104394000D02*
X65696254Y-104394000D01*
X72173810Y-103470812D02*
X71250622Y-104394000D01*
X61926190Y-111664190D02*
X63881000Y-113619000D01*
X62895556Y-103564190D02*
X61926190Y-104533556D01*
X72173810Y-102451190D02*
X72173810Y-103470812D01*
X73188810Y-101436190D02*
X72173810Y-102451190D01*
X75731810Y-101436190D02*
X73188810Y-101436190D01*
X65696254Y-104394000D02*
X64866444Y-103564190D01*
X79632000Y-97536000D02*
X75731810Y-101436190D01*
X74044000Y-107696000D02*
X76832000Y-107696000D01*
X74044000Y-97536000D02*
X76832000Y-97536000D01*
X56426190Y-84904444D02*
X56426190Y-81973810D01*
X56426190Y-81973810D02*
X58381000Y-80019000D01*
X57395556Y-85873810D02*
X56426190Y-84904444D01*
X58476064Y-85873810D02*
X57395556Y-85873810D01*
X60335810Y-87733556D02*
X58476064Y-85873810D01*
X60335810Y-95914064D02*
X60335810Y-87733556D01*
X62895556Y-98473810D02*
X60335810Y-95914064D01*
X67101810Y-98473810D02*
X62895556Y-98473810D01*
X71244000Y-102616000D02*
X67101810Y-98473810D01*
X74044000Y-102616000D02*
X76832000Y-102616000D01*
X74044000Y-87376000D02*
X76832000Y-87376000D01*
X74044000Y-92456000D02*
X76832000Y-92456000D01*
X74044000Y-82296000D02*
X76832000Y-82296000D01*
D17*
X58381000Y-75819000D02*
X63881000Y-75819000D01*
X63881000Y-75819000D02*
X63881000Y-80019000D01*
X78105000Y-75819000D02*
X97028000Y-56896000D01*
X63881000Y-75819000D02*
X78105000Y-75819000D01*
D16*
X79632000Y-77346000D02*
X78105000Y-75819000D01*
X79632000Y-82296000D02*
X79632000Y-77346000D01*
D17*
X63881000Y-122019000D02*
X67028000Y-122019000D01*
X67028000Y-122019000D02*
X67028000Y-122019000D01*
X94503999Y-95879153D02*
X94503999Y-75676001D01*
X80608942Y-109774210D02*
X94503999Y-95879153D01*
X94503999Y-75676001D02*
X97028000Y-73152000D01*
X64236210Y-109774210D02*
X80608942Y-109774210D01*
X63881000Y-109419000D02*
X64236210Y-109774210D01*
D16*
X82804000Y-87376000D02*
X97028000Y-73152000D01*
X79632000Y-87376000D02*
X82804000Y-87376000D01*
X54222980Y-127946997D02*
X54222980Y-92577020D01*
X54222980Y-92577020D02*
X58381000Y-88419000D01*
X57002994Y-130727011D02*
X54222980Y-127946997D01*
X64139011Y-130727011D02*
X57002994Y-130727011D01*
X76668000Y-143256000D02*
X64139011Y-130727011D01*
M02*
