G04 #@! TF.GenerationSoftware,KiCad,Pcbnew,(5.1.6)-1*
G04 #@! TF.CreationDate,2020-12-17T20:47:20-05:00*
G04 #@! TF.ProjectId,atx2,61747832-2e6b-4696-9361-645f70636258,rev?*
G04 #@! TF.SameCoordinates,Original*
G04 #@! TF.FileFunction,Soldermask,Top*
G04 #@! TF.FilePolarity,Negative*
%FSLAX46Y46*%
G04 Gerber Fmt 4.6, Leading zero omitted, Abs format (unit mm)*
G04 Created by KiCad (PCBNEW (5.1.6)-1) date 2020-12-17 20:47:20*
%MOMM*%
%LPD*%
G01*
G04 APERTURE LIST*
%ADD10C,0.100000*%
G04 APERTURE END LIST*
D10*
G36*
X79416228Y-145637703D02*
G01*
X79571100Y-145701853D01*
X79710481Y-145794985D01*
X79829015Y-145913519D01*
X79922147Y-146052900D01*
X79986297Y-146207772D01*
X80019000Y-146372184D01*
X80019000Y-146539816D01*
X79986297Y-146704228D01*
X79922147Y-146859100D01*
X79829015Y-146998481D01*
X79710481Y-147117015D01*
X79571100Y-147210147D01*
X79416228Y-147274297D01*
X79251816Y-147307000D01*
X79084184Y-147307000D01*
X78919772Y-147274297D01*
X78764900Y-147210147D01*
X78625519Y-147117015D01*
X78506985Y-146998481D01*
X78413853Y-146859100D01*
X78349703Y-146704228D01*
X78317000Y-146539816D01*
X78317000Y-146372184D01*
X78349703Y-146207772D01*
X78413853Y-146052900D01*
X78506985Y-145913519D01*
X78625519Y-145794985D01*
X78764900Y-145701853D01*
X78919772Y-145637703D01*
X79084184Y-145605000D01*
X79251816Y-145605000D01*
X79416228Y-145637703D01*
G37*
G36*
X76916228Y-145637703D02*
G01*
X77071100Y-145701853D01*
X77210481Y-145794985D01*
X77329015Y-145913519D01*
X77422147Y-146052900D01*
X77486297Y-146207772D01*
X77519000Y-146372184D01*
X77519000Y-146539816D01*
X77486297Y-146704228D01*
X77422147Y-146859100D01*
X77329015Y-146998481D01*
X77210481Y-147117015D01*
X77071100Y-147210147D01*
X76916228Y-147274297D01*
X76751816Y-147307000D01*
X76584184Y-147307000D01*
X76419772Y-147274297D01*
X76264900Y-147210147D01*
X76125519Y-147117015D01*
X76006985Y-146998481D01*
X75913853Y-146859100D01*
X75849703Y-146704228D01*
X75817000Y-146539816D01*
X75817000Y-146372184D01*
X75849703Y-146207772D01*
X75913853Y-146052900D01*
X76006985Y-145913519D01*
X76125519Y-145794985D01*
X76264900Y-145701853D01*
X76419772Y-145637703D01*
X76584184Y-145605000D01*
X76751816Y-145605000D01*
X76916228Y-145637703D01*
G37*
G36*
X74416228Y-145637703D02*
G01*
X74571100Y-145701853D01*
X74710481Y-145794985D01*
X74829015Y-145913519D01*
X74922147Y-146052900D01*
X74986297Y-146207772D01*
X75019000Y-146372184D01*
X75019000Y-146539816D01*
X74986297Y-146704228D01*
X74922147Y-146859100D01*
X74829015Y-146998481D01*
X74710481Y-147117015D01*
X74571100Y-147210147D01*
X74416228Y-147274297D01*
X74251816Y-147307000D01*
X74084184Y-147307000D01*
X73919772Y-147274297D01*
X73764900Y-147210147D01*
X73625519Y-147117015D01*
X73506985Y-146998481D01*
X73413853Y-146859100D01*
X73349703Y-146704228D01*
X73317000Y-146539816D01*
X73317000Y-146372184D01*
X73349703Y-146207772D01*
X73413853Y-146052900D01*
X73506985Y-145913519D01*
X73625519Y-145794985D01*
X73764900Y-145701853D01*
X73919772Y-145637703D01*
X74084184Y-145605000D01*
X74251816Y-145605000D01*
X74416228Y-145637703D01*
G37*
G36*
X75019000Y-144107000D02*
G01*
X73317000Y-144107000D01*
X73317000Y-142405000D01*
X75019000Y-142405000D01*
X75019000Y-144107000D01*
G37*
G36*
X79416228Y-142437703D02*
G01*
X79571100Y-142501853D01*
X79710481Y-142594985D01*
X79829015Y-142713519D01*
X79922147Y-142852900D01*
X79986297Y-143007772D01*
X80019000Y-143172184D01*
X80019000Y-143339816D01*
X79986297Y-143504228D01*
X79922147Y-143659100D01*
X79829015Y-143798481D01*
X79710481Y-143917015D01*
X79571100Y-144010147D01*
X79416228Y-144074297D01*
X79251816Y-144107000D01*
X79084184Y-144107000D01*
X78919772Y-144074297D01*
X78764900Y-144010147D01*
X78625519Y-143917015D01*
X78506985Y-143798481D01*
X78413853Y-143659100D01*
X78349703Y-143504228D01*
X78317000Y-143339816D01*
X78317000Y-143172184D01*
X78349703Y-143007772D01*
X78413853Y-142852900D01*
X78506985Y-142713519D01*
X78625519Y-142594985D01*
X78764900Y-142501853D01*
X78919772Y-142437703D01*
X79084184Y-142405000D01*
X79251816Y-142405000D01*
X79416228Y-142437703D01*
G37*
G36*
X76916228Y-142437703D02*
G01*
X77071100Y-142501853D01*
X77210481Y-142594985D01*
X77329015Y-142713519D01*
X77422147Y-142852900D01*
X77486297Y-143007772D01*
X77519000Y-143172184D01*
X77519000Y-143339816D01*
X77486297Y-143504228D01*
X77422147Y-143659100D01*
X77329015Y-143798481D01*
X77210481Y-143917015D01*
X77071100Y-144010147D01*
X76916228Y-144074297D01*
X76751816Y-144107000D01*
X76584184Y-144107000D01*
X76419772Y-144074297D01*
X76264900Y-144010147D01*
X76125519Y-143917015D01*
X76006985Y-143798481D01*
X75913853Y-143659100D01*
X75849703Y-143504228D01*
X75817000Y-143339816D01*
X75817000Y-143172184D01*
X75849703Y-143007772D01*
X75913853Y-142852900D01*
X76006985Y-142713519D01*
X76125519Y-142594985D01*
X76264900Y-142501853D01*
X76419772Y-142437703D01*
X76584184Y-142405000D01*
X76751816Y-142405000D01*
X76916228Y-142437703D01*
G37*
G36*
X98321060Y-143703240D02*
G01*
X95679060Y-143703240D01*
X95679060Y-141061240D01*
X98321060Y-141061240D01*
X98321060Y-143703240D01*
G37*
G36*
X97257774Y-133466622D02*
G01*
X97385382Y-133492005D01*
X97526208Y-133550337D01*
X97625787Y-133591584D01*
X97625788Y-133591585D01*
X97842149Y-133736152D01*
X98026148Y-133920151D01*
X98122745Y-134064719D01*
X98170716Y-134136513D01*
X98211963Y-134236092D01*
X98270295Y-134376918D01*
X98321060Y-134632133D01*
X98321060Y-134892347D01*
X98270295Y-135147562D01*
X98211963Y-135288388D01*
X98170716Y-135387967D01*
X98170715Y-135387968D01*
X98026148Y-135604329D01*
X97842149Y-135788328D01*
X97697581Y-135884925D01*
X97625787Y-135932896D01*
X97526208Y-135974143D01*
X97385382Y-136032475D01*
X97257774Y-136057858D01*
X97130169Y-136083240D01*
X96869951Y-136083240D01*
X96742346Y-136057858D01*
X96614738Y-136032475D01*
X96473912Y-135974143D01*
X96374333Y-135932896D01*
X96302539Y-135884925D01*
X96157971Y-135788328D01*
X95973972Y-135604329D01*
X95829405Y-135387968D01*
X95829404Y-135387967D01*
X95788157Y-135288388D01*
X95729825Y-135147562D01*
X95679060Y-134892347D01*
X95679060Y-134632133D01*
X95729825Y-134376918D01*
X95788157Y-134236092D01*
X95829404Y-134136513D01*
X95877375Y-134064719D01*
X95973972Y-133920151D01*
X96157971Y-133736152D01*
X96374332Y-133591585D01*
X96374333Y-133591584D01*
X96473912Y-133550337D01*
X96614738Y-133492005D01*
X96742346Y-133466622D01*
X96869951Y-133441240D01*
X97130169Y-133441240D01*
X97257774Y-133466622D01*
G37*
G36*
X59143585Y-125197802D02*
G01*
X59293410Y-125227604D01*
X59575674Y-125344521D01*
X59829705Y-125514259D01*
X60045741Y-125730295D01*
X60215479Y-125984326D01*
X60332396Y-126266590D01*
X60392000Y-126566240D01*
X60392000Y-126871760D01*
X60332396Y-127171410D01*
X60215479Y-127453674D01*
X60045741Y-127707705D01*
X59829705Y-127923741D01*
X59575674Y-128093479D01*
X59293410Y-128210396D01*
X59143585Y-128240198D01*
X58993761Y-128270000D01*
X58688239Y-128270000D01*
X58538415Y-128240198D01*
X58388590Y-128210396D01*
X58106326Y-128093479D01*
X57852295Y-127923741D01*
X57636259Y-127707705D01*
X57466521Y-127453674D01*
X57349604Y-127171410D01*
X57290000Y-126871760D01*
X57290000Y-126566240D01*
X57349604Y-126266590D01*
X57466521Y-125984326D01*
X57636259Y-125730295D01*
X57852295Y-125514259D01*
X58106326Y-125344521D01*
X58388590Y-125227604D01*
X58538415Y-125197802D01*
X58688239Y-125168000D01*
X58993761Y-125168000D01*
X59143585Y-125197802D01*
G37*
G36*
X98323600Y-127406600D02*
G01*
X95681600Y-127406600D01*
X95681600Y-124764600D01*
X98323600Y-124764600D01*
X98323600Y-127406600D01*
G37*
G36*
X58852731Y-120628136D02*
G01*
X58955644Y-120638272D01*
X59151017Y-120697538D01*
X59219737Y-120718384D01*
X59449202Y-120841036D01*
X59463120Y-120848475D01*
X59518691Y-120894082D01*
X59676450Y-121023550D01*
X59805918Y-121181309D01*
X59851525Y-121236880D01*
X59851526Y-121236882D01*
X59981616Y-121480263D01*
X59981617Y-121480267D01*
X60061728Y-121744356D01*
X60088778Y-122019000D01*
X60061728Y-122293644D01*
X60002462Y-122489017D01*
X59981616Y-122557737D01*
X59858964Y-122787202D01*
X59851525Y-122801120D01*
X59805918Y-122856691D01*
X59676450Y-123014450D01*
X59518691Y-123143918D01*
X59463120Y-123189525D01*
X59463118Y-123189526D01*
X59219737Y-123319616D01*
X59151017Y-123340462D01*
X58955644Y-123399728D01*
X58852731Y-123409864D01*
X58749820Y-123420000D01*
X58012180Y-123420000D01*
X57909269Y-123409864D01*
X57806356Y-123399728D01*
X57610983Y-123340462D01*
X57542263Y-123319616D01*
X57298882Y-123189526D01*
X57298880Y-123189525D01*
X57243309Y-123143918D01*
X57085550Y-123014450D01*
X56956082Y-122856691D01*
X56910475Y-122801120D01*
X56903036Y-122787202D01*
X56780384Y-122557737D01*
X56759538Y-122489017D01*
X56700272Y-122293644D01*
X56673222Y-122019000D01*
X56700272Y-121744356D01*
X56780383Y-121480267D01*
X56780384Y-121480263D01*
X56910474Y-121236882D01*
X56910475Y-121236880D01*
X56956082Y-121181309D01*
X57085550Y-121023550D01*
X57243309Y-120894082D01*
X57298880Y-120848475D01*
X57312798Y-120841036D01*
X57542263Y-120718384D01*
X57610983Y-120697538D01*
X57806356Y-120638272D01*
X57909269Y-120628136D01*
X58012180Y-120618000D01*
X58749820Y-120618000D01*
X58852731Y-120628136D01*
G37*
G36*
X64352731Y-120628136D02*
G01*
X64455644Y-120638272D01*
X64651017Y-120697538D01*
X64719737Y-120718384D01*
X64949202Y-120841036D01*
X64963120Y-120848475D01*
X65018691Y-120894082D01*
X65176450Y-121023550D01*
X65305918Y-121181309D01*
X65351525Y-121236880D01*
X65351526Y-121236882D01*
X65481616Y-121480263D01*
X65481617Y-121480267D01*
X65561728Y-121744356D01*
X65588778Y-122019000D01*
X65561728Y-122293644D01*
X65502462Y-122489017D01*
X65481616Y-122557737D01*
X65358964Y-122787202D01*
X65351525Y-122801120D01*
X65305918Y-122856691D01*
X65176450Y-123014450D01*
X65018691Y-123143918D01*
X64963120Y-123189525D01*
X64963118Y-123189526D01*
X64719737Y-123319616D01*
X64651017Y-123340462D01*
X64455644Y-123399728D01*
X64352731Y-123409864D01*
X64249820Y-123420000D01*
X63512180Y-123420000D01*
X63409269Y-123409864D01*
X63306356Y-123399728D01*
X63110983Y-123340462D01*
X63042263Y-123319616D01*
X62798882Y-123189526D01*
X62798880Y-123189525D01*
X62743309Y-123143918D01*
X62585550Y-123014450D01*
X62456082Y-122856691D01*
X62410475Y-122801120D01*
X62403036Y-122787202D01*
X62280384Y-122557737D01*
X62259538Y-122489017D01*
X62200272Y-122293644D01*
X62173222Y-122019000D01*
X62200272Y-121744356D01*
X62280383Y-121480267D01*
X62280384Y-121480263D01*
X62410474Y-121236882D01*
X62410475Y-121236880D01*
X62456082Y-121181309D01*
X62585550Y-121023550D01*
X62743309Y-120894082D01*
X62798880Y-120848475D01*
X62812798Y-120841036D01*
X63042263Y-120718384D01*
X63110983Y-120697538D01*
X63306356Y-120638272D01*
X63409269Y-120628136D01*
X63512180Y-120618000D01*
X64249820Y-120618000D01*
X64352731Y-120628136D01*
G37*
G36*
X97260315Y-117169983D02*
G01*
X97387922Y-117195365D01*
X97528748Y-117253697D01*
X97628327Y-117294944D01*
X97628328Y-117294945D01*
X97844689Y-117439512D01*
X98028688Y-117623511D01*
X98125285Y-117768079D01*
X98173256Y-117839873D01*
X98214503Y-117939452D01*
X98272835Y-118080278D01*
X98298218Y-118207886D01*
X98323600Y-118335491D01*
X98323600Y-118595709D01*
X98298217Y-118723315D01*
X98272835Y-118850922D01*
X98215423Y-118989525D01*
X98173256Y-119091327D01*
X98173255Y-119091328D01*
X98028688Y-119307689D01*
X97844689Y-119491688D01*
X97700121Y-119588285D01*
X97628327Y-119636256D01*
X97528748Y-119677503D01*
X97387922Y-119735835D01*
X97260314Y-119761218D01*
X97132709Y-119786600D01*
X96872491Y-119786600D01*
X96744886Y-119761218D01*
X96617278Y-119735835D01*
X96476452Y-119677503D01*
X96376873Y-119636256D01*
X96305079Y-119588285D01*
X96160511Y-119491688D01*
X95976512Y-119307689D01*
X95831945Y-119091328D01*
X95831944Y-119091327D01*
X95789777Y-118989525D01*
X95732365Y-118850922D01*
X95706983Y-118723315D01*
X95681600Y-118595709D01*
X95681600Y-118335491D01*
X95706982Y-118207886D01*
X95732365Y-118080278D01*
X95790697Y-117939452D01*
X95831944Y-117839873D01*
X95879915Y-117768079D01*
X95976512Y-117623511D01*
X96160511Y-117439512D01*
X96376872Y-117294945D01*
X96376873Y-117294944D01*
X96476452Y-117253697D01*
X96617278Y-117195365D01*
X96744885Y-117169983D01*
X96872491Y-117144600D01*
X97132709Y-117144600D01*
X97260315Y-117169983D01*
G37*
G36*
X58852731Y-116428136D02*
G01*
X58955644Y-116438272D01*
X59151017Y-116497538D01*
X59219737Y-116518384D01*
X59449202Y-116641036D01*
X59463120Y-116648475D01*
X59518691Y-116694082D01*
X59676450Y-116823550D01*
X59805918Y-116981309D01*
X59851525Y-117036880D01*
X59851526Y-117036882D01*
X59981616Y-117280263D01*
X59981617Y-117280267D01*
X60061728Y-117544356D01*
X60088778Y-117819000D01*
X60061728Y-118093644D01*
X60002462Y-118289017D01*
X59981616Y-118357737D01*
X59858964Y-118587202D01*
X59851525Y-118601120D01*
X59805918Y-118656691D01*
X59676450Y-118814450D01*
X59518691Y-118943918D01*
X59463120Y-118989525D01*
X59463118Y-118989526D01*
X59219737Y-119119616D01*
X59151017Y-119140462D01*
X58955644Y-119199728D01*
X58852731Y-119209864D01*
X58749820Y-119220000D01*
X58012180Y-119220000D01*
X57909269Y-119209864D01*
X57806356Y-119199728D01*
X57610983Y-119140462D01*
X57542263Y-119119616D01*
X57298882Y-118989526D01*
X57298880Y-118989525D01*
X57243309Y-118943918D01*
X57085550Y-118814450D01*
X56956082Y-118656691D01*
X56910475Y-118601120D01*
X56903036Y-118587202D01*
X56780384Y-118357737D01*
X56759538Y-118289017D01*
X56700272Y-118093644D01*
X56673222Y-117819000D01*
X56700272Y-117544356D01*
X56780383Y-117280267D01*
X56780384Y-117280263D01*
X56910474Y-117036882D01*
X56910475Y-117036880D01*
X56956082Y-116981309D01*
X57085550Y-116823550D01*
X57243309Y-116694082D01*
X57298880Y-116648475D01*
X57312798Y-116641036D01*
X57542263Y-116518384D01*
X57610983Y-116497538D01*
X57806356Y-116438272D01*
X57909269Y-116428136D01*
X58012180Y-116418000D01*
X58749820Y-116418000D01*
X58852731Y-116428136D01*
G37*
G36*
X64352731Y-116428136D02*
G01*
X64455644Y-116438272D01*
X64651017Y-116497538D01*
X64719737Y-116518384D01*
X64949202Y-116641036D01*
X64963120Y-116648475D01*
X65018691Y-116694082D01*
X65176450Y-116823550D01*
X65305918Y-116981309D01*
X65351525Y-117036880D01*
X65351526Y-117036882D01*
X65481616Y-117280263D01*
X65481617Y-117280267D01*
X65561728Y-117544356D01*
X65588778Y-117819000D01*
X65561728Y-118093644D01*
X65502462Y-118289017D01*
X65481616Y-118357737D01*
X65358964Y-118587202D01*
X65351525Y-118601120D01*
X65305918Y-118656691D01*
X65176450Y-118814450D01*
X65018691Y-118943918D01*
X64963120Y-118989525D01*
X64963118Y-118989526D01*
X64719737Y-119119616D01*
X64651017Y-119140462D01*
X64455644Y-119199728D01*
X64352731Y-119209864D01*
X64249820Y-119220000D01*
X63512180Y-119220000D01*
X63409269Y-119209864D01*
X63306356Y-119199728D01*
X63110983Y-119140462D01*
X63042263Y-119119616D01*
X62798882Y-118989526D01*
X62798880Y-118989525D01*
X62743309Y-118943918D01*
X62585550Y-118814450D01*
X62456082Y-118656691D01*
X62410475Y-118601120D01*
X62403036Y-118587202D01*
X62280384Y-118357737D01*
X62259538Y-118289017D01*
X62200272Y-118093644D01*
X62173222Y-117819000D01*
X62200272Y-117544356D01*
X62280383Y-117280267D01*
X62280384Y-117280263D01*
X62410474Y-117036882D01*
X62410475Y-117036880D01*
X62456082Y-116981309D01*
X62585550Y-116823550D01*
X62743309Y-116694082D01*
X62798880Y-116648475D01*
X62812798Y-116641036D01*
X63042263Y-116518384D01*
X63110983Y-116497538D01*
X63306356Y-116438272D01*
X63409269Y-116428136D01*
X63512180Y-116418000D01*
X64249820Y-116418000D01*
X64352731Y-116428136D01*
G37*
G36*
X58852731Y-112228136D02*
G01*
X58955644Y-112238272D01*
X59151017Y-112297538D01*
X59219737Y-112318384D01*
X59449202Y-112441036D01*
X59463120Y-112448475D01*
X59518691Y-112494082D01*
X59676450Y-112623550D01*
X59805918Y-112781309D01*
X59851525Y-112836880D01*
X59851526Y-112836882D01*
X59981616Y-113080263D01*
X59981617Y-113080267D01*
X60061728Y-113344356D01*
X60088778Y-113619000D01*
X60061728Y-113893644D01*
X60002462Y-114089017D01*
X59981616Y-114157737D01*
X59858964Y-114387202D01*
X59851525Y-114401120D01*
X59805918Y-114456691D01*
X59676450Y-114614450D01*
X59518691Y-114743918D01*
X59463120Y-114789525D01*
X59463118Y-114789526D01*
X59219737Y-114919616D01*
X59151017Y-114940462D01*
X58955644Y-114999728D01*
X58852731Y-115009864D01*
X58749820Y-115020000D01*
X58012180Y-115020000D01*
X57909269Y-115009864D01*
X57806356Y-114999728D01*
X57610983Y-114940462D01*
X57542263Y-114919616D01*
X57298882Y-114789526D01*
X57298880Y-114789525D01*
X57243309Y-114743918D01*
X57085550Y-114614450D01*
X56956082Y-114456691D01*
X56910475Y-114401120D01*
X56903036Y-114387202D01*
X56780384Y-114157737D01*
X56759538Y-114089017D01*
X56700272Y-113893644D01*
X56673222Y-113619000D01*
X56700272Y-113344356D01*
X56780383Y-113080267D01*
X56780384Y-113080263D01*
X56910474Y-112836882D01*
X56910475Y-112836880D01*
X56956082Y-112781309D01*
X57085550Y-112623550D01*
X57243309Y-112494082D01*
X57298880Y-112448475D01*
X57312798Y-112441036D01*
X57542263Y-112318384D01*
X57610983Y-112297538D01*
X57806356Y-112238272D01*
X57909269Y-112228136D01*
X58012180Y-112218000D01*
X58749820Y-112218000D01*
X58852731Y-112228136D01*
G37*
G36*
X64352731Y-112228136D02*
G01*
X64455644Y-112238272D01*
X64651017Y-112297538D01*
X64719737Y-112318384D01*
X64949202Y-112441036D01*
X64963120Y-112448475D01*
X65018691Y-112494082D01*
X65176450Y-112623550D01*
X65305918Y-112781309D01*
X65351525Y-112836880D01*
X65351526Y-112836882D01*
X65481616Y-113080263D01*
X65481617Y-113080267D01*
X65561728Y-113344356D01*
X65588778Y-113619000D01*
X65561728Y-113893644D01*
X65502462Y-114089017D01*
X65481616Y-114157737D01*
X65358964Y-114387202D01*
X65351525Y-114401120D01*
X65305918Y-114456691D01*
X65176450Y-114614450D01*
X65018691Y-114743918D01*
X64963120Y-114789525D01*
X64963118Y-114789526D01*
X64719737Y-114919616D01*
X64651017Y-114940462D01*
X64455644Y-114999728D01*
X64352731Y-115009864D01*
X64249820Y-115020000D01*
X63512180Y-115020000D01*
X63409269Y-115009864D01*
X63306356Y-114999728D01*
X63110983Y-114940462D01*
X63042263Y-114919616D01*
X62798882Y-114789526D01*
X62798880Y-114789525D01*
X62743309Y-114743918D01*
X62585550Y-114614450D01*
X62456082Y-114456691D01*
X62410475Y-114401120D01*
X62403036Y-114387202D01*
X62280384Y-114157737D01*
X62259538Y-114089017D01*
X62200272Y-113893644D01*
X62173222Y-113619000D01*
X62200272Y-113344356D01*
X62280383Y-113080267D01*
X62280384Y-113080263D01*
X62410474Y-112836882D01*
X62410475Y-112836880D01*
X62456082Y-112781309D01*
X62585550Y-112623550D01*
X62743309Y-112494082D01*
X62798880Y-112448475D01*
X62812798Y-112441036D01*
X63042263Y-112318384D01*
X63110983Y-112297538D01*
X63306356Y-112238272D01*
X63409269Y-112228136D01*
X63512180Y-112218000D01*
X64249820Y-112218000D01*
X64352731Y-112228136D01*
G37*
G36*
X98326001Y-111074001D02*
G01*
X95684001Y-111074001D01*
X95684001Y-108432001D01*
X98326001Y-108432001D01*
X98326001Y-111074001D01*
G37*
G36*
X58852731Y-108028136D02*
G01*
X58955644Y-108038272D01*
X59151017Y-108097538D01*
X59219737Y-108118384D01*
X59449202Y-108241036D01*
X59463120Y-108248475D01*
X59518691Y-108294082D01*
X59676450Y-108423550D01*
X59767767Y-108534821D01*
X59851525Y-108636880D01*
X59851526Y-108636882D01*
X59981616Y-108880263D01*
X59981617Y-108880267D01*
X60061728Y-109144356D01*
X60088778Y-109419000D01*
X60061728Y-109693644D01*
X60002462Y-109889017D01*
X59981616Y-109957737D01*
X59858964Y-110187202D01*
X59851525Y-110201120D01*
X59805918Y-110256691D01*
X59676450Y-110414450D01*
X59518691Y-110543918D01*
X59463120Y-110589525D01*
X59463118Y-110589526D01*
X59219737Y-110719616D01*
X59151017Y-110740462D01*
X58955644Y-110799728D01*
X58852731Y-110809864D01*
X58749820Y-110820000D01*
X58012180Y-110820000D01*
X57909269Y-110809864D01*
X57806356Y-110799728D01*
X57610983Y-110740462D01*
X57542263Y-110719616D01*
X57298882Y-110589526D01*
X57298880Y-110589525D01*
X57243309Y-110543918D01*
X57085550Y-110414450D01*
X56956082Y-110256691D01*
X56910475Y-110201120D01*
X56903036Y-110187202D01*
X56780384Y-109957737D01*
X56759538Y-109889017D01*
X56700272Y-109693644D01*
X56673222Y-109419000D01*
X56700272Y-109144356D01*
X56780383Y-108880267D01*
X56780384Y-108880263D01*
X56910474Y-108636882D01*
X56910475Y-108636880D01*
X56994233Y-108534821D01*
X57085550Y-108423550D01*
X57243309Y-108294082D01*
X57298880Y-108248475D01*
X57312798Y-108241036D01*
X57542263Y-108118384D01*
X57610983Y-108097538D01*
X57806356Y-108038272D01*
X57909269Y-108028136D01*
X58012180Y-108018000D01*
X58749820Y-108018000D01*
X58852731Y-108028136D01*
G37*
G36*
X64352731Y-108028136D02*
G01*
X64455644Y-108038272D01*
X64651017Y-108097538D01*
X64719737Y-108118384D01*
X64949202Y-108241036D01*
X64963120Y-108248475D01*
X65018691Y-108294082D01*
X65176450Y-108423550D01*
X65267767Y-108534821D01*
X65351525Y-108636880D01*
X65351526Y-108636882D01*
X65481616Y-108880263D01*
X65481617Y-108880267D01*
X65561728Y-109144356D01*
X65588778Y-109419000D01*
X65561728Y-109693644D01*
X65502462Y-109889017D01*
X65481616Y-109957737D01*
X65358964Y-110187202D01*
X65351525Y-110201120D01*
X65305918Y-110256691D01*
X65176450Y-110414450D01*
X65018691Y-110543918D01*
X64963120Y-110589525D01*
X64963118Y-110589526D01*
X64719737Y-110719616D01*
X64651017Y-110740462D01*
X64455644Y-110799728D01*
X64352731Y-110809864D01*
X64249820Y-110820000D01*
X63512180Y-110820000D01*
X63409269Y-110809864D01*
X63306356Y-110799728D01*
X63110983Y-110740462D01*
X63042263Y-110719616D01*
X62798882Y-110589526D01*
X62798880Y-110589525D01*
X62743309Y-110543918D01*
X62585550Y-110414450D01*
X62456082Y-110256691D01*
X62410475Y-110201120D01*
X62403036Y-110187202D01*
X62280384Y-109957737D01*
X62259538Y-109889017D01*
X62200272Y-109693644D01*
X62173222Y-109419000D01*
X62200272Y-109144356D01*
X62280383Y-108880267D01*
X62280384Y-108880263D01*
X62410474Y-108636882D01*
X62410475Y-108636880D01*
X62494233Y-108534821D01*
X62585550Y-108423550D01*
X62743309Y-108294082D01*
X62798880Y-108248475D01*
X62812798Y-108241036D01*
X63042263Y-108118384D01*
X63110983Y-108097538D01*
X63306356Y-108038272D01*
X63409269Y-108028136D01*
X63512180Y-108018000D01*
X64249820Y-108018000D01*
X64352731Y-108028136D01*
G37*
G36*
X71762604Y-106774347D02*
G01*
X71799144Y-106785432D01*
X71832821Y-106803433D01*
X71862341Y-106827659D01*
X71886567Y-106857179D01*
X71904568Y-106890856D01*
X71915653Y-106927396D01*
X71920000Y-106971538D01*
X71920000Y-108420462D01*
X71915653Y-108464604D01*
X71904568Y-108501144D01*
X71886567Y-108534821D01*
X71862341Y-108564341D01*
X71832821Y-108588567D01*
X71799144Y-108606568D01*
X71762604Y-108617653D01*
X71718462Y-108622000D01*
X70769538Y-108622000D01*
X70725396Y-108617653D01*
X70688856Y-108606568D01*
X70655179Y-108588567D01*
X70625659Y-108564341D01*
X70601433Y-108534821D01*
X70583432Y-108501144D01*
X70572347Y-108464604D01*
X70568000Y-108420462D01*
X70568000Y-106971538D01*
X70572347Y-106927396D01*
X70583432Y-106890856D01*
X70601433Y-106857179D01*
X70625659Y-106827659D01*
X70655179Y-106803433D01*
X70688856Y-106785432D01*
X70725396Y-106774347D01*
X70769538Y-106770000D01*
X71718462Y-106770000D01*
X71762604Y-106774347D01*
G37*
G36*
X77350604Y-106774347D02*
G01*
X77387144Y-106785432D01*
X77420821Y-106803433D01*
X77450341Y-106827659D01*
X77474567Y-106857179D01*
X77492568Y-106890856D01*
X77503653Y-106927396D01*
X77508000Y-106971538D01*
X77508000Y-108420462D01*
X77503653Y-108464604D01*
X77492568Y-108501144D01*
X77474567Y-108534821D01*
X77450341Y-108564341D01*
X77420821Y-108588567D01*
X77387144Y-108606568D01*
X77350604Y-108617653D01*
X77306462Y-108622000D01*
X76357538Y-108622000D01*
X76313396Y-108617653D01*
X76276856Y-108606568D01*
X76243179Y-108588567D01*
X76213659Y-108564341D01*
X76189433Y-108534821D01*
X76171432Y-108501144D01*
X76160347Y-108464604D01*
X76156000Y-108420462D01*
X76156000Y-106971538D01*
X76160347Y-106927396D01*
X76171432Y-106890856D01*
X76189433Y-106857179D01*
X76213659Y-106827659D01*
X76243179Y-106803433D01*
X76276856Y-106785432D01*
X76313396Y-106774347D01*
X76357538Y-106770000D01*
X77306462Y-106770000D01*
X77350604Y-106774347D01*
G37*
G36*
X80150604Y-106774347D02*
G01*
X80187144Y-106785432D01*
X80220821Y-106803433D01*
X80250341Y-106827659D01*
X80274567Y-106857179D01*
X80292568Y-106890856D01*
X80303653Y-106927396D01*
X80308000Y-106971538D01*
X80308000Y-108420462D01*
X80303653Y-108464604D01*
X80292568Y-108501144D01*
X80274567Y-108534821D01*
X80250341Y-108564341D01*
X80220821Y-108588567D01*
X80187144Y-108606568D01*
X80150604Y-108617653D01*
X80106462Y-108622000D01*
X79157538Y-108622000D01*
X79113396Y-108617653D01*
X79076856Y-108606568D01*
X79043179Y-108588567D01*
X79013659Y-108564341D01*
X78989433Y-108534821D01*
X78971432Y-108501144D01*
X78960347Y-108464604D01*
X78956000Y-108420462D01*
X78956000Y-106971538D01*
X78960347Y-106927396D01*
X78971432Y-106890856D01*
X78989433Y-106857179D01*
X79013659Y-106827659D01*
X79043179Y-106803433D01*
X79076856Y-106785432D01*
X79113396Y-106774347D01*
X79157538Y-106770000D01*
X80106462Y-106770000D01*
X80150604Y-106774347D01*
G37*
G36*
X74562604Y-106774347D02*
G01*
X74599144Y-106785432D01*
X74632821Y-106803433D01*
X74662341Y-106827659D01*
X74686567Y-106857179D01*
X74704568Y-106890856D01*
X74715653Y-106927396D01*
X74720000Y-106971538D01*
X74720000Y-108420462D01*
X74715653Y-108464604D01*
X74704568Y-108501144D01*
X74686567Y-108534821D01*
X74662341Y-108564341D01*
X74632821Y-108588567D01*
X74599144Y-108606568D01*
X74562604Y-108617653D01*
X74518462Y-108622000D01*
X73569538Y-108622000D01*
X73525396Y-108617653D01*
X73488856Y-108606568D01*
X73455179Y-108588567D01*
X73425659Y-108564341D01*
X73401433Y-108534821D01*
X73383432Y-108501144D01*
X73372347Y-108464604D01*
X73368000Y-108420462D01*
X73368000Y-106971538D01*
X73372347Y-106927396D01*
X73383432Y-106890856D01*
X73401433Y-106857179D01*
X73425659Y-106827659D01*
X73455179Y-106803433D01*
X73488856Y-106785432D01*
X73525396Y-106774347D01*
X73569538Y-106770000D01*
X74518462Y-106770000D01*
X74562604Y-106774347D01*
G37*
G36*
X64352731Y-103828136D02*
G01*
X64455644Y-103838272D01*
X64651017Y-103897538D01*
X64719737Y-103918384D01*
X64949202Y-104041036D01*
X64963120Y-104048475D01*
X65018691Y-104094082D01*
X65176450Y-104223550D01*
X65305918Y-104381309D01*
X65351525Y-104436880D01*
X65351526Y-104436882D01*
X65481616Y-104680263D01*
X65481617Y-104680267D01*
X65561728Y-104944356D01*
X65588778Y-105219000D01*
X65561728Y-105493644D01*
X65502462Y-105689017D01*
X65481616Y-105757737D01*
X65358964Y-105987202D01*
X65351525Y-106001120D01*
X65305918Y-106056691D01*
X65176450Y-106214450D01*
X65018691Y-106343918D01*
X64963120Y-106389525D01*
X64963118Y-106389526D01*
X64719737Y-106519616D01*
X64651017Y-106540462D01*
X64455644Y-106599728D01*
X64352731Y-106609864D01*
X64249820Y-106620000D01*
X63512180Y-106620000D01*
X63409269Y-106609864D01*
X63306356Y-106599728D01*
X63110983Y-106540462D01*
X63042263Y-106519616D01*
X62798882Y-106389526D01*
X62798880Y-106389525D01*
X62743309Y-106343918D01*
X62585550Y-106214450D01*
X62456082Y-106056691D01*
X62410475Y-106001120D01*
X62403036Y-105987202D01*
X62280384Y-105757737D01*
X62259538Y-105689017D01*
X62200272Y-105493644D01*
X62173222Y-105219000D01*
X62200272Y-104944356D01*
X62280383Y-104680267D01*
X62280384Y-104680263D01*
X62410474Y-104436882D01*
X62410475Y-104436880D01*
X62456082Y-104381309D01*
X62585550Y-104223550D01*
X62743309Y-104094082D01*
X62798880Y-104048475D01*
X62812798Y-104041036D01*
X63042263Y-103918384D01*
X63110983Y-103897538D01*
X63306356Y-103838272D01*
X63409269Y-103828136D01*
X63512180Y-103818000D01*
X64249820Y-103818000D01*
X64352731Y-103828136D01*
G37*
G36*
X58852731Y-103828136D02*
G01*
X58955644Y-103838272D01*
X59151017Y-103897538D01*
X59219737Y-103918384D01*
X59449202Y-104041036D01*
X59463120Y-104048475D01*
X59518691Y-104094082D01*
X59676450Y-104223550D01*
X59805918Y-104381309D01*
X59851525Y-104436880D01*
X59851526Y-104436882D01*
X59981616Y-104680263D01*
X59981617Y-104680267D01*
X60061728Y-104944356D01*
X60088778Y-105219000D01*
X60061728Y-105493644D01*
X60002462Y-105689017D01*
X59981616Y-105757737D01*
X59858964Y-105987202D01*
X59851525Y-106001120D01*
X59805918Y-106056691D01*
X59676450Y-106214450D01*
X59518691Y-106343918D01*
X59463120Y-106389525D01*
X59463118Y-106389526D01*
X59219737Y-106519616D01*
X59151017Y-106540462D01*
X58955644Y-106599728D01*
X58852731Y-106609864D01*
X58749820Y-106620000D01*
X58012180Y-106620000D01*
X57909269Y-106609864D01*
X57806356Y-106599728D01*
X57610983Y-106540462D01*
X57542263Y-106519616D01*
X57298882Y-106389526D01*
X57298880Y-106389525D01*
X57243309Y-106343918D01*
X57085550Y-106214450D01*
X56956082Y-106056691D01*
X56910475Y-106001120D01*
X56903036Y-105987202D01*
X56780384Y-105757737D01*
X56759538Y-105689017D01*
X56700272Y-105493644D01*
X56673222Y-105219000D01*
X56700272Y-104944356D01*
X56780383Y-104680267D01*
X56780384Y-104680263D01*
X56910474Y-104436882D01*
X56910475Y-104436880D01*
X56956082Y-104381309D01*
X57085550Y-104223550D01*
X57243309Y-104094082D01*
X57298880Y-104048475D01*
X57312798Y-104041036D01*
X57542263Y-103918384D01*
X57610983Y-103897538D01*
X57806356Y-103838272D01*
X57909269Y-103828136D01*
X58012180Y-103818000D01*
X58749820Y-103818000D01*
X58852731Y-103828136D01*
G37*
G36*
X74562604Y-101694347D02*
G01*
X74599144Y-101705432D01*
X74632821Y-101723433D01*
X74662341Y-101747659D01*
X74686567Y-101777179D01*
X74704568Y-101810856D01*
X74715653Y-101847396D01*
X74720000Y-101891538D01*
X74720000Y-103340462D01*
X74715653Y-103384604D01*
X74704568Y-103421144D01*
X74686567Y-103454821D01*
X74662341Y-103484341D01*
X74632821Y-103508567D01*
X74599144Y-103526568D01*
X74562604Y-103537653D01*
X74518462Y-103542000D01*
X73569538Y-103542000D01*
X73525396Y-103537653D01*
X73488856Y-103526568D01*
X73455179Y-103508567D01*
X73425659Y-103484341D01*
X73401433Y-103454821D01*
X73383432Y-103421144D01*
X73372347Y-103384604D01*
X73368000Y-103340462D01*
X73368000Y-101891538D01*
X73372347Y-101847396D01*
X73383432Y-101810856D01*
X73401433Y-101777179D01*
X73425659Y-101747659D01*
X73455179Y-101723433D01*
X73488856Y-101705432D01*
X73525396Y-101694347D01*
X73569538Y-101690000D01*
X74518462Y-101690000D01*
X74562604Y-101694347D01*
G37*
G36*
X71762604Y-101694347D02*
G01*
X71799144Y-101705432D01*
X71832821Y-101723433D01*
X71862341Y-101747659D01*
X71886567Y-101777179D01*
X71904568Y-101810856D01*
X71915653Y-101847396D01*
X71920000Y-101891538D01*
X71920000Y-103340462D01*
X71915653Y-103384604D01*
X71904568Y-103421144D01*
X71886567Y-103454821D01*
X71862341Y-103484341D01*
X71832821Y-103508567D01*
X71799144Y-103526568D01*
X71762604Y-103537653D01*
X71718462Y-103542000D01*
X70769538Y-103542000D01*
X70725396Y-103537653D01*
X70688856Y-103526568D01*
X70655179Y-103508567D01*
X70625659Y-103484341D01*
X70601433Y-103454821D01*
X70583432Y-103421144D01*
X70572347Y-103384604D01*
X70568000Y-103340462D01*
X70568000Y-101891538D01*
X70572347Y-101847396D01*
X70583432Y-101810856D01*
X70601433Y-101777179D01*
X70625659Y-101747659D01*
X70655179Y-101723433D01*
X70688856Y-101705432D01*
X70725396Y-101694347D01*
X70769538Y-101690000D01*
X71718462Y-101690000D01*
X71762604Y-101694347D01*
G37*
G36*
X77350604Y-101694347D02*
G01*
X77387144Y-101705432D01*
X77420821Y-101723433D01*
X77450341Y-101747659D01*
X77474567Y-101777179D01*
X77492568Y-101810856D01*
X77503653Y-101847396D01*
X77508000Y-101891538D01*
X77508000Y-103340462D01*
X77503653Y-103384604D01*
X77492568Y-103421144D01*
X77474567Y-103454821D01*
X77450341Y-103484341D01*
X77420821Y-103508567D01*
X77387144Y-103526568D01*
X77350604Y-103537653D01*
X77306462Y-103542000D01*
X76357538Y-103542000D01*
X76313396Y-103537653D01*
X76276856Y-103526568D01*
X76243179Y-103508567D01*
X76213659Y-103484341D01*
X76189433Y-103454821D01*
X76171432Y-103421144D01*
X76160347Y-103384604D01*
X76156000Y-103340462D01*
X76156000Y-101891538D01*
X76160347Y-101847396D01*
X76171432Y-101810856D01*
X76189433Y-101777179D01*
X76213659Y-101747659D01*
X76243179Y-101723433D01*
X76276856Y-101705432D01*
X76313396Y-101694347D01*
X76357538Y-101690000D01*
X77306462Y-101690000D01*
X77350604Y-101694347D01*
G37*
G36*
X80150604Y-101694347D02*
G01*
X80187144Y-101705432D01*
X80220821Y-101723433D01*
X80250341Y-101747659D01*
X80274567Y-101777179D01*
X80292568Y-101810856D01*
X80303653Y-101847396D01*
X80308000Y-101891538D01*
X80308000Y-103340462D01*
X80303653Y-103384604D01*
X80292568Y-103421144D01*
X80274567Y-103454821D01*
X80250341Y-103484341D01*
X80220821Y-103508567D01*
X80187144Y-103526568D01*
X80150604Y-103537653D01*
X80106462Y-103542000D01*
X79157538Y-103542000D01*
X79113396Y-103537653D01*
X79076856Y-103526568D01*
X79043179Y-103508567D01*
X79013659Y-103484341D01*
X78989433Y-103454821D01*
X78971432Y-103421144D01*
X78960347Y-103384604D01*
X78956000Y-103340462D01*
X78956000Y-101891538D01*
X78960347Y-101847396D01*
X78971432Y-101810856D01*
X78989433Y-101777179D01*
X79013659Y-101747659D01*
X79043179Y-101723433D01*
X79076856Y-101705432D01*
X79113396Y-101694347D01*
X79157538Y-101690000D01*
X80106462Y-101690000D01*
X80150604Y-101694347D01*
G37*
G36*
X97262715Y-100837383D02*
G01*
X97390323Y-100862766D01*
X97531149Y-100921098D01*
X97630728Y-100962345D01*
X97630729Y-100962346D01*
X97847090Y-101106913D01*
X98031089Y-101290912D01*
X98032914Y-101293644D01*
X98175657Y-101507274D01*
X98196559Y-101557737D01*
X98275236Y-101747679D01*
X98295071Y-101847396D01*
X98317549Y-101960400D01*
X98326001Y-102002894D01*
X98326001Y-102263108D01*
X98275236Y-102518323D01*
X98216904Y-102659149D01*
X98175657Y-102758728D01*
X98175656Y-102758729D01*
X98031089Y-102975090D01*
X97847090Y-103159089D01*
X97702522Y-103255686D01*
X97630728Y-103303657D01*
X97580765Y-103324352D01*
X97390323Y-103403236D01*
X97262716Y-103428618D01*
X97135110Y-103454001D01*
X96874892Y-103454001D01*
X96747287Y-103428619D01*
X96619679Y-103403236D01*
X96429237Y-103324352D01*
X96379274Y-103303657D01*
X96307480Y-103255686D01*
X96162912Y-103159089D01*
X95978913Y-102975090D01*
X95834346Y-102758729D01*
X95834345Y-102758728D01*
X95793098Y-102659149D01*
X95734766Y-102518323D01*
X95684001Y-102263108D01*
X95684001Y-102002894D01*
X95692454Y-101960400D01*
X95714931Y-101847396D01*
X95734766Y-101747679D01*
X95813443Y-101557737D01*
X95834345Y-101507274D01*
X95977088Y-101293644D01*
X95978913Y-101290912D01*
X96162912Y-101106913D01*
X96379273Y-100962346D01*
X96379274Y-100962345D01*
X96478853Y-100921098D01*
X96619679Y-100862766D01*
X96747287Y-100837383D01*
X96874892Y-100812001D01*
X97135110Y-100812001D01*
X97262715Y-100837383D01*
G37*
G36*
X58852731Y-99628136D02*
G01*
X58955644Y-99638272D01*
X59151017Y-99697538D01*
X59219737Y-99718384D01*
X59449202Y-99841036D01*
X59463120Y-99848475D01*
X59518691Y-99894082D01*
X59676450Y-100023550D01*
X59805918Y-100181309D01*
X59851525Y-100236880D01*
X59851526Y-100236882D01*
X59981616Y-100480263D01*
X59981617Y-100480267D01*
X60061728Y-100744356D01*
X60088778Y-101019000D01*
X60061728Y-101293644D01*
X60002462Y-101489017D01*
X59981616Y-101557737D01*
X59880100Y-101747659D01*
X59851525Y-101801120D01*
X59813547Y-101847396D01*
X59676450Y-102014450D01*
X59518691Y-102143918D01*
X59463120Y-102189525D01*
X59463118Y-102189526D01*
X59219737Y-102319616D01*
X59151017Y-102340462D01*
X58955644Y-102399728D01*
X58852731Y-102409864D01*
X58749820Y-102420000D01*
X58012180Y-102420000D01*
X57909269Y-102409864D01*
X57806356Y-102399728D01*
X57610983Y-102340462D01*
X57542263Y-102319616D01*
X57298882Y-102189526D01*
X57298880Y-102189525D01*
X57243309Y-102143918D01*
X57085550Y-102014450D01*
X56948453Y-101847396D01*
X56910475Y-101801120D01*
X56881900Y-101747659D01*
X56780384Y-101557737D01*
X56759538Y-101489017D01*
X56700272Y-101293644D01*
X56673222Y-101019000D01*
X56700272Y-100744356D01*
X56780383Y-100480267D01*
X56780384Y-100480263D01*
X56910474Y-100236882D01*
X56910475Y-100236880D01*
X56956082Y-100181309D01*
X57085550Y-100023550D01*
X57243309Y-99894082D01*
X57298880Y-99848475D01*
X57312798Y-99841036D01*
X57542263Y-99718384D01*
X57610983Y-99697538D01*
X57806356Y-99638272D01*
X57909269Y-99628136D01*
X58012180Y-99618000D01*
X58749820Y-99618000D01*
X58852731Y-99628136D01*
G37*
G36*
X64352731Y-99628136D02*
G01*
X64455644Y-99638272D01*
X64651017Y-99697538D01*
X64719737Y-99718384D01*
X64949202Y-99841036D01*
X64963120Y-99848475D01*
X65018691Y-99894082D01*
X65176450Y-100023550D01*
X65305918Y-100181309D01*
X65351525Y-100236880D01*
X65351526Y-100236882D01*
X65481616Y-100480263D01*
X65481617Y-100480267D01*
X65561728Y-100744356D01*
X65588778Y-101019000D01*
X65561728Y-101293644D01*
X65502462Y-101489017D01*
X65481616Y-101557737D01*
X65380100Y-101747659D01*
X65351525Y-101801120D01*
X65313547Y-101847396D01*
X65176450Y-102014450D01*
X65018691Y-102143918D01*
X64963120Y-102189525D01*
X64963118Y-102189526D01*
X64719737Y-102319616D01*
X64651017Y-102340462D01*
X64455644Y-102399728D01*
X64352731Y-102409864D01*
X64249820Y-102420000D01*
X63512180Y-102420000D01*
X63409269Y-102409864D01*
X63306356Y-102399728D01*
X63110983Y-102340462D01*
X63042263Y-102319616D01*
X62798882Y-102189526D01*
X62798880Y-102189525D01*
X62743309Y-102143918D01*
X62585550Y-102014450D01*
X62448453Y-101847396D01*
X62410475Y-101801120D01*
X62381900Y-101747659D01*
X62280384Y-101557737D01*
X62259538Y-101489017D01*
X62200272Y-101293644D01*
X62173222Y-101019000D01*
X62200272Y-100744356D01*
X62280383Y-100480267D01*
X62280384Y-100480263D01*
X62410474Y-100236882D01*
X62410475Y-100236880D01*
X62456082Y-100181309D01*
X62585550Y-100023550D01*
X62743309Y-99894082D01*
X62798880Y-99848475D01*
X62812798Y-99841036D01*
X63042263Y-99718384D01*
X63110983Y-99697538D01*
X63306356Y-99638272D01*
X63409269Y-99628136D01*
X63512180Y-99618000D01*
X64249820Y-99618000D01*
X64352731Y-99628136D01*
G37*
G36*
X71762604Y-96614347D02*
G01*
X71799144Y-96625432D01*
X71832821Y-96643433D01*
X71862341Y-96667659D01*
X71886567Y-96697179D01*
X71904568Y-96730856D01*
X71915653Y-96767396D01*
X71920000Y-96811538D01*
X71920000Y-98260462D01*
X71915653Y-98304604D01*
X71904568Y-98341144D01*
X71886567Y-98374821D01*
X71862341Y-98404341D01*
X71832821Y-98428567D01*
X71799144Y-98446568D01*
X71762604Y-98457653D01*
X71718462Y-98462000D01*
X70769538Y-98462000D01*
X70725396Y-98457653D01*
X70688856Y-98446568D01*
X70655179Y-98428567D01*
X70625659Y-98404341D01*
X70601433Y-98374821D01*
X70583432Y-98341144D01*
X70572347Y-98304604D01*
X70568000Y-98260462D01*
X70568000Y-96811538D01*
X70572347Y-96767396D01*
X70583432Y-96730856D01*
X70601433Y-96697179D01*
X70625659Y-96667659D01*
X70655179Y-96643433D01*
X70688856Y-96625432D01*
X70725396Y-96614347D01*
X70769538Y-96610000D01*
X71718462Y-96610000D01*
X71762604Y-96614347D01*
G37*
G36*
X80150604Y-96614347D02*
G01*
X80187144Y-96625432D01*
X80220821Y-96643433D01*
X80250341Y-96667659D01*
X80274567Y-96697179D01*
X80292568Y-96730856D01*
X80303653Y-96767396D01*
X80308000Y-96811538D01*
X80308000Y-98260462D01*
X80303653Y-98304604D01*
X80292568Y-98341144D01*
X80274567Y-98374821D01*
X80250341Y-98404341D01*
X80220821Y-98428567D01*
X80187144Y-98446568D01*
X80150604Y-98457653D01*
X80106462Y-98462000D01*
X79157538Y-98462000D01*
X79113396Y-98457653D01*
X79076856Y-98446568D01*
X79043179Y-98428567D01*
X79013659Y-98404341D01*
X78989433Y-98374821D01*
X78971432Y-98341144D01*
X78960347Y-98304604D01*
X78956000Y-98260462D01*
X78956000Y-96811538D01*
X78960347Y-96767396D01*
X78971432Y-96730856D01*
X78989433Y-96697179D01*
X79013659Y-96667659D01*
X79043179Y-96643433D01*
X79076856Y-96625432D01*
X79113396Y-96614347D01*
X79157538Y-96610000D01*
X80106462Y-96610000D01*
X80150604Y-96614347D01*
G37*
G36*
X77350604Y-96614347D02*
G01*
X77387144Y-96625432D01*
X77420821Y-96643433D01*
X77450341Y-96667659D01*
X77474567Y-96697179D01*
X77492568Y-96730856D01*
X77503653Y-96767396D01*
X77508000Y-96811538D01*
X77508000Y-98260462D01*
X77503653Y-98304604D01*
X77492568Y-98341144D01*
X77474567Y-98374821D01*
X77450341Y-98404341D01*
X77420821Y-98428567D01*
X77387144Y-98446568D01*
X77350604Y-98457653D01*
X77306462Y-98462000D01*
X76357538Y-98462000D01*
X76313396Y-98457653D01*
X76276856Y-98446568D01*
X76243179Y-98428567D01*
X76213659Y-98404341D01*
X76189433Y-98374821D01*
X76171432Y-98341144D01*
X76160347Y-98304604D01*
X76156000Y-98260462D01*
X76156000Y-96811538D01*
X76160347Y-96767396D01*
X76171432Y-96730856D01*
X76189433Y-96697179D01*
X76213659Y-96667659D01*
X76243179Y-96643433D01*
X76276856Y-96625432D01*
X76313396Y-96614347D01*
X76357538Y-96610000D01*
X77306462Y-96610000D01*
X77350604Y-96614347D01*
G37*
G36*
X74562604Y-96614347D02*
G01*
X74599144Y-96625432D01*
X74632821Y-96643433D01*
X74662341Y-96667659D01*
X74686567Y-96697179D01*
X74704568Y-96730856D01*
X74715653Y-96767396D01*
X74720000Y-96811538D01*
X74720000Y-98260462D01*
X74715653Y-98304604D01*
X74704568Y-98341144D01*
X74686567Y-98374821D01*
X74662341Y-98404341D01*
X74632821Y-98428567D01*
X74599144Y-98446568D01*
X74562604Y-98457653D01*
X74518462Y-98462000D01*
X73569538Y-98462000D01*
X73525396Y-98457653D01*
X73488856Y-98446568D01*
X73455179Y-98428567D01*
X73425659Y-98404341D01*
X73401433Y-98374821D01*
X73383432Y-98341144D01*
X73372347Y-98304604D01*
X73368000Y-98260462D01*
X73368000Y-96811538D01*
X73372347Y-96767396D01*
X73383432Y-96730856D01*
X73401433Y-96697179D01*
X73425659Y-96667659D01*
X73455179Y-96643433D01*
X73488856Y-96625432D01*
X73525396Y-96614347D01*
X73569538Y-96610000D01*
X74518462Y-96610000D01*
X74562604Y-96614347D01*
G37*
G36*
X64352731Y-95428136D02*
G01*
X64455644Y-95438272D01*
X64651017Y-95497538D01*
X64719737Y-95518384D01*
X64949202Y-95641036D01*
X64963120Y-95648475D01*
X65018691Y-95694082D01*
X65176450Y-95823550D01*
X65305918Y-95981309D01*
X65351525Y-96036880D01*
X65351526Y-96036882D01*
X65481616Y-96280263D01*
X65481617Y-96280267D01*
X65561728Y-96544356D01*
X65588778Y-96819000D01*
X65561728Y-97093644D01*
X65502462Y-97289017D01*
X65481616Y-97357737D01*
X65358964Y-97587202D01*
X65351525Y-97601120D01*
X65305918Y-97656691D01*
X65176450Y-97814450D01*
X65018691Y-97943918D01*
X64963120Y-97989525D01*
X64963118Y-97989526D01*
X64719737Y-98119616D01*
X64651017Y-98140462D01*
X64455644Y-98199728D01*
X64352731Y-98209864D01*
X64249820Y-98220000D01*
X63512180Y-98220000D01*
X63409269Y-98209864D01*
X63306356Y-98199728D01*
X63110983Y-98140462D01*
X63042263Y-98119616D01*
X62798882Y-97989526D01*
X62798880Y-97989525D01*
X62743309Y-97943918D01*
X62585550Y-97814450D01*
X62456082Y-97656691D01*
X62410475Y-97601120D01*
X62403036Y-97587202D01*
X62280384Y-97357737D01*
X62259538Y-97289017D01*
X62200272Y-97093644D01*
X62173222Y-96819000D01*
X62200272Y-96544356D01*
X62280383Y-96280267D01*
X62280384Y-96280263D01*
X62410474Y-96036882D01*
X62410475Y-96036880D01*
X62456082Y-95981309D01*
X62585550Y-95823550D01*
X62743309Y-95694082D01*
X62798880Y-95648475D01*
X62812798Y-95641036D01*
X63042263Y-95518384D01*
X63110983Y-95497538D01*
X63306356Y-95438272D01*
X63409269Y-95428136D01*
X63512180Y-95418000D01*
X64249820Y-95418000D01*
X64352731Y-95428136D01*
G37*
G36*
X58852731Y-95428136D02*
G01*
X58955644Y-95438272D01*
X59151017Y-95497538D01*
X59219737Y-95518384D01*
X59449202Y-95641036D01*
X59463120Y-95648475D01*
X59518691Y-95694082D01*
X59676450Y-95823550D01*
X59805918Y-95981309D01*
X59851525Y-96036880D01*
X59851526Y-96036882D01*
X59981616Y-96280263D01*
X59981617Y-96280267D01*
X60061728Y-96544356D01*
X60088778Y-96819000D01*
X60061728Y-97093644D01*
X60002462Y-97289017D01*
X59981616Y-97357737D01*
X59858964Y-97587202D01*
X59851525Y-97601120D01*
X59805918Y-97656691D01*
X59676450Y-97814450D01*
X59518691Y-97943918D01*
X59463120Y-97989525D01*
X59463118Y-97989526D01*
X59219737Y-98119616D01*
X59151017Y-98140462D01*
X58955644Y-98199728D01*
X58852731Y-98209864D01*
X58749820Y-98220000D01*
X58012180Y-98220000D01*
X57909269Y-98209864D01*
X57806356Y-98199728D01*
X57610983Y-98140462D01*
X57542263Y-98119616D01*
X57298882Y-97989526D01*
X57298880Y-97989525D01*
X57243309Y-97943918D01*
X57085550Y-97814450D01*
X56956082Y-97656691D01*
X56910475Y-97601120D01*
X56903036Y-97587202D01*
X56780384Y-97357737D01*
X56759538Y-97289017D01*
X56700272Y-97093644D01*
X56673222Y-96819000D01*
X56700272Y-96544356D01*
X56780383Y-96280267D01*
X56780384Y-96280263D01*
X56910474Y-96036882D01*
X56910475Y-96036880D01*
X56956082Y-95981309D01*
X57085550Y-95823550D01*
X57243309Y-95694082D01*
X57298880Y-95648475D01*
X57312798Y-95641036D01*
X57542263Y-95518384D01*
X57610983Y-95497538D01*
X57806356Y-95438272D01*
X57909269Y-95428136D01*
X58012180Y-95418000D01*
X58749820Y-95418000D01*
X58852731Y-95428136D01*
G37*
G36*
X64352731Y-91228136D02*
G01*
X64455644Y-91238272D01*
X64651017Y-91297538D01*
X64719737Y-91318384D01*
X64949202Y-91441036D01*
X64963120Y-91448475D01*
X65018691Y-91494082D01*
X65176450Y-91623550D01*
X65278294Y-91747648D01*
X65351525Y-91836880D01*
X65351526Y-91836882D01*
X65481616Y-92080263D01*
X65481617Y-92080267D01*
X65561728Y-92344356D01*
X65588778Y-92619000D01*
X65561728Y-92893644D01*
X65502462Y-93089017D01*
X65481616Y-93157737D01*
X65425979Y-93261826D01*
X65351525Y-93401120D01*
X65305918Y-93456691D01*
X65176450Y-93614450D01*
X65018691Y-93743918D01*
X64963120Y-93789525D01*
X64963118Y-93789526D01*
X64719737Y-93919616D01*
X64651017Y-93940462D01*
X64455644Y-93999728D01*
X64352731Y-94009864D01*
X64249820Y-94020000D01*
X63512180Y-94020000D01*
X63409269Y-94009864D01*
X63306356Y-93999728D01*
X63110983Y-93940462D01*
X63042263Y-93919616D01*
X62798882Y-93789526D01*
X62798880Y-93789525D01*
X62743309Y-93743918D01*
X62585550Y-93614450D01*
X62456082Y-93456691D01*
X62410475Y-93401120D01*
X62336021Y-93261826D01*
X62280384Y-93157737D01*
X62259538Y-93089017D01*
X62200272Y-92893644D01*
X62173222Y-92619000D01*
X62200272Y-92344356D01*
X62280383Y-92080267D01*
X62280384Y-92080263D01*
X62410474Y-91836882D01*
X62410475Y-91836880D01*
X62483706Y-91747648D01*
X62585550Y-91623550D01*
X62743309Y-91494082D01*
X62798880Y-91448475D01*
X62812798Y-91441036D01*
X63042263Y-91318384D01*
X63110983Y-91297538D01*
X63306356Y-91238272D01*
X63409269Y-91228136D01*
X63512180Y-91218000D01*
X64249820Y-91218000D01*
X64352731Y-91228136D01*
G37*
G36*
X58852731Y-91228136D02*
G01*
X58955644Y-91238272D01*
X59151017Y-91297538D01*
X59219737Y-91318384D01*
X59449202Y-91441036D01*
X59463120Y-91448475D01*
X59518691Y-91494082D01*
X59676450Y-91623550D01*
X59778294Y-91747648D01*
X59851525Y-91836880D01*
X59851526Y-91836882D01*
X59981616Y-92080263D01*
X59981617Y-92080267D01*
X60061728Y-92344356D01*
X60088778Y-92619000D01*
X60061728Y-92893644D01*
X60002462Y-93089017D01*
X59981616Y-93157737D01*
X59925979Y-93261826D01*
X59851525Y-93401120D01*
X59805918Y-93456691D01*
X59676450Y-93614450D01*
X59518691Y-93743918D01*
X59463120Y-93789525D01*
X59463118Y-93789526D01*
X59219737Y-93919616D01*
X59151017Y-93940462D01*
X58955644Y-93999728D01*
X58852731Y-94009864D01*
X58749820Y-94020000D01*
X58012180Y-94020000D01*
X57909269Y-94009864D01*
X57806356Y-93999728D01*
X57610983Y-93940462D01*
X57542263Y-93919616D01*
X57298882Y-93789526D01*
X57298880Y-93789525D01*
X57243309Y-93743918D01*
X57085550Y-93614450D01*
X56956082Y-93456691D01*
X56910475Y-93401120D01*
X56836021Y-93261826D01*
X56780384Y-93157737D01*
X56759538Y-93089017D01*
X56700272Y-92893644D01*
X56673222Y-92619000D01*
X56700272Y-92344356D01*
X56780383Y-92080267D01*
X56780384Y-92080263D01*
X56910474Y-91836882D01*
X56910475Y-91836880D01*
X56983706Y-91747648D01*
X57085550Y-91623550D01*
X57243309Y-91494082D01*
X57298880Y-91448475D01*
X57312798Y-91441036D01*
X57542263Y-91318384D01*
X57610983Y-91297538D01*
X57806356Y-91238272D01*
X57909269Y-91228136D01*
X58012180Y-91218000D01*
X58749820Y-91218000D01*
X58852731Y-91228136D01*
G37*
G36*
X71762604Y-91534347D02*
G01*
X71799144Y-91545432D01*
X71832821Y-91563433D01*
X71862341Y-91587659D01*
X71886567Y-91617179D01*
X71904568Y-91650856D01*
X71915653Y-91687396D01*
X71920000Y-91731538D01*
X71920000Y-93180462D01*
X71915653Y-93224604D01*
X71904568Y-93261144D01*
X71886567Y-93294821D01*
X71862341Y-93324341D01*
X71832821Y-93348567D01*
X71799144Y-93366568D01*
X71762604Y-93377653D01*
X71718462Y-93382000D01*
X70769538Y-93382000D01*
X70725396Y-93377653D01*
X70688856Y-93366568D01*
X70655179Y-93348567D01*
X70625659Y-93324341D01*
X70601433Y-93294821D01*
X70583432Y-93261144D01*
X70572347Y-93224604D01*
X70568000Y-93180462D01*
X70568000Y-91731538D01*
X70572347Y-91687396D01*
X70583432Y-91650856D01*
X70601433Y-91617179D01*
X70625659Y-91587659D01*
X70655179Y-91563433D01*
X70688856Y-91545432D01*
X70725396Y-91534347D01*
X70769538Y-91530000D01*
X71718462Y-91530000D01*
X71762604Y-91534347D01*
G37*
G36*
X77350604Y-91534347D02*
G01*
X77387144Y-91545432D01*
X77420821Y-91563433D01*
X77450341Y-91587659D01*
X77474567Y-91617179D01*
X77492568Y-91650856D01*
X77503653Y-91687396D01*
X77508000Y-91731538D01*
X77508000Y-93180462D01*
X77503653Y-93224604D01*
X77492568Y-93261144D01*
X77474567Y-93294821D01*
X77450341Y-93324341D01*
X77420821Y-93348567D01*
X77387144Y-93366568D01*
X77350604Y-93377653D01*
X77306462Y-93382000D01*
X76357538Y-93382000D01*
X76313396Y-93377653D01*
X76276856Y-93366568D01*
X76243179Y-93348567D01*
X76213659Y-93324341D01*
X76189433Y-93294821D01*
X76171432Y-93261144D01*
X76160347Y-93224604D01*
X76156000Y-93180462D01*
X76156000Y-91731538D01*
X76160347Y-91687396D01*
X76171432Y-91650856D01*
X76189433Y-91617179D01*
X76213659Y-91587659D01*
X76243179Y-91563433D01*
X76276856Y-91545432D01*
X76313396Y-91534347D01*
X76357538Y-91530000D01*
X77306462Y-91530000D01*
X77350604Y-91534347D01*
G37*
G36*
X74562604Y-91534347D02*
G01*
X74599144Y-91545432D01*
X74632821Y-91563433D01*
X74662341Y-91587659D01*
X74686567Y-91617179D01*
X74704568Y-91650856D01*
X74715653Y-91687396D01*
X74720000Y-91731538D01*
X74720000Y-93180462D01*
X74715653Y-93224604D01*
X74704568Y-93261144D01*
X74686567Y-93294821D01*
X74662341Y-93324341D01*
X74632821Y-93348567D01*
X74599144Y-93366568D01*
X74562604Y-93377653D01*
X74518462Y-93382000D01*
X73569538Y-93382000D01*
X73525396Y-93377653D01*
X73488856Y-93366568D01*
X73455179Y-93348567D01*
X73425659Y-93324341D01*
X73401433Y-93294821D01*
X73383432Y-93261144D01*
X73372347Y-93224604D01*
X73368000Y-93180462D01*
X73368000Y-91731538D01*
X73372347Y-91687396D01*
X73383432Y-91650856D01*
X73401433Y-91617179D01*
X73425659Y-91587659D01*
X73455179Y-91563433D01*
X73488856Y-91545432D01*
X73525396Y-91534347D01*
X73569538Y-91530000D01*
X74518462Y-91530000D01*
X74562604Y-91534347D01*
G37*
G36*
X80150604Y-91534347D02*
G01*
X80187144Y-91545432D01*
X80220821Y-91563433D01*
X80250341Y-91587659D01*
X80274567Y-91617179D01*
X80292568Y-91650856D01*
X80303653Y-91687396D01*
X80308000Y-91731538D01*
X80308000Y-93180462D01*
X80303653Y-93224604D01*
X80292568Y-93261144D01*
X80274567Y-93294821D01*
X80250341Y-93324341D01*
X80220821Y-93348567D01*
X80187144Y-93366568D01*
X80150604Y-93377653D01*
X80106462Y-93382000D01*
X79157538Y-93382000D01*
X79113396Y-93377653D01*
X79076856Y-93366568D01*
X79043179Y-93348567D01*
X79013659Y-93324341D01*
X78989433Y-93294821D01*
X78971432Y-93261144D01*
X78960347Y-93224604D01*
X78956000Y-93180462D01*
X78956000Y-91731538D01*
X78960347Y-91687396D01*
X78971432Y-91650856D01*
X78989433Y-91617179D01*
X79013659Y-91587659D01*
X79043179Y-91563433D01*
X79076856Y-91545432D01*
X79113396Y-91534347D01*
X79157538Y-91530000D01*
X80106462Y-91530000D01*
X80150604Y-91534347D01*
G37*
G36*
X98298200Y-90729000D02*
G01*
X95656200Y-90729000D01*
X95656200Y-88087000D01*
X98298200Y-88087000D01*
X98298200Y-90729000D01*
G37*
G36*
X64352731Y-87028136D02*
G01*
X64455644Y-87038272D01*
X64651017Y-87097538D01*
X64719737Y-87118384D01*
X64949202Y-87241036D01*
X64963120Y-87248475D01*
X65018691Y-87294082D01*
X65176450Y-87423550D01*
X65305918Y-87581309D01*
X65351525Y-87636880D01*
X65351526Y-87636882D01*
X65481616Y-87880263D01*
X65481617Y-87880267D01*
X65561728Y-88144356D01*
X65588778Y-88419000D01*
X65561728Y-88693644D01*
X65502462Y-88889017D01*
X65481616Y-88957737D01*
X65358964Y-89187202D01*
X65351525Y-89201120D01*
X65305918Y-89256691D01*
X65176450Y-89414450D01*
X65018691Y-89543918D01*
X64963120Y-89589525D01*
X64963118Y-89589526D01*
X64719737Y-89719616D01*
X64651017Y-89740462D01*
X64455644Y-89799728D01*
X64352731Y-89809864D01*
X64249820Y-89820000D01*
X63512180Y-89820000D01*
X63409269Y-89809864D01*
X63306356Y-89799728D01*
X63110983Y-89740462D01*
X63042263Y-89719616D01*
X62798882Y-89589526D01*
X62798880Y-89589525D01*
X62743309Y-89543918D01*
X62585550Y-89414450D01*
X62456082Y-89256691D01*
X62410475Y-89201120D01*
X62403036Y-89187202D01*
X62280384Y-88957737D01*
X62259538Y-88889017D01*
X62200272Y-88693644D01*
X62173222Y-88419000D01*
X62200272Y-88144356D01*
X62280383Y-87880267D01*
X62280384Y-87880263D01*
X62410474Y-87636882D01*
X62410475Y-87636880D01*
X62456082Y-87581309D01*
X62585550Y-87423550D01*
X62743309Y-87294082D01*
X62798880Y-87248475D01*
X62812798Y-87241036D01*
X63042263Y-87118384D01*
X63110983Y-87097538D01*
X63306356Y-87038272D01*
X63409269Y-87028136D01*
X63512180Y-87018000D01*
X64249820Y-87018000D01*
X64352731Y-87028136D01*
G37*
G36*
X58852731Y-87028136D02*
G01*
X58955644Y-87038272D01*
X59151017Y-87097538D01*
X59219737Y-87118384D01*
X59449202Y-87241036D01*
X59463120Y-87248475D01*
X59518691Y-87294082D01*
X59676450Y-87423550D01*
X59805918Y-87581309D01*
X59851525Y-87636880D01*
X59851526Y-87636882D01*
X59981616Y-87880263D01*
X59981617Y-87880267D01*
X60061728Y-88144356D01*
X60088778Y-88419000D01*
X60061728Y-88693644D01*
X60002462Y-88889017D01*
X59981616Y-88957737D01*
X59858964Y-89187202D01*
X59851525Y-89201120D01*
X59805918Y-89256691D01*
X59676450Y-89414450D01*
X59518691Y-89543918D01*
X59463120Y-89589525D01*
X59463118Y-89589526D01*
X59219737Y-89719616D01*
X59151017Y-89740462D01*
X58955644Y-89799728D01*
X58852731Y-89809864D01*
X58749820Y-89820000D01*
X58012180Y-89820000D01*
X57909269Y-89809864D01*
X57806356Y-89799728D01*
X57610983Y-89740462D01*
X57542263Y-89719616D01*
X57298882Y-89589526D01*
X57298880Y-89589525D01*
X57243309Y-89543918D01*
X57085550Y-89414450D01*
X56956082Y-89256691D01*
X56910475Y-89201120D01*
X56903036Y-89187202D01*
X56780384Y-88957737D01*
X56759538Y-88889017D01*
X56700272Y-88693644D01*
X56673222Y-88419000D01*
X56700272Y-88144356D01*
X56780383Y-87880267D01*
X56780384Y-87880263D01*
X56910474Y-87636882D01*
X56910475Y-87636880D01*
X56956082Y-87581309D01*
X57085550Y-87423550D01*
X57243309Y-87294082D01*
X57298880Y-87248475D01*
X57312798Y-87241036D01*
X57542263Y-87118384D01*
X57610983Y-87097538D01*
X57806356Y-87038272D01*
X57909269Y-87028136D01*
X58012180Y-87018000D01*
X58749820Y-87018000D01*
X58852731Y-87028136D01*
G37*
G36*
X74562604Y-86454347D02*
G01*
X74599144Y-86465432D01*
X74632821Y-86483433D01*
X74662341Y-86507659D01*
X74686567Y-86537179D01*
X74704568Y-86570856D01*
X74715653Y-86607396D01*
X74720000Y-86651538D01*
X74720000Y-88100462D01*
X74715653Y-88144604D01*
X74704568Y-88181144D01*
X74686567Y-88214821D01*
X74662341Y-88244341D01*
X74632821Y-88268567D01*
X74599144Y-88286568D01*
X74562604Y-88297653D01*
X74518462Y-88302000D01*
X73569538Y-88302000D01*
X73525396Y-88297653D01*
X73488856Y-88286568D01*
X73455179Y-88268567D01*
X73425659Y-88244341D01*
X73401433Y-88214821D01*
X73383432Y-88181144D01*
X73372347Y-88144604D01*
X73368000Y-88100462D01*
X73368000Y-86651538D01*
X73372347Y-86607396D01*
X73383432Y-86570856D01*
X73401433Y-86537179D01*
X73425659Y-86507659D01*
X73455179Y-86483433D01*
X73488856Y-86465432D01*
X73525396Y-86454347D01*
X73569538Y-86450000D01*
X74518462Y-86450000D01*
X74562604Y-86454347D01*
G37*
G36*
X80150604Y-86454347D02*
G01*
X80187144Y-86465432D01*
X80220821Y-86483433D01*
X80250341Y-86507659D01*
X80274567Y-86537179D01*
X80292568Y-86570856D01*
X80303653Y-86607396D01*
X80308000Y-86651538D01*
X80308000Y-88100462D01*
X80303653Y-88144604D01*
X80292568Y-88181144D01*
X80274567Y-88214821D01*
X80250341Y-88244341D01*
X80220821Y-88268567D01*
X80187144Y-88286568D01*
X80150604Y-88297653D01*
X80106462Y-88302000D01*
X79157538Y-88302000D01*
X79113396Y-88297653D01*
X79076856Y-88286568D01*
X79043179Y-88268567D01*
X79013659Y-88244341D01*
X78989433Y-88214821D01*
X78971432Y-88181144D01*
X78960347Y-88144604D01*
X78956000Y-88100462D01*
X78956000Y-86651538D01*
X78960347Y-86607396D01*
X78971432Y-86570856D01*
X78989433Y-86537179D01*
X79013659Y-86507659D01*
X79043179Y-86483433D01*
X79076856Y-86465432D01*
X79113396Y-86454347D01*
X79157538Y-86450000D01*
X80106462Y-86450000D01*
X80150604Y-86454347D01*
G37*
G36*
X71762604Y-86454347D02*
G01*
X71799144Y-86465432D01*
X71832821Y-86483433D01*
X71862341Y-86507659D01*
X71886567Y-86537179D01*
X71904568Y-86570856D01*
X71915653Y-86607396D01*
X71920000Y-86651538D01*
X71920000Y-88100462D01*
X71915653Y-88144604D01*
X71904568Y-88181144D01*
X71886567Y-88214821D01*
X71862341Y-88244341D01*
X71832821Y-88268567D01*
X71799144Y-88286568D01*
X71762604Y-88297653D01*
X71718462Y-88302000D01*
X70769538Y-88302000D01*
X70725396Y-88297653D01*
X70688856Y-88286568D01*
X70655179Y-88268567D01*
X70625659Y-88244341D01*
X70601433Y-88214821D01*
X70583432Y-88181144D01*
X70572347Y-88144604D01*
X70568000Y-88100462D01*
X70568000Y-86651538D01*
X70572347Y-86607396D01*
X70583432Y-86570856D01*
X70601433Y-86537179D01*
X70625659Y-86507659D01*
X70655179Y-86483433D01*
X70688856Y-86465432D01*
X70725396Y-86454347D01*
X70769538Y-86450000D01*
X71718462Y-86450000D01*
X71762604Y-86454347D01*
G37*
G36*
X77350604Y-86454347D02*
G01*
X77387144Y-86465432D01*
X77420821Y-86483433D01*
X77450341Y-86507659D01*
X77474567Y-86537179D01*
X77492568Y-86570856D01*
X77503653Y-86607396D01*
X77508000Y-86651538D01*
X77508000Y-88100462D01*
X77503653Y-88144604D01*
X77492568Y-88181144D01*
X77474567Y-88214821D01*
X77450341Y-88244341D01*
X77420821Y-88268567D01*
X77387144Y-88286568D01*
X77350604Y-88297653D01*
X77306462Y-88302000D01*
X76357538Y-88302000D01*
X76313396Y-88297653D01*
X76276856Y-88286568D01*
X76243179Y-88268567D01*
X76213659Y-88244341D01*
X76189433Y-88214821D01*
X76171432Y-88181144D01*
X76160347Y-88144604D01*
X76156000Y-88100462D01*
X76156000Y-86651538D01*
X76160347Y-86607396D01*
X76171432Y-86570856D01*
X76189433Y-86537179D01*
X76213659Y-86507659D01*
X76243179Y-86483433D01*
X76276856Y-86465432D01*
X76313396Y-86454347D01*
X76357538Y-86450000D01*
X77306462Y-86450000D01*
X77350604Y-86454347D01*
G37*
G36*
X64352731Y-82828136D02*
G01*
X64455644Y-82838272D01*
X64651017Y-82897538D01*
X64719737Y-82918384D01*
X64910711Y-83020462D01*
X64963120Y-83048475D01*
X64975012Y-83058235D01*
X65176450Y-83223550D01*
X65305918Y-83381309D01*
X65351525Y-83436880D01*
X65351526Y-83436882D01*
X65481616Y-83680263D01*
X65481617Y-83680267D01*
X65561728Y-83944356D01*
X65588778Y-84219000D01*
X65561728Y-84493644D01*
X65502462Y-84689017D01*
X65481616Y-84757737D01*
X65358964Y-84987202D01*
X65351525Y-85001120D01*
X65305918Y-85056691D01*
X65176450Y-85214450D01*
X65018691Y-85343918D01*
X64963120Y-85389525D01*
X64963118Y-85389526D01*
X64719737Y-85519616D01*
X64651017Y-85540462D01*
X64455644Y-85599728D01*
X64352731Y-85609864D01*
X64249820Y-85620000D01*
X63512180Y-85620000D01*
X63409269Y-85609864D01*
X63306356Y-85599728D01*
X63110983Y-85540462D01*
X63042263Y-85519616D01*
X62798882Y-85389526D01*
X62798880Y-85389525D01*
X62743309Y-85343918D01*
X62585550Y-85214450D01*
X62456082Y-85056691D01*
X62410475Y-85001120D01*
X62403036Y-84987202D01*
X62280384Y-84757737D01*
X62259538Y-84689017D01*
X62200272Y-84493644D01*
X62173222Y-84219000D01*
X62200272Y-83944356D01*
X62280383Y-83680267D01*
X62280384Y-83680263D01*
X62410474Y-83436882D01*
X62410475Y-83436880D01*
X62456082Y-83381309D01*
X62585550Y-83223550D01*
X62786988Y-83058235D01*
X62798880Y-83048475D01*
X62851289Y-83020462D01*
X63042263Y-82918384D01*
X63110983Y-82897538D01*
X63306356Y-82838272D01*
X63409269Y-82828136D01*
X63512180Y-82818000D01*
X64249820Y-82818000D01*
X64352731Y-82828136D01*
G37*
G36*
X58852731Y-82828136D02*
G01*
X58955644Y-82838272D01*
X59151017Y-82897538D01*
X59219737Y-82918384D01*
X59410711Y-83020462D01*
X59463120Y-83048475D01*
X59475012Y-83058235D01*
X59676450Y-83223550D01*
X59805918Y-83381309D01*
X59851525Y-83436880D01*
X59851526Y-83436882D01*
X59981616Y-83680263D01*
X59981617Y-83680267D01*
X60061728Y-83944356D01*
X60088778Y-84219000D01*
X60061728Y-84493644D01*
X60002462Y-84689017D01*
X59981616Y-84757737D01*
X59858964Y-84987202D01*
X59851525Y-85001120D01*
X59805918Y-85056691D01*
X59676450Y-85214450D01*
X59518691Y-85343918D01*
X59463120Y-85389525D01*
X59463118Y-85389526D01*
X59219737Y-85519616D01*
X59151017Y-85540462D01*
X58955644Y-85599728D01*
X58852731Y-85609864D01*
X58749820Y-85620000D01*
X58012180Y-85620000D01*
X57909269Y-85609864D01*
X57806356Y-85599728D01*
X57610983Y-85540462D01*
X57542263Y-85519616D01*
X57298882Y-85389526D01*
X57298880Y-85389525D01*
X57243309Y-85343918D01*
X57085550Y-85214450D01*
X56956082Y-85056691D01*
X56910475Y-85001120D01*
X56903036Y-84987202D01*
X56780384Y-84757737D01*
X56759538Y-84689017D01*
X56700272Y-84493644D01*
X56673222Y-84219000D01*
X56700272Y-83944356D01*
X56780383Y-83680267D01*
X56780384Y-83680263D01*
X56910474Y-83436882D01*
X56910475Y-83436880D01*
X56956082Y-83381309D01*
X57085550Y-83223550D01*
X57286988Y-83058235D01*
X57298880Y-83048475D01*
X57351289Y-83020462D01*
X57542263Y-82918384D01*
X57610983Y-82897538D01*
X57806356Y-82838272D01*
X57909269Y-82828136D01*
X58012180Y-82818000D01*
X58749820Y-82818000D01*
X58852731Y-82828136D01*
G37*
G36*
X80150604Y-81374347D02*
G01*
X80187144Y-81385432D01*
X80220821Y-81403433D01*
X80250341Y-81427659D01*
X80274567Y-81457179D01*
X80292568Y-81490856D01*
X80303653Y-81527396D01*
X80308000Y-81571538D01*
X80308000Y-83020462D01*
X80303653Y-83064604D01*
X80292568Y-83101144D01*
X80274567Y-83134821D01*
X80250341Y-83164341D01*
X80220821Y-83188567D01*
X80187144Y-83206568D01*
X80150604Y-83217653D01*
X80106462Y-83222000D01*
X79157538Y-83222000D01*
X79113396Y-83217653D01*
X79076856Y-83206568D01*
X79043179Y-83188567D01*
X79013659Y-83164341D01*
X78989433Y-83134821D01*
X78971432Y-83101144D01*
X78960347Y-83064604D01*
X78956000Y-83020462D01*
X78956000Y-81571538D01*
X78960347Y-81527396D01*
X78971432Y-81490856D01*
X78989433Y-81457179D01*
X79013659Y-81427659D01*
X79043179Y-81403433D01*
X79076856Y-81385432D01*
X79113396Y-81374347D01*
X79157538Y-81370000D01*
X80106462Y-81370000D01*
X80150604Y-81374347D01*
G37*
G36*
X74562604Y-81374347D02*
G01*
X74599144Y-81385432D01*
X74632821Y-81403433D01*
X74662341Y-81427659D01*
X74686567Y-81457179D01*
X74704568Y-81490856D01*
X74715653Y-81527396D01*
X74720000Y-81571538D01*
X74720000Y-83020462D01*
X74715653Y-83064604D01*
X74704568Y-83101144D01*
X74686567Y-83134821D01*
X74662341Y-83164341D01*
X74632821Y-83188567D01*
X74599144Y-83206568D01*
X74562604Y-83217653D01*
X74518462Y-83222000D01*
X73569538Y-83222000D01*
X73525396Y-83217653D01*
X73488856Y-83206568D01*
X73455179Y-83188567D01*
X73425659Y-83164341D01*
X73401433Y-83134821D01*
X73383432Y-83101144D01*
X73372347Y-83064604D01*
X73368000Y-83020462D01*
X73368000Y-81571538D01*
X73372347Y-81527396D01*
X73383432Y-81490856D01*
X73401433Y-81457179D01*
X73425659Y-81427659D01*
X73455179Y-81403433D01*
X73488856Y-81385432D01*
X73525396Y-81374347D01*
X73569538Y-81370000D01*
X74518462Y-81370000D01*
X74562604Y-81374347D01*
G37*
G36*
X77350604Y-81374347D02*
G01*
X77387144Y-81385432D01*
X77420821Y-81403433D01*
X77450341Y-81427659D01*
X77474567Y-81457179D01*
X77492568Y-81490856D01*
X77503653Y-81527396D01*
X77508000Y-81571538D01*
X77508000Y-83020462D01*
X77503653Y-83064604D01*
X77492568Y-83101144D01*
X77474567Y-83134821D01*
X77450341Y-83164341D01*
X77420821Y-83188567D01*
X77387144Y-83206568D01*
X77350604Y-83217653D01*
X77306462Y-83222000D01*
X76357538Y-83222000D01*
X76313396Y-83217653D01*
X76276856Y-83206568D01*
X76243179Y-83188567D01*
X76213659Y-83164341D01*
X76189433Y-83134821D01*
X76171432Y-83101144D01*
X76160347Y-83064604D01*
X76156000Y-83020462D01*
X76156000Y-81571538D01*
X76160347Y-81527396D01*
X76171432Y-81490856D01*
X76189433Y-81457179D01*
X76213659Y-81427659D01*
X76243179Y-81403433D01*
X76276856Y-81385432D01*
X76313396Y-81374347D01*
X76357538Y-81370000D01*
X77306462Y-81370000D01*
X77350604Y-81374347D01*
G37*
G36*
X71762604Y-81374347D02*
G01*
X71799144Y-81385432D01*
X71832821Y-81403433D01*
X71862341Y-81427659D01*
X71886567Y-81457179D01*
X71904568Y-81490856D01*
X71915653Y-81527396D01*
X71920000Y-81571538D01*
X71920000Y-83020462D01*
X71915653Y-83064604D01*
X71904568Y-83101144D01*
X71886567Y-83134821D01*
X71862341Y-83164341D01*
X71832821Y-83188567D01*
X71799144Y-83206568D01*
X71762604Y-83217653D01*
X71718462Y-83222000D01*
X70769538Y-83222000D01*
X70725396Y-83217653D01*
X70688856Y-83206568D01*
X70655179Y-83188567D01*
X70625659Y-83164341D01*
X70601433Y-83134821D01*
X70583432Y-83101144D01*
X70572347Y-83064604D01*
X70568000Y-83020462D01*
X70568000Y-81571538D01*
X70572347Y-81527396D01*
X70583432Y-81490856D01*
X70601433Y-81457179D01*
X70625659Y-81427659D01*
X70655179Y-81403433D01*
X70688856Y-81385432D01*
X70725396Y-81374347D01*
X70769538Y-81370000D01*
X71718462Y-81370000D01*
X71762604Y-81374347D01*
G37*
G36*
X97234915Y-80492383D02*
G01*
X97362522Y-80517765D01*
X97459022Y-80557737D01*
X97602927Y-80617344D01*
X97602928Y-80617345D01*
X97819289Y-80761912D01*
X98003288Y-80945911D01*
X98049083Y-81014449D01*
X98147856Y-81162273D01*
X98159144Y-81189525D01*
X98247435Y-81402678D01*
X98272243Y-81527396D01*
X98294721Y-81640400D01*
X98298200Y-81657893D01*
X98298200Y-81918107D01*
X98247435Y-82173322D01*
X98189103Y-82314148D01*
X98147856Y-82413727D01*
X98147855Y-82413728D01*
X98003288Y-82630089D01*
X97819289Y-82814088D01*
X97674721Y-82910685D01*
X97602927Y-82958656D01*
X97503348Y-82999903D01*
X97362522Y-83058235D01*
X97234915Y-83083617D01*
X97107309Y-83109000D01*
X96847091Y-83109000D01*
X96719485Y-83083617D01*
X96591878Y-83058235D01*
X96451052Y-82999903D01*
X96351473Y-82958656D01*
X96279679Y-82910685D01*
X96135111Y-82814088D01*
X95951112Y-82630089D01*
X95806545Y-82413728D01*
X95806544Y-82413727D01*
X95765297Y-82314148D01*
X95706965Y-82173322D01*
X95656200Y-81918107D01*
X95656200Y-81657893D01*
X95659680Y-81640400D01*
X95682157Y-81527396D01*
X95706965Y-81402678D01*
X95795256Y-81189525D01*
X95806544Y-81162273D01*
X95905317Y-81014449D01*
X95951112Y-80945911D01*
X96135111Y-80761912D01*
X96351472Y-80617345D01*
X96351473Y-80617344D01*
X96495378Y-80557737D01*
X96591878Y-80517765D01*
X96719485Y-80492383D01*
X96847091Y-80467000D01*
X97107309Y-80467000D01*
X97234915Y-80492383D01*
G37*
G36*
X58852731Y-78628136D02*
G01*
X58955644Y-78638272D01*
X59151017Y-78697538D01*
X59219737Y-78718384D01*
X59449202Y-78841036D01*
X59463120Y-78848475D01*
X59518691Y-78894082D01*
X59676450Y-79023550D01*
X59805918Y-79181309D01*
X59851525Y-79236880D01*
X59851526Y-79236882D01*
X59981616Y-79480263D01*
X59981617Y-79480267D01*
X60061728Y-79744356D01*
X60088778Y-80019000D01*
X60061728Y-80293644D01*
X60009141Y-80467000D01*
X59981616Y-80557737D01*
X59872482Y-80761912D01*
X59851525Y-80801120D01*
X59805918Y-80856691D01*
X59676450Y-81014450D01*
X59518691Y-81143918D01*
X59463120Y-81189525D01*
X59463118Y-81189526D01*
X59219737Y-81319616D01*
X59151017Y-81340462D01*
X58955644Y-81399728D01*
X58852731Y-81409864D01*
X58749820Y-81420000D01*
X58012180Y-81420000D01*
X57909269Y-81409864D01*
X57806356Y-81399728D01*
X57610983Y-81340462D01*
X57542263Y-81319616D01*
X57298882Y-81189526D01*
X57298880Y-81189525D01*
X57243309Y-81143918D01*
X57085550Y-81014450D01*
X56956082Y-80856691D01*
X56910475Y-80801120D01*
X56889518Y-80761912D01*
X56780384Y-80557737D01*
X56752859Y-80467000D01*
X56700272Y-80293644D01*
X56673222Y-80019000D01*
X56700272Y-79744356D01*
X56780383Y-79480267D01*
X56780384Y-79480263D01*
X56910474Y-79236882D01*
X56910475Y-79236880D01*
X56956082Y-79181309D01*
X57085550Y-79023550D01*
X57243309Y-78894082D01*
X57298880Y-78848475D01*
X57312798Y-78841036D01*
X57542263Y-78718384D01*
X57610983Y-78697538D01*
X57806356Y-78638272D01*
X57909269Y-78628136D01*
X58012180Y-78618000D01*
X58749820Y-78618000D01*
X58852731Y-78628136D01*
G37*
G36*
X64352731Y-78628136D02*
G01*
X64455644Y-78638272D01*
X64651017Y-78697538D01*
X64719737Y-78718384D01*
X64949202Y-78841036D01*
X64963120Y-78848475D01*
X65018691Y-78894082D01*
X65176450Y-79023550D01*
X65305918Y-79181309D01*
X65351525Y-79236880D01*
X65351526Y-79236882D01*
X65481616Y-79480263D01*
X65481617Y-79480267D01*
X65561728Y-79744356D01*
X65588778Y-80019000D01*
X65561728Y-80293644D01*
X65509141Y-80467000D01*
X65481616Y-80557737D01*
X65372482Y-80761912D01*
X65351525Y-80801120D01*
X65305918Y-80856691D01*
X65176450Y-81014450D01*
X65018691Y-81143918D01*
X64963120Y-81189525D01*
X64963118Y-81189526D01*
X64719737Y-81319616D01*
X64651017Y-81340462D01*
X64455644Y-81399728D01*
X64352731Y-81409864D01*
X64249820Y-81420000D01*
X63512180Y-81420000D01*
X63409269Y-81409864D01*
X63306356Y-81399728D01*
X63110983Y-81340462D01*
X63042263Y-81319616D01*
X62798882Y-81189526D01*
X62798880Y-81189525D01*
X62743309Y-81143918D01*
X62585550Y-81014450D01*
X62456082Y-80856691D01*
X62410475Y-80801120D01*
X62389518Y-80761912D01*
X62280384Y-80557737D01*
X62252859Y-80467000D01*
X62200272Y-80293644D01*
X62173222Y-80019000D01*
X62200272Y-79744356D01*
X62280383Y-79480267D01*
X62280384Y-79480263D01*
X62410474Y-79236882D01*
X62410475Y-79236880D01*
X62456082Y-79181309D01*
X62585550Y-79023550D01*
X62743309Y-78894082D01*
X62798880Y-78848475D01*
X62812798Y-78841036D01*
X63042263Y-78718384D01*
X63110983Y-78697538D01*
X63306356Y-78638272D01*
X63409269Y-78628136D01*
X63512180Y-78618000D01*
X64249820Y-78618000D01*
X64352731Y-78628136D01*
G37*
G36*
X65455031Y-74421621D02*
G01*
X65484486Y-74430556D01*
X65511623Y-74445062D01*
X65535414Y-74464586D01*
X65554938Y-74488377D01*
X65569444Y-74515514D01*
X65578379Y-74544969D01*
X65582000Y-74581734D01*
X65582000Y-77056266D01*
X65578379Y-77093031D01*
X65569444Y-77122486D01*
X65554938Y-77149623D01*
X65535414Y-77173414D01*
X65511623Y-77192938D01*
X65484486Y-77207444D01*
X65455031Y-77216379D01*
X65418266Y-77220000D01*
X62343734Y-77220000D01*
X62306969Y-77216379D01*
X62277514Y-77207444D01*
X62250377Y-77192938D01*
X62226586Y-77173414D01*
X62207062Y-77149623D01*
X62192556Y-77122486D01*
X62183621Y-77093031D01*
X62180000Y-77056266D01*
X62180000Y-74581734D01*
X62183621Y-74544969D01*
X62192556Y-74515514D01*
X62207062Y-74488377D01*
X62226586Y-74464586D01*
X62250377Y-74445062D01*
X62277514Y-74430556D01*
X62306969Y-74421621D01*
X62343734Y-74418000D01*
X65418266Y-74418000D01*
X65455031Y-74421621D01*
G37*
G36*
X58852731Y-74428136D02*
G01*
X58955644Y-74438272D01*
X59151017Y-74497538D01*
X59219737Y-74518384D01*
X59422625Y-74626830D01*
X59463120Y-74648475D01*
X59518691Y-74694082D01*
X59676450Y-74823550D01*
X59805918Y-74981309D01*
X59851525Y-75036880D01*
X59851526Y-75036882D01*
X59981616Y-75280263D01*
X59981617Y-75280267D01*
X60061728Y-75544356D01*
X60088778Y-75819000D01*
X60061728Y-76093644D01*
X60002462Y-76289017D01*
X59981616Y-76357737D01*
X59858964Y-76587202D01*
X59851525Y-76601120D01*
X59805918Y-76656691D01*
X59676450Y-76814450D01*
X59518691Y-76943918D01*
X59463120Y-76989525D01*
X59463118Y-76989526D01*
X59219737Y-77119616D01*
X59151017Y-77140462D01*
X58955644Y-77199728D01*
X58852731Y-77209864D01*
X58749820Y-77220000D01*
X58012180Y-77220000D01*
X57909269Y-77209864D01*
X57806356Y-77199728D01*
X57610983Y-77140462D01*
X57542263Y-77119616D01*
X57298882Y-76989526D01*
X57298880Y-76989525D01*
X57243309Y-76943918D01*
X57085550Y-76814450D01*
X56956082Y-76656691D01*
X56910475Y-76601120D01*
X56903036Y-76587202D01*
X56780384Y-76357737D01*
X56759538Y-76289017D01*
X56700272Y-76093644D01*
X56673222Y-75819000D01*
X56700272Y-75544356D01*
X56780383Y-75280267D01*
X56780384Y-75280263D01*
X56910474Y-75036882D01*
X56910475Y-75036880D01*
X56956082Y-74981309D01*
X57085550Y-74823550D01*
X57243309Y-74694082D01*
X57298880Y-74648475D01*
X57339375Y-74626830D01*
X57542263Y-74518384D01*
X57610983Y-74497538D01*
X57806356Y-74438272D01*
X57909269Y-74428136D01*
X58012180Y-74418000D01*
X58749820Y-74418000D01*
X58852731Y-74428136D01*
G37*
G36*
X98349000Y-74473000D02*
G01*
X95707000Y-74473000D01*
X95707000Y-71831000D01*
X98349000Y-71831000D01*
X98349000Y-74473000D01*
G37*
G36*
X59143585Y-69597802D02*
G01*
X59293410Y-69627604D01*
X59575674Y-69744521D01*
X59829705Y-69914259D01*
X60045741Y-70130295D01*
X60215479Y-70384326D01*
X60332396Y-70666590D01*
X60392000Y-70966240D01*
X60392000Y-71271760D01*
X60332396Y-71571410D01*
X60215479Y-71853674D01*
X60045741Y-72107705D01*
X59829705Y-72323741D01*
X59575674Y-72493479D01*
X59293410Y-72610396D01*
X59143585Y-72640198D01*
X58993761Y-72670000D01*
X58688239Y-72670000D01*
X58538415Y-72640198D01*
X58388590Y-72610396D01*
X58106326Y-72493479D01*
X57852295Y-72323741D01*
X57636259Y-72107705D01*
X57466521Y-71853674D01*
X57349604Y-71571410D01*
X57290000Y-71271760D01*
X57290000Y-70966240D01*
X57349604Y-70666590D01*
X57466521Y-70384326D01*
X57636259Y-70130295D01*
X57852295Y-69914259D01*
X58106326Y-69744521D01*
X58388590Y-69627604D01*
X58538415Y-69597802D01*
X58688239Y-69568000D01*
X58993761Y-69568000D01*
X59143585Y-69597802D01*
G37*
G36*
X64016585Y-66678802D02*
G01*
X64166410Y-66708604D01*
X64448674Y-66825521D01*
X64702705Y-66995259D01*
X64918741Y-67211295D01*
X65088479Y-67465326D01*
X65205396Y-67747590D01*
X65265000Y-68047240D01*
X65265000Y-68352760D01*
X65205396Y-68652410D01*
X65088479Y-68934674D01*
X64918741Y-69188705D01*
X64702705Y-69404741D01*
X64448674Y-69574479D01*
X64166410Y-69691396D01*
X64016585Y-69721198D01*
X63866761Y-69751000D01*
X63561239Y-69751000D01*
X63411415Y-69721198D01*
X63261590Y-69691396D01*
X62979326Y-69574479D01*
X62725295Y-69404741D01*
X62509259Y-69188705D01*
X62339521Y-68934674D01*
X62222604Y-68652410D01*
X62163000Y-68352760D01*
X62163000Y-68047240D01*
X62222604Y-67747590D01*
X62339521Y-67465326D01*
X62509259Y-67211295D01*
X62725295Y-66995259D01*
X62979326Y-66825521D01*
X63261590Y-66708604D01*
X63411415Y-66678802D01*
X63561239Y-66649000D01*
X63866761Y-66649000D01*
X64016585Y-66678802D01*
G37*
G36*
X97285715Y-64236383D02*
G01*
X97413322Y-64261765D01*
X97554148Y-64320097D01*
X97653727Y-64361344D01*
X97653728Y-64361345D01*
X97870089Y-64505912D01*
X98054088Y-64689911D01*
X98055597Y-64692170D01*
X98198656Y-64906273D01*
X98239903Y-65005852D01*
X98298235Y-65146678D01*
X98349000Y-65401893D01*
X98349000Y-65662107D01*
X98298235Y-65917322D01*
X98239903Y-66058148D01*
X98198656Y-66157727D01*
X98198655Y-66157728D01*
X98054088Y-66374089D01*
X97870089Y-66558088D01*
X97734029Y-66649000D01*
X97653727Y-66702656D01*
X97554148Y-66743903D01*
X97413322Y-66802235D01*
X97296254Y-66825521D01*
X97158109Y-66853000D01*
X96897891Y-66853000D01*
X96759746Y-66825521D01*
X96642678Y-66802235D01*
X96501852Y-66743903D01*
X96402273Y-66702656D01*
X96321971Y-66649000D01*
X96185911Y-66558088D01*
X96001912Y-66374089D01*
X95857345Y-66157728D01*
X95857344Y-66157727D01*
X95816097Y-66058148D01*
X95757765Y-65917322D01*
X95707000Y-65662107D01*
X95707000Y-65401893D01*
X95757765Y-65146678D01*
X95816097Y-65005852D01*
X95857344Y-64906273D01*
X96000403Y-64692170D01*
X96001912Y-64689911D01*
X96185911Y-64505912D01*
X96402272Y-64361345D01*
X96402273Y-64361344D01*
X96501852Y-64320097D01*
X96642678Y-64261765D01*
X96770285Y-64236383D01*
X96897891Y-64211000D01*
X97158109Y-64211000D01*
X97285715Y-64236383D01*
G37*
G36*
X60248031Y-62102621D02*
G01*
X60277486Y-62111556D01*
X60304623Y-62126062D01*
X60328414Y-62145586D01*
X60347938Y-62169377D01*
X60362444Y-62196514D01*
X60371379Y-62225969D01*
X60375000Y-62262734D01*
X60375000Y-64737266D01*
X60371379Y-64774031D01*
X60362444Y-64803486D01*
X60347938Y-64830623D01*
X60328414Y-64854414D01*
X60304623Y-64873938D01*
X60277486Y-64888444D01*
X60248031Y-64897379D01*
X60211266Y-64901000D01*
X57136734Y-64901000D01*
X57099969Y-64897379D01*
X57070514Y-64888444D01*
X57043377Y-64873938D01*
X57019586Y-64854414D01*
X57000062Y-64830623D01*
X56985556Y-64803486D01*
X56976621Y-64774031D01*
X56973000Y-64737266D01*
X56973000Y-62262734D01*
X56976621Y-62225969D01*
X56985556Y-62196514D01*
X57000062Y-62169377D01*
X57019586Y-62145586D01*
X57043377Y-62126062D01*
X57070514Y-62111556D01*
X57099969Y-62102621D01*
X57136734Y-62099000D01*
X60211266Y-62099000D01*
X60248031Y-62102621D01*
G37*
G36*
X64645731Y-62109136D02*
G01*
X64748644Y-62119272D01*
X64944017Y-62178538D01*
X65012737Y-62199384D01*
X65215625Y-62307830D01*
X65256120Y-62329475D01*
X65311691Y-62375082D01*
X65469450Y-62504550D01*
X65598918Y-62662309D01*
X65644525Y-62717880D01*
X65644526Y-62717882D01*
X65774616Y-62961263D01*
X65774617Y-62961267D01*
X65854728Y-63225356D01*
X65881778Y-63500000D01*
X65854728Y-63774644D01*
X65795462Y-63970017D01*
X65774616Y-64038737D01*
X65682539Y-64211000D01*
X65644525Y-64282120D01*
X65598918Y-64337691D01*
X65469450Y-64495450D01*
X65311691Y-64624918D01*
X65256120Y-64670525D01*
X65256118Y-64670526D01*
X65012737Y-64800616D01*
X64944017Y-64821462D01*
X64748644Y-64880728D01*
X64645731Y-64890864D01*
X64542820Y-64901000D01*
X63805180Y-64901000D01*
X63702269Y-64890864D01*
X63599356Y-64880728D01*
X63403983Y-64821462D01*
X63335263Y-64800616D01*
X63091882Y-64670526D01*
X63091880Y-64670525D01*
X63036309Y-64624918D01*
X62878550Y-64495450D01*
X62749082Y-64337691D01*
X62703475Y-64282120D01*
X62665461Y-64211000D01*
X62573384Y-64038737D01*
X62552538Y-63970017D01*
X62493272Y-63774644D01*
X62466222Y-63500000D01*
X62493272Y-63225356D01*
X62573383Y-62961267D01*
X62573384Y-62961263D01*
X62703474Y-62717882D01*
X62703475Y-62717880D01*
X62749082Y-62662309D01*
X62878550Y-62504550D01*
X63036309Y-62375082D01*
X63091880Y-62329475D01*
X63132375Y-62307830D01*
X63335263Y-62199384D01*
X63403983Y-62178538D01*
X63599356Y-62119272D01*
X63702269Y-62109136D01*
X63805180Y-62099000D01*
X64542820Y-62099000D01*
X64645731Y-62109136D01*
G37*
G36*
X59145731Y-57909136D02*
G01*
X59248644Y-57919272D01*
X59444017Y-57978538D01*
X59512737Y-57999384D01*
X59742202Y-58122036D01*
X59756120Y-58129475D01*
X59811691Y-58175082D01*
X59969450Y-58304550D01*
X60098918Y-58462309D01*
X60144525Y-58517880D01*
X60144526Y-58517882D01*
X60274616Y-58761263D01*
X60274617Y-58761267D01*
X60354728Y-59025356D01*
X60381778Y-59300000D01*
X60354728Y-59574644D01*
X60295462Y-59770017D01*
X60274616Y-59838737D01*
X60151964Y-60068202D01*
X60144525Y-60082120D01*
X60098918Y-60137691D01*
X59969450Y-60295450D01*
X59811691Y-60424918D01*
X59756120Y-60470525D01*
X59756118Y-60470526D01*
X59512737Y-60600616D01*
X59444017Y-60621462D01*
X59248644Y-60680728D01*
X59145731Y-60690864D01*
X59042820Y-60701000D01*
X58305180Y-60701000D01*
X58202269Y-60690864D01*
X58099356Y-60680728D01*
X57903983Y-60621462D01*
X57835263Y-60600616D01*
X57591882Y-60470526D01*
X57591880Y-60470525D01*
X57536309Y-60424918D01*
X57378550Y-60295450D01*
X57249082Y-60137691D01*
X57203475Y-60082120D01*
X57196036Y-60068202D01*
X57073384Y-59838737D01*
X57052538Y-59770017D01*
X56993272Y-59574644D01*
X56966222Y-59300000D01*
X56993272Y-59025356D01*
X57073383Y-58761267D01*
X57073384Y-58761263D01*
X57203474Y-58517882D01*
X57203475Y-58517880D01*
X57249082Y-58462309D01*
X57378550Y-58304550D01*
X57536309Y-58175082D01*
X57591880Y-58129475D01*
X57605798Y-58122036D01*
X57835263Y-57999384D01*
X57903983Y-57978538D01*
X58099356Y-57919272D01*
X58202269Y-57909136D01*
X58305180Y-57899000D01*
X59042820Y-57899000D01*
X59145731Y-57909136D01*
G37*
G36*
X64645731Y-57909136D02*
G01*
X64748644Y-57919272D01*
X64944017Y-57978538D01*
X65012737Y-57999384D01*
X65242202Y-58122036D01*
X65256120Y-58129475D01*
X65311691Y-58175082D01*
X65469450Y-58304550D01*
X65598918Y-58462309D01*
X65644525Y-58517880D01*
X65644526Y-58517882D01*
X65774616Y-58761263D01*
X65774617Y-58761267D01*
X65854728Y-59025356D01*
X65881778Y-59300000D01*
X65854728Y-59574644D01*
X65795462Y-59770017D01*
X65774616Y-59838737D01*
X65651964Y-60068202D01*
X65644525Y-60082120D01*
X65598918Y-60137691D01*
X65469450Y-60295450D01*
X65311691Y-60424918D01*
X65256120Y-60470525D01*
X65256118Y-60470526D01*
X65012737Y-60600616D01*
X64944017Y-60621462D01*
X64748644Y-60680728D01*
X64645731Y-60690864D01*
X64542820Y-60701000D01*
X63805180Y-60701000D01*
X63702269Y-60690864D01*
X63599356Y-60680728D01*
X63403983Y-60621462D01*
X63335263Y-60600616D01*
X63091882Y-60470526D01*
X63091880Y-60470525D01*
X63036309Y-60424918D01*
X62878550Y-60295450D01*
X62749082Y-60137691D01*
X62703475Y-60082120D01*
X62696036Y-60068202D01*
X62573384Y-59838737D01*
X62552538Y-59770017D01*
X62493272Y-59574644D01*
X62466222Y-59300000D01*
X62493272Y-59025356D01*
X62573383Y-58761267D01*
X62573384Y-58761263D01*
X62703474Y-58517882D01*
X62703475Y-58517880D01*
X62749082Y-58462309D01*
X62878550Y-58304550D01*
X63036309Y-58175082D01*
X63091880Y-58129475D01*
X63105798Y-58122036D01*
X63335263Y-57999384D01*
X63403983Y-57978538D01*
X63599356Y-57919272D01*
X63702269Y-57909136D01*
X63805180Y-57899000D01*
X64542820Y-57899000D01*
X64645731Y-57909136D01*
G37*
G36*
X98349000Y-58217000D02*
G01*
X95707000Y-58217000D01*
X95707000Y-55575000D01*
X98349000Y-55575000D01*
X98349000Y-58217000D01*
G37*
G36*
X59145731Y-53709136D02*
G01*
X59248644Y-53719272D01*
X59444017Y-53778538D01*
X59512737Y-53799384D01*
X59742202Y-53922036D01*
X59756120Y-53929475D01*
X59811691Y-53975082D01*
X59969450Y-54104550D01*
X60098918Y-54262309D01*
X60144525Y-54317880D01*
X60144526Y-54317882D01*
X60274616Y-54561263D01*
X60274617Y-54561267D01*
X60354728Y-54825356D01*
X60381778Y-55100000D01*
X60354728Y-55374644D01*
X60295462Y-55570017D01*
X60274616Y-55638737D01*
X60151964Y-55868202D01*
X60144525Y-55882120D01*
X60098918Y-55937691D01*
X59969450Y-56095450D01*
X59811691Y-56224918D01*
X59756120Y-56270525D01*
X59756118Y-56270526D01*
X59512737Y-56400616D01*
X59444017Y-56421462D01*
X59248644Y-56480728D01*
X59145731Y-56490864D01*
X59042820Y-56501000D01*
X58305180Y-56501000D01*
X58202269Y-56490864D01*
X58099356Y-56480728D01*
X57903983Y-56421462D01*
X57835263Y-56400616D01*
X57591882Y-56270526D01*
X57591880Y-56270525D01*
X57536309Y-56224918D01*
X57378550Y-56095450D01*
X57249082Y-55937691D01*
X57203475Y-55882120D01*
X57196036Y-55868202D01*
X57073384Y-55638737D01*
X57052538Y-55570017D01*
X56993272Y-55374644D01*
X56966222Y-55100000D01*
X56993272Y-54825356D01*
X57073383Y-54561267D01*
X57073384Y-54561263D01*
X57203474Y-54317882D01*
X57203475Y-54317880D01*
X57249082Y-54262309D01*
X57378550Y-54104550D01*
X57536309Y-53975082D01*
X57591880Y-53929475D01*
X57605798Y-53922036D01*
X57835263Y-53799384D01*
X57903983Y-53778538D01*
X58099356Y-53719272D01*
X58202269Y-53709136D01*
X58305180Y-53699000D01*
X59042820Y-53699000D01*
X59145731Y-53709136D01*
G37*
G36*
X64645731Y-53709136D02*
G01*
X64748644Y-53719272D01*
X64944017Y-53778538D01*
X65012737Y-53799384D01*
X65242202Y-53922036D01*
X65256120Y-53929475D01*
X65311691Y-53975082D01*
X65469450Y-54104550D01*
X65598918Y-54262309D01*
X65644525Y-54317880D01*
X65644526Y-54317882D01*
X65774616Y-54561263D01*
X65774617Y-54561267D01*
X65854728Y-54825356D01*
X65881778Y-55100000D01*
X65854728Y-55374644D01*
X65795462Y-55570017D01*
X65774616Y-55638737D01*
X65651964Y-55868202D01*
X65644525Y-55882120D01*
X65598918Y-55937691D01*
X65469450Y-56095450D01*
X65311691Y-56224918D01*
X65256120Y-56270525D01*
X65256118Y-56270526D01*
X65012737Y-56400616D01*
X64944017Y-56421462D01*
X64748644Y-56480728D01*
X64645731Y-56490864D01*
X64542820Y-56501000D01*
X63805180Y-56501000D01*
X63702269Y-56490864D01*
X63599356Y-56480728D01*
X63403983Y-56421462D01*
X63335263Y-56400616D01*
X63091882Y-56270526D01*
X63091880Y-56270525D01*
X63036309Y-56224918D01*
X62878550Y-56095450D01*
X62749082Y-55937691D01*
X62703475Y-55882120D01*
X62696036Y-55868202D01*
X62573384Y-55638737D01*
X62552538Y-55570017D01*
X62493272Y-55374644D01*
X62466222Y-55100000D01*
X62493272Y-54825356D01*
X62573383Y-54561267D01*
X62573384Y-54561263D01*
X62703474Y-54317882D01*
X62703475Y-54317880D01*
X62749082Y-54262309D01*
X62878550Y-54104550D01*
X63036309Y-53975082D01*
X63091880Y-53929475D01*
X63105798Y-53922036D01*
X63335263Y-53799384D01*
X63403983Y-53778538D01*
X63599356Y-53719272D01*
X63702269Y-53709136D01*
X63805180Y-53699000D01*
X64542820Y-53699000D01*
X64645731Y-53709136D01*
G37*
G36*
X64645731Y-49509136D02*
G01*
X64748644Y-49519272D01*
X64944017Y-49578538D01*
X65012737Y-49599384D01*
X65242202Y-49722036D01*
X65256120Y-49729475D01*
X65311691Y-49775082D01*
X65469450Y-49904550D01*
X65598918Y-50062309D01*
X65644525Y-50117880D01*
X65644526Y-50117882D01*
X65774616Y-50361263D01*
X65774617Y-50361267D01*
X65854728Y-50625356D01*
X65881778Y-50900000D01*
X65854728Y-51174644D01*
X65795462Y-51370017D01*
X65774616Y-51438737D01*
X65651964Y-51668202D01*
X65644525Y-51682120D01*
X65598918Y-51737691D01*
X65469450Y-51895450D01*
X65311691Y-52024918D01*
X65256120Y-52070525D01*
X65256118Y-52070526D01*
X65012737Y-52200616D01*
X64944017Y-52221462D01*
X64748644Y-52280728D01*
X64645731Y-52290864D01*
X64542820Y-52301000D01*
X63805180Y-52301000D01*
X63702269Y-52290864D01*
X63599356Y-52280728D01*
X63403983Y-52221462D01*
X63335263Y-52200616D01*
X63091882Y-52070526D01*
X63091880Y-52070525D01*
X63036309Y-52024918D01*
X62878550Y-51895450D01*
X62749082Y-51737691D01*
X62703475Y-51682120D01*
X62696036Y-51668202D01*
X62573384Y-51438737D01*
X62552538Y-51370017D01*
X62493272Y-51174644D01*
X62466222Y-50900000D01*
X62493272Y-50625356D01*
X62573383Y-50361267D01*
X62573384Y-50361263D01*
X62703474Y-50117882D01*
X62703475Y-50117880D01*
X62749082Y-50062309D01*
X62878550Y-49904550D01*
X63036309Y-49775082D01*
X63091880Y-49729475D01*
X63105798Y-49722036D01*
X63335263Y-49599384D01*
X63403983Y-49578538D01*
X63599356Y-49519272D01*
X63702269Y-49509136D01*
X63805180Y-49499000D01*
X64542820Y-49499000D01*
X64645731Y-49509136D01*
G37*
G36*
X59145731Y-49509136D02*
G01*
X59248644Y-49519272D01*
X59444017Y-49578538D01*
X59512737Y-49599384D01*
X59742202Y-49722036D01*
X59756120Y-49729475D01*
X59811691Y-49775082D01*
X59969450Y-49904550D01*
X60098918Y-50062309D01*
X60144525Y-50117880D01*
X60144526Y-50117882D01*
X60274616Y-50361263D01*
X60274617Y-50361267D01*
X60354728Y-50625356D01*
X60381778Y-50900000D01*
X60354728Y-51174644D01*
X60295462Y-51370017D01*
X60274616Y-51438737D01*
X60151964Y-51668202D01*
X60144525Y-51682120D01*
X60098918Y-51737691D01*
X59969450Y-51895450D01*
X59811691Y-52024918D01*
X59756120Y-52070525D01*
X59756118Y-52070526D01*
X59512737Y-52200616D01*
X59444017Y-52221462D01*
X59248644Y-52280728D01*
X59145731Y-52290864D01*
X59042820Y-52301000D01*
X58305180Y-52301000D01*
X58202269Y-52290864D01*
X58099356Y-52280728D01*
X57903983Y-52221462D01*
X57835263Y-52200616D01*
X57591882Y-52070526D01*
X57591880Y-52070525D01*
X57536309Y-52024918D01*
X57378550Y-51895450D01*
X57249082Y-51737691D01*
X57203475Y-51682120D01*
X57196036Y-51668202D01*
X57073384Y-51438737D01*
X57052538Y-51370017D01*
X56993272Y-51174644D01*
X56966222Y-50900000D01*
X56993272Y-50625356D01*
X57073383Y-50361267D01*
X57073384Y-50361263D01*
X57203474Y-50117882D01*
X57203475Y-50117880D01*
X57249082Y-50062309D01*
X57378550Y-49904550D01*
X57536309Y-49775082D01*
X57591880Y-49729475D01*
X57605798Y-49722036D01*
X57835263Y-49599384D01*
X57903983Y-49578538D01*
X58099356Y-49519272D01*
X58202269Y-49509136D01*
X58305180Y-49499000D01*
X59042820Y-49499000D01*
X59145731Y-49509136D01*
G37*
G36*
X97285715Y-47980383D02*
G01*
X97413322Y-48005765D01*
X97554148Y-48064097D01*
X97653727Y-48105344D01*
X97653728Y-48105345D01*
X97870089Y-48249912D01*
X98054088Y-48433911D01*
X98150685Y-48578479D01*
X98198656Y-48650273D01*
X98239903Y-48749852D01*
X98298235Y-48890678D01*
X98349000Y-49145893D01*
X98349000Y-49406107D01*
X98298235Y-49661322D01*
X98270005Y-49729474D01*
X98198656Y-49901727D01*
X98196769Y-49904551D01*
X98054088Y-50118089D01*
X97870089Y-50302088D01*
X97725521Y-50398685D01*
X97653727Y-50446656D01*
X97554148Y-50487903D01*
X97413322Y-50546235D01*
X97285715Y-50571617D01*
X97158109Y-50597000D01*
X96897891Y-50597000D01*
X96770285Y-50571617D01*
X96642678Y-50546235D01*
X96501852Y-50487903D01*
X96402273Y-50446656D01*
X96330479Y-50398685D01*
X96185911Y-50302088D01*
X96001912Y-50118089D01*
X95859231Y-49904551D01*
X95857344Y-49901727D01*
X95785995Y-49729474D01*
X95757765Y-49661322D01*
X95707000Y-49406107D01*
X95707000Y-49145893D01*
X95757765Y-48890678D01*
X95816097Y-48749852D01*
X95857344Y-48650273D01*
X95905315Y-48578479D01*
X96001912Y-48433911D01*
X96185911Y-48249912D01*
X96402272Y-48105345D01*
X96402273Y-48105344D01*
X96501852Y-48064097D01*
X96642678Y-48005765D01*
X96770286Y-47980382D01*
X96897891Y-47955000D01*
X97158109Y-47955000D01*
X97285715Y-47980383D01*
G37*
G36*
X64016585Y-44678802D02*
G01*
X64166410Y-44708604D01*
X64448674Y-44825521D01*
X64702705Y-44995259D01*
X64918741Y-45211295D01*
X65088479Y-45465326D01*
X65205396Y-45747590D01*
X65265000Y-46047240D01*
X65265000Y-46352760D01*
X65205396Y-46652410D01*
X65088479Y-46934674D01*
X64918741Y-47188705D01*
X64702705Y-47404741D01*
X64448674Y-47574479D01*
X64166410Y-47691396D01*
X64016585Y-47721198D01*
X63866761Y-47751000D01*
X63561239Y-47751000D01*
X63411415Y-47721198D01*
X63261590Y-47691396D01*
X62979326Y-47574479D01*
X62725295Y-47404741D01*
X62509259Y-47188705D01*
X62339521Y-46934674D01*
X62222604Y-46652410D01*
X62163000Y-46352760D01*
X62163000Y-46047240D01*
X62222604Y-45747590D01*
X62339521Y-45465326D01*
X62509259Y-45211295D01*
X62725295Y-44995259D01*
X62979326Y-44825521D01*
X63261590Y-44708604D01*
X63411415Y-44678802D01*
X63561239Y-44649000D01*
X63866761Y-44649000D01*
X64016585Y-44678802D01*
G37*
M02*
