G04 #@! TF.GenerationSoftware,KiCad,Pcbnew,(5.1.4)-1*
G04 #@! TF.CreationDate,2020-06-07T22:10:05-04:00*
G04 #@! TF.ProjectId,atx2,61747832-2e6b-4696-9361-645f70636258,rev?*
G04 #@! TF.SameCoordinates,Original*
G04 #@! TF.FileFunction,Soldermask,Top*
G04 #@! TF.FilePolarity,Negative*
%FSLAX46Y46*%
G04 Gerber Fmt 4.6, Leading zero omitted, Abs format (unit mm)*
G04 Created by KiCad (PCBNEW (5.1.4)-1) date 2020-06-07 22:10:05*
%MOMM*%
%LPD*%
G04 APERTURE LIST*
%ADD10C,0.100000*%
G04 APERTURE END LIST*
D10*
G36*
X73832724Y-149969497D02*
G01*
X74059906Y-150014686D01*
X74309412Y-150118035D01*
X74533962Y-150268075D01*
X74724925Y-150459038D01*
X74874965Y-150683588D01*
X74978314Y-150933094D01*
X75031000Y-151197968D01*
X75031000Y-151468032D01*
X74978314Y-151732906D01*
X74874965Y-151982412D01*
X74724925Y-152206962D01*
X74533962Y-152397925D01*
X74309412Y-152547965D01*
X74059906Y-152651314D01*
X73832724Y-152696503D01*
X73795033Y-152704000D01*
X73524967Y-152704000D01*
X73487276Y-152696503D01*
X73260094Y-152651314D01*
X73010588Y-152547965D01*
X72786038Y-152397925D01*
X72595075Y-152206962D01*
X72445035Y-151982412D01*
X72341686Y-151732906D01*
X72289000Y-151468032D01*
X72289000Y-151197968D01*
X72341686Y-150933094D01*
X72445035Y-150683588D01*
X72595075Y-150459038D01*
X72786038Y-150268075D01*
X73010588Y-150118035D01*
X73260094Y-150014686D01*
X73487276Y-149969497D01*
X73524967Y-149962000D01*
X73795033Y-149962000D01*
X73832724Y-149969497D01*
X73832724Y-149969497D01*
G37*
G36*
X69692724Y-149969497D02*
G01*
X69919906Y-150014686D01*
X70169412Y-150118035D01*
X70393962Y-150268075D01*
X70584925Y-150459038D01*
X70734965Y-150683588D01*
X70838314Y-150933094D01*
X70891000Y-151197968D01*
X70891000Y-151468032D01*
X70838314Y-151732906D01*
X70734965Y-151982412D01*
X70584925Y-152206962D01*
X70393962Y-152397925D01*
X70169412Y-152547965D01*
X69919906Y-152651314D01*
X69692724Y-152696503D01*
X69655033Y-152704000D01*
X69384967Y-152704000D01*
X69347276Y-152696503D01*
X69120094Y-152651314D01*
X68870588Y-152547965D01*
X68646038Y-152397925D01*
X68455075Y-152206962D01*
X68305035Y-151982412D01*
X68201686Y-151732906D01*
X68149000Y-151468032D01*
X68149000Y-151197968D01*
X68201686Y-150933094D01*
X68305035Y-150683588D01*
X68455075Y-150459038D01*
X68646038Y-150268075D01*
X68870588Y-150118035D01*
X69120094Y-150014686D01*
X69347276Y-149969497D01*
X69384967Y-149962000D01*
X69655033Y-149962000D01*
X69692724Y-149969497D01*
X69692724Y-149969497D01*
G37*
G36*
X90856000Y-152070000D02*
G01*
X88214000Y-152070000D01*
X88214000Y-149428000D01*
X90856000Y-149428000D01*
X90856000Y-152070000D01*
X90856000Y-152070000D01*
G37*
G36*
X78578661Y-145615062D02*
G01*
X78877303Y-145738764D01*
X78877305Y-145738765D01*
X79031455Y-145841765D01*
X79146076Y-145918352D01*
X79374648Y-146146924D01*
X79554236Y-146415697D01*
X79677938Y-146714339D01*
X79741000Y-147031374D01*
X79741000Y-147354626D01*
X79677938Y-147671661D01*
X79607211Y-147842410D01*
X79554235Y-147970305D01*
X79374648Y-148239076D01*
X79146076Y-148467648D01*
X78877305Y-148647235D01*
X78877304Y-148647236D01*
X78877303Y-148647236D01*
X78578661Y-148770938D01*
X78261626Y-148834000D01*
X77938374Y-148834000D01*
X77621339Y-148770938D01*
X77322697Y-148647236D01*
X77322696Y-148647236D01*
X77322695Y-148647235D01*
X77053924Y-148467648D01*
X76825352Y-148239076D01*
X76645765Y-147970305D01*
X76592789Y-147842410D01*
X76522062Y-147671661D01*
X76459000Y-147354626D01*
X76459000Y-147031374D01*
X76522062Y-146714339D01*
X76645764Y-146415697D01*
X76825352Y-146146924D01*
X77053924Y-145918352D01*
X77168545Y-145841765D01*
X77322695Y-145738765D01*
X77322697Y-145738764D01*
X77621339Y-145615062D01*
X77938374Y-145552000D01*
X78261626Y-145552000D01*
X78578661Y-145615062D01*
X78578661Y-145615062D01*
G37*
G36*
X74903436Y-145825635D02*
G01*
X74933027Y-145834611D01*
X74960296Y-145849187D01*
X74984198Y-145868802D01*
X75003813Y-145892704D01*
X75018389Y-145919973D01*
X75027365Y-145949564D01*
X75031000Y-145986474D01*
X75031000Y-148399526D01*
X75027365Y-148436436D01*
X75018389Y-148466027D01*
X75003813Y-148493296D01*
X74984198Y-148517198D01*
X74960296Y-148536813D01*
X74933027Y-148551389D01*
X74903436Y-148560365D01*
X74866526Y-148564000D01*
X72453474Y-148564000D01*
X72416564Y-148560365D01*
X72386973Y-148551389D01*
X72359704Y-148536813D01*
X72335802Y-148517198D01*
X72316187Y-148493296D01*
X72301611Y-148466027D01*
X72292635Y-148436436D01*
X72289000Y-148399526D01*
X72289000Y-145986474D01*
X72292635Y-145949564D01*
X72301611Y-145919973D01*
X72316187Y-145892704D01*
X72335802Y-145868802D01*
X72359704Y-145849187D01*
X72386973Y-145834611D01*
X72416564Y-145825635D01*
X72453474Y-145822000D01*
X74866526Y-145822000D01*
X74903436Y-145825635D01*
X74903436Y-145825635D01*
G37*
G36*
X69673307Y-145825635D02*
G01*
X69919906Y-145874686D01*
X70169412Y-145978035D01*
X70393962Y-146128075D01*
X70584925Y-146319038D01*
X70734965Y-146543588D01*
X70838314Y-146793094D01*
X70891000Y-147057968D01*
X70891000Y-147328032D01*
X70838314Y-147592906D01*
X70734965Y-147842412D01*
X70584925Y-148066962D01*
X70393962Y-148257925D01*
X70169412Y-148407965D01*
X69919906Y-148511314D01*
X69692724Y-148556503D01*
X69655033Y-148564000D01*
X69384967Y-148564000D01*
X69347276Y-148556503D01*
X69120094Y-148511314D01*
X68870588Y-148407965D01*
X68646038Y-148257925D01*
X68455075Y-148066962D01*
X68305035Y-147842412D01*
X68201686Y-147592906D01*
X68149000Y-147328032D01*
X68149000Y-147057968D01*
X68201686Y-146793094D01*
X68305035Y-146543588D01*
X68455075Y-146319038D01*
X68646038Y-146128075D01*
X68870588Y-145978035D01*
X69120094Y-145874686D01*
X69366693Y-145825635D01*
X69384967Y-145822000D01*
X69655033Y-145822000D01*
X69673307Y-145825635D01*
X69673307Y-145825635D01*
G37*
G36*
X89792715Y-141833383D02*
G01*
X89920322Y-141858765D01*
X90061148Y-141917097D01*
X90160727Y-141958344D01*
X90160728Y-141958345D01*
X90377089Y-142102912D01*
X90561088Y-142286911D01*
X90657685Y-142431479D01*
X90705656Y-142503273D01*
X90746903Y-142602852D01*
X90805235Y-142743678D01*
X90856000Y-142998893D01*
X90856000Y-143259107D01*
X90805235Y-143514322D01*
X90746903Y-143655148D01*
X90705656Y-143754727D01*
X90705655Y-143754728D01*
X90561088Y-143971089D01*
X90377089Y-144155088D01*
X90232521Y-144251685D01*
X90160727Y-144299656D01*
X90061148Y-144340903D01*
X89920322Y-144399235D01*
X89792715Y-144424617D01*
X89665109Y-144450000D01*
X89404891Y-144450000D01*
X89277285Y-144424617D01*
X89149678Y-144399235D01*
X89008852Y-144340903D01*
X88909273Y-144299656D01*
X88837479Y-144251685D01*
X88692911Y-144155088D01*
X88508912Y-143971089D01*
X88364345Y-143754728D01*
X88364344Y-143754727D01*
X88323097Y-143655148D01*
X88264765Y-143514322D01*
X88214000Y-143259107D01*
X88214000Y-142998893D01*
X88264765Y-142743678D01*
X88323097Y-142602852D01*
X88364344Y-142503273D01*
X88412315Y-142431479D01*
X88508912Y-142286911D01*
X88692911Y-142102912D01*
X88909272Y-141958345D01*
X88909273Y-141958344D01*
X89008852Y-141917097D01*
X89149678Y-141858765D01*
X89277285Y-141833383D01*
X89404891Y-141808000D01*
X89665109Y-141808000D01*
X89792715Y-141833383D01*
X89792715Y-141833383D01*
G37*
G36*
X73832724Y-137015497D02*
G01*
X74059906Y-137060686D01*
X74309412Y-137164035D01*
X74533962Y-137314075D01*
X74724925Y-137505038D01*
X74874965Y-137729588D01*
X74978314Y-137979094D01*
X75031000Y-138243968D01*
X75031000Y-138514032D01*
X74978314Y-138778906D01*
X74874965Y-139028412D01*
X74724925Y-139252962D01*
X74533962Y-139443925D01*
X74309412Y-139593965D01*
X74059906Y-139697314D01*
X73832724Y-139742503D01*
X73795033Y-139750000D01*
X73524967Y-139750000D01*
X73487276Y-139742503D01*
X73260094Y-139697314D01*
X73010588Y-139593965D01*
X72786038Y-139443925D01*
X72595075Y-139252962D01*
X72445035Y-139028412D01*
X72341686Y-138778906D01*
X72289000Y-138514032D01*
X72289000Y-138243968D01*
X72341686Y-137979094D01*
X72445035Y-137729588D01*
X72595075Y-137505038D01*
X72786038Y-137314075D01*
X73010588Y-137164035D01*
X73260094Y-137060686D01*
X73487276Y-137015497D01*
X73524967Y-137008000D01*
X73795033Y-137008000D01*
X73832724Y-137015497D01*
X73832724Y-137015497D01*
G37*
G36*
X69692724Y-137015497D02*
G01*
X69919906Y-137060686D01*
X70169412Y-137164035D01*
X70393962Y-137314075D01*
X70584925Y-137505038D01*
X70734965Y-137729588D01*
X70838314Y-137979094D01*
X70891000Y-138243968D01*
X70891000Y-138514032D01*
X70838314Y-138778906D01*
X70734965Y-139028412D01*
X70584925Y-139252962D01*
X70393962Y-139443925D01*
X70169412Y-139593965D01*
X69919906Y-139697314D01*
X69692724Y-139742503D01*
X69655033Y-139750000D01*
X69384967Y-139750000D01*
X69347276Y-139742503D01*
X69120094Y-139697314D01*
X68870588Y-139593965D01*
X68646038Y-139443925D01*
X68455075Y-139252962D01*
X68305035Y-139028412D01*
X68201686Y-138778906D01*
X68149000Y-138514032D01*
X68149000Y-138243968D01*
X68201686Y-137979094D01*
X68305035Y-137729588D01*
X68455075Y-137505038D01*
X68646038Y-137314075D01*
X68870588Y-137164035D01*
X69120094Y-137060686D01*
X69347276Y-137015497D01*
X69384967Y-137008000D01*
X69655033Y-137008000D01*
X69692724Y-137015497D01*
X69692724Y-137015497D01*
G37*
G36*
X78578661Y-132661062D02*
G01*
X78877303Y-132784764D01*
X78877305Y-132784765D01*
X79031455Y-132887765D01*
X79146076Y-132964352D01*
X79374648Y-133192924D01*
X79554236Y-133461697D01*
X79677938Y-133760339D01*
X79741000Y-134077374D01*
X79741000Y-134400626D01*
X79677938Y-134717661D01*
X79607211Y-134888410D01*
X79554235Y-135016305D01*
X79374648Y-135285076D01*
X79146076Y-135513648D01*
X78877305Y-135693235D01*
X78877304Y-135693236D01*
X78877303Y-135693236D01*
X78578661Y-135816938D01*
X78261626Y-135880000D01*
X77938374Y-135880000D01*
X77621339Y-135816938D01*
X77322697Y-135693236D01*
X77322696Y-135693236D01*
X77322695Y-135693235D01*
X77053924Y-135513648D01*
X76825352Y-135285076D01*
X76645765Y-135016305D01*
X76592789Y-134888410D01*
X76522062Y-134717661D01*
X76459000Y-134400626D01*
X76459000Y-134077374D01*
X76522062Y-133760339D01*
X76645764Y-133461697D01*
X76825352Y-133192924D01*
X77053924Y-132964352D01*
X77168545Y-132887765D01*
X77322695Y-132784765D01*
X77322697Y-132784764D01*
X77621339Y-132661062D01*
X77938374Y-132598000D01*
X78261626Y-132598000D01*
X78578661Y-132661062D01*
X78578661Y-132661062D01*
G37*
G36*
X74903436Y-132871635D02*
G01*
X74933027Y-132880611D01*
X74960296Y-132895187D01*
X74984198Y-132914802D01*
X75003813Y-132938704D01*
X75018389Y-132965973D01*
X75027365Y-132995564D01*
X75031000Y-133032474D01*
X75031000Y-135445526D01*
X75027365Y-135482436D01*
X75018389Y-135512027D01*
X75003813Y-135539296D01*
X74984198Y-135563198D01*
X74960296Y-135582813D01*
X74933027Y-135597389D01*
X74903436Y-135606365D01*
X74866526Y-135610000D01*
X72453474Y-135610000D01*
X72416564Y-135606365D01*
X72386973Y-135597389D01*
X72359704Y-135582813D01*
X72335802Y-135563198D01*
X72316187Y-135539296D01*
X72301611Y-135512027D01*
X72292635Y-135482436D01*
X72289000Y-135445526D01*
X72289000Y-133032474D01*
X72292635Y-132995564D01*
X72301611Y-132965973D01*
X72316187Y-132938704D01*
X72335802Y-132914802D01*
X72359704Y-132895187D01*
X72386973Y-132880611D01*
X72416564Y-132871635D01*
X72453474Y-132868000D01*
X74866526Y-132868000D01*
X74903436Y-132871635D01*
X74903436Y-132871635D01*
G37*
G36*
X69673307Y-132871635D02*
G01*
X69919906Y-132920686D01*
X70169412Y-133024035D01*
X70393962Y-133174075D01*
X70584925Y-133365038D01*
X70734965Y-133589588D01*
X70838314Y-133839094D01*
X70891000Y-134103968D01*
X70891000Y-134374032D01*
X70838314Y-134638906D01*
X70734965Y-134888412D01*
X70584925Y-135112962D01*
X70393962Y-135303925D01*
X70169412Y-135453965D01*
X69919906Y-135557314D01*
X69692724Y-135602503D01*
X69655033Y-135610000D01*
X69384967Y-135610000D01*
X69347276Y-135602503D01*
X69120094Y-135557314D01*
X68870588Y-135453965D01*
X68646038Y-135303925D01*
X68455075Y-135112962D01*
X68305035Y-134888412D01*
X68201686Y-134638906D01*
X68149000Y-134374032D01*
X68149000Y-134103968D01*
X68201686Y-133839094D01*
X68305035Y-133589588D01*
X68455075Y-133365038D01*
X68646038Y-133174075D01*
X68870588Y-133024035D01*
X69120094Y-132920686D01*
X69366693Y-132871635D01*
X69384967Y-132868000D01*
X69655033Y-132868000D01*
X69673307Y-132871635D01*
X69673307Y-132871635D01*
G37*
G36*
X90856000Y-132385000D02*
G01*
X88214000Y-132385000D01*
X88214000Y-129743000D01*
X90856000Y-129743000D01*
X90856000Y-132385000D01*
X90856000Y-132385000D01*
G37*
G36*
X68653662Y-125950063D02*
G01*
X68952304Y-126073765D01*
X68952306Y-126073766D01*
X69221077Y-126253353D01*
X69449649Y-126481925D01*
X69629237Y-126750698D01*
X69752939Y-127049340D01*
X69816001Y-127366375D01*
X69816001Y-127689627D01*
X69752939Y-128006662D01*
X69629237Y-128305304D01*
X69629236Y-128305306D01*
X69449649Y-128574077D01*
X69221077Y-128802649D01*
X68952306Y-128982236D01*
X68952305Y-128982237D01*
X68952304Y-128982237D01*
X68653662Y-129105939D01*
X68336627Y-129169001D01*
X68013375Y-129169001D01*
X67696340Y-129105939D01*
X67397698Y-128982237D01*
X67397697Y-128982237D01*
X67397696Y-128982236D01*
X67128925Y-128802649D01*
X66900353Y-128574077D01*
X66720766Y-128305306D01*
X66720765Y-128305304D01*
X66597063Y-128006662D01*
X66534001Y-127689627D01*
X66534001Y-127366375D01*
X66597063Y-127049340D01*
X66720765Y-126750698D01*
X66900353Y-126481925D01*
X67128925Y-126253353D01*
X67397696Y-126073766D01*
X67397698Y-126073765D01*
X67696340Y-125950063D01*
X68013375Y-125887001D01*
X68336627Y-125887001D01*
X68653662Y-125950063D01*
X68653662Y-125950063D01*
G37*
G36*
X89792714Y-122148382D02*
G01*
X89920322Y-122173765D01*
X90061148Y-122232097D01*
X90160727Y-122273344D01*
X90160728Y-122273345D01*
X90377089Y-122417912D01*
X90561088Y-122601911D01*
X90657685Y-122746479D01*
X90705656Y-122818273D01*
X90746903Y-122917852D01*
X90805235Y-123058678D01*
X90856000Y-123313893D01*
X90856000Y-123574107D01*
X90805235Y-123829322D01*
X90750294Y-123961960D01*
X90705656Y-124069727D01*
X90705655Y-124069728D01*
X90561088Y-124286089D01*
X90377089Y-124470088D01*
X90232521Y-124566685D01*
X90160727Y-124614656D01*
X90061148Y-124655903D01*
X89920322Y-124714235D01*
X89792714Y-124739618D01*
X89665109Y-124765000D01*
X89404891Y-124765000D01*
X89277286Y-124739618D01*
X89149678Y-124714235D01*
X89008852Y-124655903D01*
X88909273Y-124614656D01*
X88837479Y-124566685D01*
X88692911Y-124470088D01*
X88508912Y-124286089D01*
X88364345Y-124069728D01*
X88364344Y-124069727D01*
X88319706Y-123961960D01*
X88264765Y-123829322D01*
X88214000Y-123574107D01*
X88214000Y-123313893D01*
X88264765Y-123058678D01*
X88323097Y-122917852D01*
X88364344Y-122818273D01*
X88412315Y-122746479D01*
X88508912Y-122601911D01*
X88692911Y-122417912D01*
X88909272Y-122273345D01*
X88909273Y-122273344D01*
X89008852Y-122232097D01*
X89149678Y-122173765D01*
X89277286Y-122148382D01*
X89404891Y-122123000D01*
X89665109Y-122123000D01*
X89792714Y-122148382D01*
X89792714Y-122148382D01*
G37*
G36*
X72487725Y-121724498D02*
G01*
X72714907Y-121769687D01*
X72964413Y-121873036D01*
X73188963Y-122023076D01*
X73379926Y-122214039D01*
X73529966Y-122438589D01*
X73633315Y-122688095D01*
X73686001Y-122952969D01*
X73686001Y-123223033D01*
X73633315Y-123487907D01*
X73529966Y-123737413D01*
X73379926Y-123961963D01*
X73188963Y-124152926D01*
X72964413Y-124302966D01*
X72714907Y-124406315D01*
X72487725Y-124451504D01*
X72450034Y-124459001D01*
X72179968Y-124459001D01*
X72142277Y-124451504D01*
X71915095Y-124406315D01*
X71665589Y-124302966D01*
X71441039Y-124152926D01*
X71250076Y-123961963D01*
X71100036Y-123737413D01*
X70996687Y-123487907D01*
X70944001Y-123223033D01*
X70944001Y-122952969D01*
X70996687Y-122688095D01*
X71100036Y-122438589D01*
X71250076Y-122214039D01*
X71441039Y-122023076D01*
X71665589Y-121873036D01*
X71915095Y-121769687D01*
X72142277Y-121724498D01*
X72179968Y-121717001D01*
X72450034Y-121717001D01*
X72487725Y-121724498D01*
X72487725Y-121724498D01*
G37*
G36*
X68347725Y-121724498D02*
G01*
X68574907Y-121769687D01*
X68824413Y-121873036D01*
X69048963Y-122023076D01*
X69239926Y-122214039D01*
X69389966Y-122438589D01*
X69493315Y-122688095D01*
X69546001Y-122952969D01*
X69546001Y-123223033D01*
X69493315Y-123487907D01*
X69389966Y-123737413D01*
X69239926Y-123961963D01*
X69048963Y-124152926D01*
X68824413Y-124302966D01*
X68574907Y-124406315D01*
X68347725Y-124451504D01*
X68310034Y-124459001D01*
X68039968Y-124459001D01*
X68002277Y-124451504D01*
X67775095Y-124406315D01*
X67525589Y-124302966D01*
X67301039Y-124152926D01*
X67110076Y-123961963D01*
X66960036Y-123737413D01*
X66856687Y-123487907D01*
X66804001Y-123223033D01*
X66804001Y-122952969D01*
X66856687Y-122688095D01*
X66960036Y-122438589D01*
X67110076Y-122214039D01*
X67301039Y-122023076D01*
X67525589Y-121873036D01*
X67775095Y-121769687D01*
X68002277Y-121724498D01*
X68039968Y-121717001D01*
X68310034Y-121717001D01*
X68347725Y-121724498D01*
X68347725Y-121724498D01*
G37*
G36*
X68347725Y-117584498D02*
G01*
X68574907Y-117629687D01*
X68824413Y-117733036D01*
X69048963Y-117883076D01*
X69239926Y-118074039D01*
X69389966Y-118298589D01*
X69493315Y-118548095D01*
X69546001Y-118812969D01*
X69546001Y-119083033D01*
X69493315Y-119347907D01*
X69389966Y-119597413D01*
X69239926Y-119821963D01*
X69048963Y-120012926D01*
X68824413Y-120162966D01*
X68574907Y-120266315D01*
X68347725Y-120311504D01*
X68310034Y-120319001D01*
X68039968Y-120319001D01*
X68002277Y-120311504D01*
X67775095Y-120266315D01*
X67525589Y-120162966D01*
X67301039Y-120012926D01*
X67110076Y-119821963D01*
X66960036Y-119597413D01*
X66856687Y-119347907D01*
X66804001Y-119083033D01*
X66804001Y-118812969D01*
X66856687Y-118548095D01*
X66960036Y-118298589D01*
X67110076Y-118074039D01*
X67301039Y-117883076D01*
X67525589Y-117733036D01*
X67775095Y-117629687D01*
X68002277Y-117584498D01*
X68039968Y-117577001D01*
X68310034Y-117577001D01*
X68347725Y-117584498D01*
X68347725Y-117584498D01*
G37*
G36*
X72487725Y-117584498D02*
G01*
X72714907Y-117629687D01*
X72964413Y-117733036D01*
X73188963Y-117883076D01*
X73379926Y-118074039D01*
X73529966Y-118298589D01*
X73633315Y-118548095D01*
X73686001Y-118812969D01*
X73686001Y-119083033D01*
X73633315Y-119347907D01*
X73529966Y-119597413D01*
X73379926Y-119821963D01*
X73188963Y-120012926D01*
X72964413Y-120162966D01*
X72714907Y-120266315D01*
X72487725Y-120311504D01*
X72450034Y-120319001D01*
X72179968Y-120319001D01*
X72142277Y-120311504D01*
X71915095Y-120266315D01*
X71665589Y-120162966D01*
X71441039Y-120012926D01*
X71250076Y-119821963D01*
X71100036Y-119597413D01*
X70996687Y-119347907D01*
X70944001Y-119083033D01*
X70944001Y-118812969D01*
X70996687Y-118548095D01*
X71100036Y-118298589D01*
X71250076Y-118074039D01*
X71441039Y-117883076D01*
X71665589Y-117733036D01*
X71915095Y-117629687D01*
X72142277Y-117584498D01*
X72179968Y-117577001D01*
X72450034Y-117577001D01*
X72487725Y-117584498D01*
X72487725Y-117584498D01*
G37*
G36*
X72487725Y-113444498D02*
G01*
X72714907Y-113489687D01*
X72964413Y-113593036D01*
X73188963Y-113743076D01*
X73379926Y-113934039D01*
X73529966Y-114158589D01*
X73633315Y-114408095D01*
X73686001Y-114672969D01*
X73686001Y-114943033D01*
X73633315Y-115207907D01*
X73529966Y-115457413D01*
X73379926Y-115681963D01*
X73188963Y-115872926D01*
X72964413Y-116022966D01*
X72714907Y-116126315D01*
X72487725Y-116171504D01*
X72450034Y-116179001D01*
X72179968Y-116179001D01*
X72142277Y-116171504D01*
X71915095Y-116126315D01*
X71665589Y-116022966D01*
X71441039Y-115872926D01*
X71250076Y-115681963D01*
X71100036Y-115457413D01*
X70996687Y-115207907D01*
X70944001Y-114943033D01*
X70944001Y-114672969D01*
X70996687Y-114408095D01*
X71100036Y-114158589D01*
X71250076Y-113934039D01*
X71441039Y-113743076D01*
X71665589Y-113593036D01*
X71915095Y-113489687D01*
X72142277Y-113444498D01*
X72179968Y-113437001D01*
X72450034Y-113437001D01*
X72487725Y-113444498D01*
X72487725Y-113444498D01*
G37*
G36*
X68347725Y-113444498D02*
G01*
X68574907Y-113489687D01*
X68824413Y-113593036D01*
X69048963Y-113743076D01*
X69239926Y-113934039D01*
X69389966Y-114158589D01*
X69493315Y-114408095D01*
X69546001Y-114672969D01*
X69546001Y-114943033D01*
X69493315Y-115207907D01*
X69389966Y-115457413D01*
X69239926Y-115681963D01*
X69048963Y-115872926D01*
X68824413Y-116022966D01*
X68574907Y-116126315D01*
X68347725Y-116171504D01*
X68310034Y-116179001D01*
X68039968Y-116179001D01*
X68002277Y-116171504D01*
X67775095Y-116126315D01*
X67525589Y-116022966D01*
X67301039Y-115872926D01*
X67110076Y-115681963D01*
X66960036Y-115457413D01*
X66856687Y-115207907D01*
X66804001Y-114943033D01*
X66804001Y-114672969D01*
X66856687Y-114408095D01*
X66960036Y-114158589D01*
X67110076Y-113934039D01*
X67301039Y-113743076D01*
X67525589Y-113593036D01*
X67775095Y-113489687D01*
X68002277Y-113444498D01*
X68039968Y-113437001D01*
X68310034Y-113437001D01*
X68347725Y-113444498D01*
X68347725Y-113444498D01*
G37*
G36*
X72487725Y-109304498D02*
G01*
X72714907Y-109349687D01*
X72964413Y-109453036D01*
X73188963Y-109603076D01*
X73379926Y-109794039D01*
X73529966Y-110018589D01*
X73633315Y-110268095D01*
X73686001Y-110532969D01*
X73686001Y-110803033D01*
X73633315Y-111067907D01*
X73529966Y-111317413D01*
X73379926Y-111541963D01*
X73188963Y-111732926D01*
X72964413Y-111882966D01*
X72714907Y-111986315D01*
X72487725Y-112031504D01*
X72450034Y-112039001D01*
X72179968Y-112039001D01*
X72142277Y-112031504D01*
X71915095Y-111986315D01*
X71665589Y-111882966D01*
X71441039Y-111732926D01*
X71250076Y-111541963D01*
X71100036Y-111317413D01*
X70996687Y-111067907D01*
X70944001Y-110803033D01*
X70944001Y-110532969D01*
X70996687Y-110268095D01*
X71100036Y-110018589D01*
X71250076Y-109794039D01*
X71441039Y-109603076D01*
X71665589Y-109453036D01*
X71915095Y-109349687D01*
X72142277Y-109304498D01*
X72179968Y-109297001D01*
X72450034Y-109297001D01*
X72487725Y-109304498D01*
X72487725Y-109304498D01*
G37*
G36*
X68347725Y-109304498D02*
G01*
X68574907Y-109349687D01*
X68824413Y-109453036D01*
X69048963Y-109603076D01*
X69239926Y-109794039D01*
X69389966Y-110018589D01*
X69493315Y-110268095D01*
X69546001Y-110532969D01*
X69546001Y-110803033D01*
X69493315Y-111067907D01*
X69389966Y-111317413D01*
X69239926Y-111541963D01*
X69048963Y-111732926D01*
X68824413Y-111882966D01*
X68574907Y-111986315D01*
X68347725Y-112031504D01*
X68310034Y-112039001D01*
X68039968Y-112039001D01*
X68002277Y-112031504D01*
X67775095Y-111986315D01*
X67525589Y-111882966D01*
X67301039Y-111732926D01*
X67110076Y-111541963D01*
X66960036Y-111317413D01*
X66856687Y-111067907D01*
X66804001Y-110803033D01*
X66804001Y-110532969D01*
X66856687Y-110268095D01*
X66960036Y-110018589D01*
X67110076Y-109794039D01*
X67301039Y-109603076D01*
X67525589Y-109453036D01*
X67775095Y-109349687D01*
X68002277Y-109304498D01*
X68039968Y-109297001D01*
X68310034Y-109297001D01*
X68347725Y-109304498D01*
X68347725Y-109304498D01*
G37*
G36*
X68347725Y-105164498D02*
G01*
X68574907Y-105209687D01*
X68824413Y-105313036D01*
X69048963Y-105463076D01*
X69239926Y-105654039D01*
X69389966Y-105878589D01*
X69493315Y-106128095D01*
X69546001Y-106392969D01*
X69546001Y-106663033D01*
X69493315Y-106927907D01*
X69389966Y-107177413D01*
X69239926Y-107401963D01*
X69048963Y-107592926D01*
X68824413Y-107742966D01*
X68574907Y-107846315D01*
X68347725Y-107891504D01*
X68310034Y-107899001D01*
X68039968Y-107899001D01*
X68002277Y-107891504D01*
X67775095Y-107846315D01*
X67525589Y-107742966D01*
X67301039Y-107592926D01*
X67110076Y-107401963D01*
X66960036Y-107177413D01*
X66856687Y-106927907D01*
X66804001Y-106663033D01*
X66804001Y-106392969D01*
X66856687Y-106128095D01*
X66960036Y-105878589D01*
X67110076Y-105654039D01*
X67301039Y-105463076D01*
X67525589Y-105313036D01*
X67775095Y-105209687D01*
X68002277Y-105164498D01*
X68039968Y-105157001D01*
X68310034Y-105157001D01*
X68347725Y-105164498D01*
X68347725Y-105164498D01*
G37*
G36*
X72487725Y-105164498D02*
G01*
X72714907Y-105209687D01*
X72964413Y-105313036D01*
X73188963Y-105463076D01*
X73379926Y-105654039D01*
X73529966Y-105878589D01*
X73633315Y-106128095D01*
X73686001Y-106392969D01*
X73686001Y-106663033D01*
X73633315Y-106927907D01*
X73529966Y-107177413D01*
X73379926Y-107401963D01*
X73188963Y-107592926D01*
X72964413Y-107742966D01*
X72714907Y-107846315D01*
X72487725Y-107891504D01*
X72450034Y-107899001D01*
X72179968Y-107899001D01*
X72142277Y-107891504D01*
X71915095Y-107846315D01*
X71665589Y-107742966D01*
X71441039Y-107592926D01*
X71250076Y-107401963D01*
X71100036Y-107177413D01*
X70996687Y-106927907D01*
X70944001Y-106663033D01*
X70944001Y-106392969D01*
X70996687Y-106128095D01*
X71100036Y-105878589D01*
X71250076Y-105654039D01*
X71441039Y-105463076D01*
X71665589Y-105313036D01*
X71915095Y-105209687D01*
X72142277Y-105164498D01*
X72179968Y-105157001D01*
X72450034Y-105157001D01*
X72487725Y-105164498D01*
X72487725Y-105164498D01*
G37*
G36*
X68347725Y-101024498D02*
G01*
X68574907Y-101069687D01*
X68824413Y-101173036D01*
X69048963Y-101323076D01*
X69239926Y-101514039D01*
X69389966Y-101738589D01*
X69493315Y-101988095D01*
X69546001Y-102252969D01*
X69546001Y-102523033D01*
X69493315Y-102787907D01*
X69389966Y-103037413D01*
X69239926Y-103261963D01*
X69048963Y-103452926D01*
X68824413Y-103602966D01*
X68574907Y-103706315D01*
X68347725Y-103751504D01*
X68310034Y-103759001D01*
X68039968Y-103759001D01*
X68002277Y-103751504D01*
X67775095Y-103706315D01*
X67525589Y-103602966D01*
X67301039Y-103452926D01*
X67110076Y-103261963D01*
X66960036Y-103037413D01*
X66856687Y-102787907D01*
X66804001Y-102523033D01*
X66804001Y-102252969D01*
X66856687Y-101988095D01*
X66960036Y-101738589D01*
X67110076Y-101514039D01*
X67301039Y-101323076D01*
X67525589Y-101173036D01*
X67775095Y-101069687D01*
X68002277Y-101024498D01*
X68039968Y-101017001D01*
X68310034Y-101017001D01*
X68347725Y-101024498D01*
X68347725Y-101024498D01*
G37*
G36*
X72487725Y-101024498D02*
G01*
X72714907Y-101069687D01*
X72964413Y-101173036D01*
X73188963Y-101323076D01*
X73379926Y-101514039D01*
X73529966Y-101738589D01*
X73633315Y-101988095D01*
X73686001Y-102252969D01*
X73686001Y-102523033D01*
X73633315Y-102787907D01*
X73529966Y-103037413D01*
X73379926Y-103261963D01*
X73188963Y-103452926D01*
X72964413Y-103602966D01*
X72714907Y-103706315D01*
X72487725Y-103751504D01*
X72450034Y-103759001D01*
X72179968Y-103759001D01*
X72142277Y-103751504D01*
X71915095Y-103706315D01*
X71665589Y-103602966D01*
X71441039Y-103452926D01*
X71250076Y-103261963D01*
X71100036Y-103037413D01*
X70996687Y-102787907D01*
X70944001Y-102523033D01*
X70944001Y-102252969D01*
X70996687Y-101988095D01*
X71100036Y-101738589D01*
X71250076Y-101514039D01*
X71441039Y-101323076D01*
X71665589Y-101173036D01*
X71915095Y-101069687D01*
X72142277Y-101024498D01*
X72179968Y-101017001D01*
X72450034Y-101017001D01*
X72487725Y-101024498D01*
X72487725Y-101024498D01*
G37*
G36*
X68347725Y-96884498D02*
G01*
X68574907Y-96929687D01*
X68824413Y-97033036D01*
X69048963Y-97183076D01*
X69239926Y-97374039D01*
X69389966Y-97598589D01*
X69493315Y-97848095D01*
X69546001Y-98112969D01*
X69546001Y-98383033D01*
X69493315Y-98647907D01*
X69389966Y-98897413D01*
X69239926Y-99121963D01*
X69048963Y-99312926D01*
X68824413Y-99462966D01*
X68574907Y-99566315D01*
X68347725Y-99611504D01*
X68310034Y-99619001D01*
X68039968Y-99619001D01*
X68002277Y-99611504D01*
X67775095Y-99566315D01*
X67525589Y-99462966D01*
X67301039Y-99312926D01*
X67110076Y-99121963D01*
X66960036Y-98897413D01*
X66856687Y-98647907D01*
X66804001Y-98383033D01*
X66804001Y-98112969D01*
X66856687Y-97848095D01*
X66960036Y-97598589D01*
X67110076Y-97374039D01*
X67301039Y-97183076D01*
X67525589Y-97033036D01*
X67775095Y-96929687D01*
X68002277Y-96884498D01*
X68039968Y-96877001D01*
X68310034Y-96877001D01*
X68347725Y-96884498D01*
X68347725Y-96884498D01*
G37*
G36*
X72487725Y-96884498D02*
G01*
X72714907Y-96929687D01*
X72964413Y-97033036D01*
X73188963Y-97183076D01*
X73379926Y-97374039D01*
X73529966Y-97598589D01*
X73633315Y-97848095D01*
X73686001Y-98112969D01*
X73686001Y-98383033D01*
X73633315Y-98647907D01*
X73529966Y-98897413D01*
X73379926Y-99121963D01*
X73188963Y-99312926D01*
X72964413Y-99462966D01*
X72714907Y-99566315D01*
X72487725Y-99611504D01*
X72450034Y-99619001D01*
X72179968Y-99619001D01*
X72142277Y-99611504D01*
X71915095Y-99566315D01*
X71665589Y-99462966D01*
X71441039Y-99312926D01*
X71250076Y-99121963D01*
X71100036Y-98897413D01*
X70996687Y-98647907D01*
X70944001Y-98383033D01*
X70944001Y-98112969D01*
X70996687Y-97848095D01*
X71100036Y-97598589D01*
X71250076Y-97374039D01*
X71441039Y-97183076D01*
X71665589Y-97033036D01*
X71915095Y-96929687D01*
X72142277Y-96884498D01*
X72179968Y-96877001D01*
X72450034Y-96877001D01*
X72487725Y-96884498D01*
X72487725Y-96884498D01*
G37*
G36*
X91570714Y-96113382D02*
G01*
X91698322Y-96138765D01*
X91839148Y-96197097D01*
X91938727Y-96238344D01*
X91938728Y-96238345D01*
X92155089Y-96382912D01*
X92339088Y-96566911D01*
X92435685Y-96711479D01*
X92483656Y-96783273D01*
X92522479Y-96877001D01*
X92583235Y-97023678D01*
X92583235Y-97023680D01*
X92634000Y-97278891D01*
X92634000Y-97539109D01*
X92622168Y-97598591D01*
X92583235Y-97794322D01*
X92524903Y-97935148D01*
X92483656Y-98034727D01*
X92483655Y-98034728D01*
X92339088Y-98251089D01*
X92155089Y-98435088D01*
X92010521Y-98531685D01*
X91938727Y-98579656D01*
X91839148Y-98620903D01*
X91698322Y-98679235D01*
X91570715Y-98704617D01*
X91443109Y-98730000D01*
X91182891Y-98730000D01*
X91055285Y-98704617D01*
X90927678Y-98679235D01*
X90786852Y-98620903D01*
X90687273Y-98579656D01*
X90615479Y-98531685D01*
X90470911Y-98435088D01*
X90286912Y-98251089D01*
X90142345Y-98034728D01*
X90142344Y-98034727D01*
X90101097Y-97935148D01*
X90042765Y-97794322D01*
X90003832Y-97598591D01*
X89992000Y-97539109D01*
X89992000Y-97278891D01*
X90042765Y-97023680D01*
X90042765Y-97023678D01*
X90103521Y-96877001D01*
X90142344Y-96783273D01*
X90190315Y-96711479D01*
X90286912Y-96566911D01*
X90470911Y-96382912D01*
X90687272Y-96238345D01*
X90687273Y-96238344D01*
X90786852Y-96197097D01*
X90927678Y-96138765D01*
X91055286Y-96113382D01*
X91182891Y-96088000D01*
X91443109Y-96088000D01*
X91570714Y-96113382D01*
X91570714Y-96113382D01*
G37*
G36*
X72487725Y-92744498D02*
G01*
X72714907Y-92789687D01*
X72964413Y-92893036D01*
X73188963Y-93043076D01*
X73379926Y-93234039D01*
X73529966Y-93458589D01*
X73633315Y-93708095D01*
X73686001Y-93972969D01*
X73686001Y-94243033D01*
X73633315Y-94507907D01*
X73529966Y-94757413D01*
X73379926Y-94981963D01*
X73188963Y-95172926D01*
X72964413Y-95322966D01*
X72714907Y-95426315D01*
X72487725Y-95471504D01*
X72450034Y-95479001D01*
X72179968Y-95479001D01*
X72142277Y-95471504D01*
X71915095Y-95426315D01*
X71665589Y-95322966D01*
X71441039Y-95172926D01*
X71250076Y-94981963D01*
X71100036Y-94757413D01*
X70996687Y-94507907D01*
X70944001Y-94243033D01*
X70944001Y-93972969D01*
X70996687Y-93708095D01*
X71100036Y-93458589D01*
X71250076Y-93234039D01*
X71441039Y-93043076D01*
X71665589Y-92893036D01*
X71915095Y-92789687D01*
X72142277Y-92744498D01*
X72179968Y-92737001D01*
X72450034Y-92737001D01*
X72487725Y-92744498D01*
X72487725Y-92744498D01*
G37*
G36*
X68347725Y-92744498D02*
G01*
X68574907Y-92789687D01*
X68824413Y-92893036D01*
X69048963Y-93043076D01*
X69239926Y-93234039D01*
X69389966Y-93458589D01*
X69493315Y-93708095D01*
X69546001Y-93972969D01*
X69546001Y-94243033D01*
X69493315Y-94507907D01*
X69389966Y-94757413D01*
X69239926Y-94981963D01*
X69048963Y-95172926D01*
X68824413Y-95322966D01*
X68574907Y-95426315D01*
X68347725Y-95471504D01*
X68310034Y-95479001D01*
X68039968Y-95479001D01*
X68002277Y-95471504D01*
X67775095Y-95426315D01*
X67525589Y-95322966D01*
X67301039Y-95172926D01*
X67110076Y-94981963D01*
X66960036Y-94757413D01*
X66856687Y-94507907D01*
X66804001Y-94243033D01*
X66804001Y-93972969D01*
X66856687Y-93708095D01*
X66960036Y-93458589D01*
X67110076Y-93234039D01*
X67301039Y-93043076D01*
X67525589Y-92893036D01*
X67775095Y-92789687D01*
X68002277Y-92744498D01*
X68039968Y-92737001D01*
X68310034Y-92737001D01*
X68347725Y-92744498D01*
X68347725Y-92744498D01*
G37*
G36*
X72487725Y-88604498D02*
G01*
X72714907Y-88649687D01*
X72964413Y-88753036D01*
X73188963Y-88903076D01*
X73379926Y-89094039D01*
X73529966Y-89318589D01*
X73633315Y-89568095D01*
X73686001Y-89832969D01*
X73686001Y-90103033D01*
X73633315Y-90367907D01*
X73529966Y-90617413D01*
X73379926Y-90841963D01*
X73188963Y-91032926D01*
X72964413Y-91182966D01*
X72714907Y-91286315D01*
X72487725Y-91331504D01*
X72450034Y-91339001D01*
X72179968Y-91339001D01*
X72142277Y-91331504D01*
X71915095Y-91286315D01*
X71665589Y-91182966D01*
X71441039Y-91032926D01*
X71250076Y-90841963D01*
X71100036Y-90617413D01*
X70996687Y-90367907D01*
X70944001Y-90103033D01*
X70944001Y-89832969D01*
X70996687Y-89568095D01*
X71100036Y-89318589D01*
X71250076Y-89094039D01*
X71441039Y-88903076D01*
X71665589Y-88753036D01*
X71915095Y-88649687D01*
X72142277Y-88604498D01*
X72179968Y-88597001D01*
X72450034Y-88597001D01*
X72487725Y-88604498D01*
X72487725Y-88604498D01*
G37*
G36*
X68347725Y-88604498D02*
G01*
X68574907Y-88649687D01*
X68824413Y-88753036D01*
X69048963Y-88903076D01*
X69239926Y-89094039D01*
X69389966Y-89318589D01*
X69493315Y-89568095D01*
X69546001Y-89832969D01*
X69546001Y-90103033D01*
X69493315Y-90367907D01*
X69389966Y-90617413D01*
X69239926Y-90841963D01*
X69048963Y-91032926D01*
X68824413Y-91182966D01*
X68574907Y-91286315D01*
X68347725Y-91331504D01*
X68310034Y-91339001D01*
X68039968Y-91339001D01*
X68002277Y-91331504D01*
X67775095Y-91286315D01*
X67525589Y-91182966D01*
X67301039Y-91032926D01*
X67110076Y-90841963D01*
X66960036Y-90617413D01*
X66856687Y-90367907D01*
X66804001Y-90103033D01*
X66804001Y-89832969D01*
X66856687Y-89568095D01*
X66960036Y-89318589D01*
X67110076Y-89094039D01*
X67301039Y-88903076D01*
X67525589Y-88753036D01*
X67775095Y-88649687D01*
X68002277Y-88604498D01*
X68039968Y-88597001D01*
X68310034Y-88597001D01*
X68347725Y-88604498D01*
X68347725Y-88604498D01*
G37*
G36*
X92634000Y-91110000D02*
G01*
X89992000Y-91110000D01*
X89992000Y-88468000D01*
X92634000Y-88468000D01*
X92634000Y-91110000D01*
X92634000Y-91110000D01*
G37*
G36*
X68347725Y-84464498D02*
G01*
X68574907Y-84509687D01*
X68824413Y-84613036D01*
X69048963Y-84763076D01*
X69239926Y-84954039D01*
X69389966Y-85178589D01*
X69493315Y-85428095D01*
X69546001Y-85692969D01*
X69546001Y-85963033D01*
X69493315Y-86227907D01*
X69389966Y-86477413D01*
X69239926Y-86701963D01*
X69048963Y-86892926D01*
X68824413Y-87042966D01*
X68574907Y-87146315D01*
X68347725Y-87191504D01*
X68310034Y-87199001D01*
X68039968Y-87199001D01*
X68002277Y-87191504D01*
X67775095Y-87146315D01*
X67525589Y-87042966D01*
X67301039Y-86892926D01*
X67110076Y-86701963D01*
X66960036Y-86477413D01*
X66856687Y-86227907D01*
X66804001Y-85963033D01*
X66804001Y-85692969D01*
X66856687Y-85428095D01*
X66960036Y-85178589D01*
X67110076Y-84954039D01*
X67301039Y-84763076D01*
X67525589Y-84613036D01*
X67775095Y-84509687D01*
X68002277Y-84464498D01*
X68039968Y-84457001D01*
X68310034Y-84457001D01*
X68347725Y-84464498D01*
X68347725Y-84464498D01*
G37*
G36*
X72487725Y-84464498D02*
G01*
X72714907Y-84509687D01*
X72964413Y-84613036D01*
X73188963Y-84763076D01*
X73379926Y-84954039D01*
X73529966Y-85178589D01*
X73633315Y-85428095D01*
X73686001Y-85692969D01*
X73686001Y-85963033D01*
X73633315Y-86227907D01*
X73529966Y-86477413D01*
X73379926Y-86701963D01*
X73188963Y-86892926D01*
X72964413Y-87042966D01*
X72714907Y-87146315D01*
X72487725Y-87191504D01*
X72450034Y-87199001D01*
X72179968Y-87199001D01*
X72142277Y-87191504D01*
X71915095Y-87146315D01*
X71665589Y-87042966D01*
X71441039Y-86892926D01*
X71250076Y-86701963D01*
X71100036Y-86477413D01*
X70996687Y-86227907D01*
X70944001Y-85963033D01*
X70944001Y-85692969D01*
X70996687Y-85428095D01*
X71100036Y-85178589D01*
X71250076Y-84954039D01*
X71441039Y-84763076D01*
X71665589Y-84613036D01*
X71915095Y-84509687D01*
X72142277Y-84464498D01*
X72179968Y-84457001D01*
X72450034Y-84457001D01*
X72487725Y-84464498D01*
X72487725Y-84464498D01*
G37*
G36*
X72487725Y-80324498D02*
G01*
X72714907Y-80369687D01*
X72964413Y-80473036D01*
X73188963Y-80623076D01*
X73379926Y-80814039D01*
X73529966Y-81038589D01*
X73633315Y-81288095D01*
X73686001Y-81552969D01*
X73686001Y-81823033D01*
X73633315Y-82087907D01*
X73529966Y-82337413D01*
X73379926Y-82561963D01*
X73188963Y-82752926D01*
X72964413Y-82902966D01*
X72714907Y-83006315D01*
X72487725Y-83051504D01*
X72450034Y-83059001D01*
X72179968Y-83059001D01*
X72142277Y-83051504D01*
X71915095Y-83006315D01*
X71665589Y-82902966D01*
X71441039Y-82752926D01*
X71250076Y-82561963D01*
X71100036Y-82337413D01*
X70996687Y-82087907D01*
X70944001Y-81823033D01*
X70944001Y-81552969D01*
X70996687Y-81288095D01*
X71100036Y-81038589D01*
X71250076Y-80814039D01*
X71441039Y-80623076D01*
X71665589Y-80473036D01*
X71915095Y-80369687D01*
X72142277Y-80324498D01*
X72179968Y-80317001D01*
X72450034Y-80317001D01*
X72487725Y-80324498D01*
X72487725Y-80324498D01*
G37*
G36*
X68347725Y-80324498D02*
G01*
X68574907Y-80369687D01*
X68824413Y-80473036D01*
X69048963Y-80623076D01*
X69239926Y-80814039D01*
X69389966Y-81038589D01*
X69493315Y-81288095D01*
X69546001Y-81552969D01*
X69546001Y-81823033D01*
X69493315Y-82087907D01*
X69389966Y-82337413D01*
X69239926Y-82561963D01*
X69048963Y-82752926D01*
X68824413Y-82902966D01*
X68574907Y-83006315D01*
X68347725Y-83051504D01*
X68310034Y-83059001D01*
X68039968Y-83059001D01*
X68002277Y-83051504D01*
X67775095Y-83006315D01*
X67525589Y-82902966D01*
X67301039Y-82752926D01*
X67110076Y-82561963D01*
X66960036Y-82337413D01*
X66856687Y-82087907D01*
X66804001Y-81823033D01*
X66804001Y-81552969D01*
X66856687Y-81288095D01*
X66960036Y-81038589D01*
X67110076Y-80814039D01*
X67301039Y-80623076D01*
X67525589Y-80473036D01*
X67775095Y-80369687D01*
X68002277Y-80324498D01*
X68039968Y-80317001D01*
X68310034Y-80317001D01*
X68347725Y-80324498D01*
X68347725Y-80324498D01*
G37*
G36*
X72468308Y-76180636D02*
G01*
X72714907Y-76229687D01*
X72964413Y-76333036D01*
X73188963Y-76483076D01*
X73379926Y-76674039D01*
X73529966Y-76898589D01*
X73633315Y-77148095D01*
X73686001Y-77412969D01*
X73686001Y-77683033D01*
X73633315Y-77947907D01*
X73529966Y-78197413D01*
X73379926Y-78421963D01*
X73188963Y-78612926D01*
X72964413Y-78762966D01*
X72714907Y-78866315D01*
X72487725Y-78911504D01*
X72450034Y-78919001D01*
X72179968Y-78919001D01*
X72142277Y-78911504D01*
X71915095Y-78866315D01*
X71665589Y-78762966D01*
X71441039Y-78612926D01*
X71250076Y-78421963D01*
X71100036Y-78197413D01*
X70996687Y-77947907D01*
X70944001Y-77683033D01*
X70944001Y-77412969D01*
X70996687Y-77148095D01*
X71100036Y-76898589D01*
X71250076Y-76674039D01*
X71441039Y-76483076D01*
X71665589Y-76333036D01*
X71915095Y-76229687D01*
X72161694Y-76180636D01*
X72179968Y-76177001D01*
X72450034Y-76177001D01*
X72468308Y-76180636D01*
X72468308Y-76180636D01*
G37*
G36*
X69418437Y-76180636D02*
G01*
X69448028Y-76189612D01*
X69475297Y-76204188D01*
X69499199Y-76223803D01*
X69518814Y-76247705D01*
X69533390Y-76274974D01*
X69542366Y-76304565D01*
X69546001Y-76341475D01*
X69546001Y-78754527D01*
X69542366Y-78791437D01*
X69533390Y-78821028D01*
X69518814Y-78848297D01*
X69499199Y-78872199D01*
X69475297Y-78891814D01*
X69448028Y-78906390D01*
X69418437Y-78915366D01*
X69381527Y-78919001D01*
X66968475Y-78919001D01*
X66931565Y-78915366D01*
X66901974Y-78906390D01*
X66874705Y-78891814D01*
X66850803Y-78872199D01*
X66831188Y-78848297D01*
X66816612Y-78821028D01*
X66807636Y-78791437D01*
X66804001Y-78754527D01*
X66804001Y-76341475D01*
X66807636Y-76304565D01*
X66816612Y-76274974D01*
X66831188Y-76247705D01*
X66850803Y-76223803D01*
X66874705Y-76204188D01*
X66901974Y-76189612D01*
X66931565Y-76180636D01*
X66968475Y-76177001D01*
X69381527Y-76177001D01*
X69418437Y-76180636D01*
X69418437Y-76180636D01*
G37*
G36*
X68653662Y-71530063D02*
G01*
X68952304Y-71653765D01*
X68952306Y-71653766D01*
X69221077Y-71833353D01*
X69449649Y-72061925D01*
X69629237Y-72330698D01*
X69752939Y-72629340D01*
X69816001Y-72946375D01*
X69816001Y-73269627D01*
X69752939Y-73586662D01*
X69629237Y-73885304D01*
X69629236Y-73885306D01*
X69449649Y-74154077D01*
X69221077Y-74382649D01*
X68952306Y-74562236D01*
X68952305Y-74562237D01*
X68952304Y-74562237D01*
X68653662Y-74685939D01*
X68336627Y-74749001D01*
X68013375Y-74749001D01*
X67696340Y-74685939D01*
X67397698Y-74562237D01*
X67397697Y-74562237D01*
X67397696Y-74562236D01*
X67128925Y-74382649D01*
X66900353Y-74154077D01*
X66720766Y-73885306D01*
X66720765Y-73885304D01*
X66597063Y-73586662D01*
X66534001Y-73269627D01*
X66534001Y-72946375D01*
X66597063Y-72629340D01*
X66720765Y-72330698D01*
X66900353Y-72061925D01*
X67128925Y-71833353D01*
X67397696Y-71653766D01*
X67397698Y-71653765D01*
X67696340Y-71530063D01*
X68013375Y-71467001D01*
X68336627Y-71467001D01*
X68653662Y-71530063D01*
X68653662Y-71530063D01*
G37*
M02*
